<svg width="26" height="26" viewBox="0 0 26 26" fill="none" xmlns="http://www.w3.org/2000/svg">
<g clip-path="url(#clip0_318_1050)">
<path d="M13 25C19.6274 25 25 19.6274 25 13C25 6.37258 19.6274 1 13 1C6.37258 1 1 6.37258 1 13C1 19.6274 6.37258 25 13 25Z" fill="#F0F0F0"/>
<path d="M12.4783 13.0001H25C25 11.917 24.8556 10.8677 24.5866 9.86961H12.4783V13.0001Z" fill="#D80027"/>
<path d="M12.4783 6.73916H23.2387C22.5041 5.54047 21.5649 4.48095 20.4698 3.6087H12.4783V6.73916Z" fill="#D80027"/>
<path d="M13.0001 25.0001C15.8243 25.0001 18.4201 24.024 20.4699 22.3914H5.53027C7.58012 24.024 10.1759 25.0001 13.0001 25.0001Z" fill="#D80027"/>
<path d="M2.76134 19.2609H23.2388C23.8285 18.2986 24.2859 17.2467 24.5867 16.1304H1.41345C1.71425 17.2467 2.17161 18.2986 2.76134 19.2609Z" fill="#D80027"/>
<path d="M6.55863 2.87397H7.65217L6.63498 3.61295L7.02353 4.80869L6.00639 4.0697L4.98925 4.80869L5.32487 3.7757C4.42928 4.52172 3.64431 5.39575 2.99744 6.36963H3.34783L2.70034 6.84002C2.59947 7.0083 2.50272 7.17925 2.41 7.35273L2.71919 8.30434L2.14234 7.88523C1.99895 8.18903 1.8678 8.49967 1.74991 8.81678L2.09055 9.86528H3.34783L2.33064 10.6043L2.71919 11.8L1.70205 11.061L1.09277 11.5037C1.03178 11.9939 1 12.4932 1 13H13C13 6.37262 13 5.59131 13 1C10.6294 1 8.41961 1.68766 6.55863 2.87397ZM7.02353 11.8L6.00639 11.061L4.98925 11.8L5.3778 10.6043L4.36061 9.86528H5.61789L6.00639 8.66955L6.39489 9.86528H7.65217L6.63498 10.6043L7.02353 11.8ZM6.63498 7.10861L7.02353 8.30434L6.00639 7.56536L4.98925 8.30434L5.3778 7.10861L4.36061 6.36963H5.61789L6.00639 5.17389L6.39489 6.36963H7.65217L6.63498 7.10861ZM11.3279 11.8L10.3107 11.061L9.29359 11.8L9.68214 10.6043L8.66495 9.86528H9.92223L10.3107 8.66955L10.6992 9.86528H11.9565L10.9393 10.6043L11.3279 11.8ZM10.9393 7.10861L11.3279 8.30434L10.3107 7.56536L9.29359 8.30434L9.68214 7.10861L8.66495 6.36963H9.92223L10.3107 5.17389L10.6992 6.36963H11.9565L10.9393 7.10861ZM10.9393 3.61295L11.3279 4.80869L10.3107 4.0697L9.29359 4.80869L9.68214 3.61295L8.66495 2.87397H9.92223L10.3107 1.67823L10.6992 2.87397H11.9565L10.9393 3.61295Z" fill="#0052B4"/>
</g>
<rect x="1" y="1" width="24" height="24" rx="12" stroke="white" stroke-width="2"/>
<defs>
<clipPath id="clip0_318_1050">
<rect x="1" y="1" width="24" height="24" rx="12" fill="white"/>
</clipPath>
</defs>
</svg>
