<svg width="396" height="391" viewBox="0 0 396 391" fill="none" xmlns="http://www.w3.org/2000/svg">
<path d="M168.393 248.505L167.738 254.003L167.04 259.911L160.628 313.79H150.149L156.553 259.911L157.259 254.003L157.914 248.505H168.393Z" fill="#EBEBEB"/>
<path d="M166.876 248.505C166.321 253.964 165.729 259.413 165.131 264.853L163.279 281.191L161.341 297.501L160.344 305.645L159.304 313.79L160.159 305.606L161.049 297.432L162.923 281.104L164.86 264.794C165.494 259.355 166.164 253.925 166.876 248.505Z" fill="#C7C7C7"/>
<path d="M167.738 254.003L167.04 259.911H156.554L157.259 254.003H167.738Z" fill="#C7C7C7"/>
<path d="M220.141 248.505L220.796 254.003L221.494 259.911L227.906 313.79H238.385L231.98 259.911L231.275 254.003L230.62 248.505H220.141Z" fill="#EBEBEB"/>
<path d="M221.694 248.505C222.242 253.964 222.841 259.413 223.439 264.853L225.284 281.191L227.222 297.501L228.226 305.645L229.266 313.79L228.412 305.606L227.521 297.432L225.669 281.104L223.731 264.794C223.069 259.355 222.399 253.925 221.694 248.505Z" fill="#C7C7C7"/>
<path d="M220.796 254.003H231.275L231.98 259.911H221.494L220.796 254.003Z" fill="#C7C7C7"/>
<path d="M168.009 233.348H159.703L160.736 222.722H166.976L168.009 233.348Z" fill="#C7C7C7"/>
<path d="M171.486 216.997C172.23 211.223 169.418 205.717 165.207 204.698C160.995 203.678 156.979 207.533 156.235 213.306C155.492 219.08 158.303 224.587 162.515 225.606C166.726 226.625 170.743 222.77 171.486 216.997Z" fill="#DBDBDB"/>
<path d="M169.588 216.999C170.338 212.659 168.38 208.307 165.214 207.278C162.048 206.25 158.873 208.935 158.123 213.275C157.373 217.615 159.331 221.967 162.497 222.996C165.663 224.024 168.838 221.339 169.588 216.999Z" fill="white"/>
<path d="M168.778 214.666C168.723 213.703 168.524 212.767 168.193 211.915C167.862 211.063 167.406 210.314 166.855 209.714C166.299 209.123 165.661 208.692 164.98 208.449C164.299 208.205 163.589 208.154 162.894 208.298C162.203 208.447 161.543 208.794 160.956 209.316C160.37 209.837 159.87 210.522 159.489 211.326C159.086 212.185 158.823 213.153 158.716 214.164C158.609 215.174 158.661 216.205 158.869 217.185C159.223 218.88 160.049 220.315 161.17 221.18C162.263 222.03 163.545 222.301 164.774 221.941C165.963 221.593 167.029 220.697 167.795 219.402C168.551 218.123 168.988 216.545 169.042 214.9C169.042 214.832 169.042 214.763 168.992 214.763C168.942 214.763 168.942 214.822 168.942 214.9C168.915 215.566 168.821 216.223 168.664 216.853C168.5 217.473 168.282 218.063 168.016 218.611C167.735 219.143 167.41 219.628 167.047 220.057C166.674 220.484 166.265 220.848 165.829 221.141C165.202 221.546 164.52 221.767 163.827 221.791C163.134 221.814 162.445 221.639 161.804 221.277C161.161 220.904 160.585 220.344 160.115 219.636C159.645 218.928 159.293 218.088 159.082 217.176C158.866 216.238 158.8 215.247 158.889 214.272C158.977 213.296 159.218 212.358 159.595 211.521C159.96 210.727 160.444 210.05 161.015 209.535C161.587 209.019 162.232 208.677 162.908 208.533C163.821 208.334 164.756 208.477 165.615 208.946C166.474 209.415 167.225 210.193 167.788 211.199C168.059 211.717 168.279 212.282 168.443 212.879C168.602 213.484 168.707 214.114 168.757 214.754C168.757 214.754 168.778 214.695 168.778 214.666Z" fill="#EBEBEB"/>
<path d="M168.087 214.675C168.036 213.851 167.862 213.051 167.575 212.323C167.288 211.595 166.895 210.957 166.42 210.447C165.944 209.945 165.399 209.577 164.818 209.366C164.237 209.155 163.632 209.104 163.036 209.216C162.441 209.338 161.871 209.63 161.364 210.075C160.857 210.519 160.425 211.105 160.094 211.794C159.743 212.53 159.51 213.361 159.412 214.23C159.314 215.099 159.352 215.987 159.524 216.834C159.671 217.567 159.924 218.253 160.266 218.852C160.608 219.45 161.034 219.95 161.519 220.32C162.47 221.066 163.591 221.296 164.661 220.965C165.692 220.66 166.615 219.877 167.275 218.748C167.928 217.636 168.305 216.268 168.351 214.841C168.351 214.783 168.351 214.724 168.308 214.724C168.265 214.724 168.251 214.773 168.251 214.841C168.193 215.986 167.912 217.088 167.439 218.035C166.965 218.981 166.316 219.736 165.558 220.223C165.019 220.582 164.43 220.78 163.831 220.804C163.231 220.828 162.635 220.676 162.082 220.359C161.525 220.036 161.026 219.551 160.62 218.937C160.214 218.323 159.911 217.595 159.731 216.804C159.546 215.993 159.492 215.135 159.574 214.292C159.655 213.449 159.869 212.64 160.201 211.921C160.515 211.244 160.932 210.668 161.424 210.233C161.916 209.798 162.471 209.514 163.051 209.402C163.826 209.244 164.618 209.37 165.346 209.768C166.075 210.166 166.713 210.821 167.197 211.668C167.429 212.108 167.621 212.587 167.766 213.093C167.9 213.612 167.993 214.149 168.044 214.695L168.087 214.675Z" fill="#EBEBEB"/>
<path d="M167.396 214.685C167.345 213.999 167.192 213.334 166.947 212.731C166.702 212.128 166.37 211.6 165.972 211.179C165.171 210.344 164.163 209.973 163.165 210.144C162.665 210.234 162.185 210.469 161.757 210.833C161.328 211.197 160.961 211.681 160.679 212.253C160.374 212.872 160.17 213.573 160.08 214.31C159.99 215.046 160.017 215.8 160.159 216.521C160.278 217.15 160.49 217.738 160.78 218.252C161.07 218.766 161.433 219.193 161.847 219.51C162.664 220.135 163.621 220.323 164.533 220.037C165.412 219.757 166.193 219.066 166.741 218.084C167.284 217.141 167.602 215.992 167.653 214.793C167.653 214.734 167.653 214.685 167.603 214.685C167.595 214.686 167.586 214.69 167.579 214.695C167.572 214.701 167.565 214.709 167.56 214.718C167.554 214.727 167.55 214.737 167.548 214.748C167.546 214.76 167.545 214.771 167.546 214.783C167.491 215.744 167.252 216.668 166.855 217.463C166.457 218.259 165.915 218.897 165.281 219.314C164.827 219.622 164.33 219.793 163.824 219.817C163.318 219.84 162.814 219.716 162.346 219.451C161.873 219.183 161.449 218.774 161.105 218.254C160.761 217.733 160.506 217.115 160.358 216.443C160.211 215.759 160.172 215.039 160.246 214.333C160.32 213.627 160.504 212.951 160.786 212.351C161.054 211.793 161.408 211.32 161.822 210.966C162.237 210.612 162.702 210.385 163.186 210.3C163.827 210.197 164.476 210.301 165.081 210.603C165.691 210.92 166.226 211.461 166.627 212.166C166.826 212.525 166.988 212.919 167.111 213.338C167.231 213.766 167.315 214.211 167.361 214.666C167.361 214.666 167.404 214.695 167.396 214.685Z" fill="#EBEBEB"/>
<path d="M166.713 214.695C166.608 213.594 166.191 212.594 165.552 211.912C164.912 211.256 164.116 210.956 163.322 211.072C162.918 211.136 162.529 211.317 162.179 211.601C161.829 211.885 161.527 212.267 161.292 212.722C161.037 213.224 160.863 213.794 160.781 214.396C160.7 214.997 160.714 215.615 160.822 216.209C160.916 216.731 161.088 217.221 161.327 217.648C161.566 218.075 161.867 218.429 162.211 218.689C162.888 219.203 163.68 219.353 164.433 219.109C165.149 218.872 165.785 218.307 166.236 217.508C166.664 216.727 166.913 215.788 166.948 214.812C166.949 214.802 166.948 214.791 166.947 214.781C166.945 214.771 166.941 214.762 166.936 214.754C166.932 214.746 166.926 214.739 166.919 214.734C166.913 214.729 166.906 214.725 166.898 214.724C166.898 214.724 166.848 214.724 166.841 214.802C166.798 215.576 166.613 216.322 166.301 216.97C165.989 217.617 165.562 218.145 165.06 218.504C164.693 218.766 164.289 218.916 163.876 218.943C163.463 218.97 163.05 218.874 162.667 218.66C162.278 218.44 161.931 218.103 161.651 217.674C161.371 217.244 161.165 216.733 161.05 216.179C160.935 215.624 160.911 215.041 160.977 214.471C161.044 213.901 161.2 213.358 161.434 212.878C161.655 212.437 161.942 212.067 162.276 211.792C162.611 211.517 162.984 211.345 163.372 211.287C163.879 211.224 164.389 211.314 164.868 211.55C165.349 211.794 165.774 212.209 166.1 212.751C166.257 213.039 166.388 213.35 166.492 213.679C166.593 214.022 166.667 214.379 166.713 214.744V214.695Z" fill="#EBEBEB"/>
<path d="M228.654 233.348H220.34L221.373 222.722H227.621L228.654 233.348Z" fill="#C7C7C7"/>
<path d="M232.281 216.069C232.922 210.265 230.01 204.847 225.776 203.968C221.542 203.088 217.59 207.081 216.948 212.885C216.307 218.689 219.219 224.107 223.453 224.987C227.687 225.866 231.639 221.874 232.281 216.069Z" fill="#DBDBDB"/>
<path d="M230.316 216.35C230.806 211.94 228.596 207.821 225.38 207.148C222.163 206.476 219.158 209.505 218.668 213.915C218.177 218.324 220.387 222.444 223.604 223.116C226.82 223.789 229.825 220.759 230.316 216.35Z" fill="white"/>
<path d="M229.423 214.666C229.367 213.704 229.167 212.768 228.836 211.916C228.506 211.064 228.05 210.315 227.499 209.714C226.943 209.123 226.306 208.693 225.625 208.45C224.944 208.206 224.234 208.155 223.539 208.298C222.848 208.447 222.188 208.794 221.601 209.316C221.015 209.837 220.515 210.522 220.133 211.326C219.728 212.183 219.463 213.151 219.356 214.163C219.249 215.174 219.303 216.205 219.514 217.185C219.865 218.882 220.692 220.318 221.815 221.18C222.907 222.031 224.19 222.302 225.419 221.941C226.608 221.593 227.674 220.697 228.44 219.402C229.196 218.123 229.633 216.545 229.686 214.9C229.686 214.832 229.686 214.763 229.637 214.763C229.587 214.763 229.587 214.822 229.58 214.9C229.551 215.564 229.46 216.221 229.309 216.853C229.146 217.475 228.925 218.066 228.654 218.611C228.096 219.699 227.343 220.571 226.467 221.141C225.841 221.548 225.16 221.771 224.468 221.795C223.776 221.818 223.088 221.642 222.449 221.277C221.805 220.904 221.227 220.345 220.756 219.637C220.285 218.929 219.932 218.089 219.72 217.176C219.505 216.237 219.44 215.246 219.53 214.27C219.62 213.295 219.862 212.357 220.24 211.521C220.605 210.727 221.089 210.05 221.66 209.535C222.232 209.019 222.877 208.677 223.553 208.533C224.466 208.334 225.401 208.477 226.26 208.946C227.119 209.415 227.87 210.193 228.433 211.199C228.701 211.719 228.921 212.284 229.088 212.879C229.245 213.484 229.347 214.114 229.394 214.754C229.394 214.754 229.423 214.695 229.423 214.666Z" fill="#EBEBEB"/>
<path d="M228.732 214.675C228.678 213.852 228.502 213.053 228.216 212.326C227.929 211.599 227.538 210.96 227.065 210.447C226.589 209.945 226.044 209.577 225.464 209.366C224.883 209.155 224.277 209.104 223.682 209.216C223.085 209.337 222.514 209.629 222.006 210.073C221.497 210.517 221.063 211.104 220.732 211.794C220.381 212.53 220.148 213.361 220.05 214.23C219.952 215.099 219.99 215.987 220.162 216.834C220.31 217.567 220.562 218.253 220.904 218.852C221.247 219.45 221.672 219.95 222.157 220.32C223.109 221.064 224.229 221.294 225.299 220.965C226.333 220.662 227.259 219.879 227.92 218.748C228.571 217.634 228.947 216.267 228.996 214.841C228.996 214.783 228.996 214.724 228.946 214.724C228.896 214.724 228.896 214.773 228.889 214.841C228.832 215.985 228.553 217.087 228.081 218.034C227.609 218.98 226.96 219.736 226.203 220.223C225.664 220.582 225.075 220.78 224.476 220.804C223.877 220.828 223.28 220.676 222.727 220.359C222.169 220.038 221.668 219.554 221.261 218.94C220.854 218.325 220.549 217.597 220.369 216.804C220.187 215.992 220.134 215.135 220.215 214.293C220.296 213.45 220.509 212.641 220.839 211.921C221.154 211.246 221.572 210.671 222.064 210.236C222.555 209.801 223.11 209.517 223.689 209.402C224.466 209.239 225.262 209.363 225.993 209.761C226.724 210.16 227.365 210.818 227.849 211.668C228.084 212.106 228.276 212.586 228.419 213.093C228.559 213.61 228.652 214.148 228.697 214.695C228.703 214.695 228.71 214.693 228.716 214.69C228.722 214.687 228.728 214.682 228.732 214.675Z" fill="#EBEBEB"/>
<path d="M228.041 214.685C227.987 214 227.833 213.336 227.588 212.734C227.343 212.132 227.013 211.603 226.617 211.179C225.815 210.346 224.808 209.975 223.81 210.144C223.313 210.237 222.836 210.473 222.41 210.837C221.984 211.2 221.618 211.683 221.338 212.253C221.034 212.872 220.829 213.573 220.738 214.309C220.647 215.045 220.672 215.799 220.811 216.521C220.934 217.149 221.148 217.737 221.439 218.25C221.73 218.763 222.093 219.191 222.506 219.51C223.321 220.135 224.275 220.323 225.185 220.037C226.066 219.757 226.849 219.066 227.4 218.084C227.945 217.143 228.261 215.992 228.305 214.793C228.305 214.734 228.305 214.685 228.262 214.685C228.254 214.686 228.246 214.69 228.238 214.695C228.231 214.701 228.224 214.709 228.219 214.718C228.214 214.727 228.21 214.737 228.207 214.748C228.205 214.76 228.204 214.771 228.205 214.783C228.149 215.743 227.91 216.667 227.512 217.462C227.115 218.256 226.573 218.895 225.94 219.314C225.486 219.622 224.989 219.793 224.483 219.817C223.977 219.84 223.473 219.715 223.005 219.451C222.532 219.183 222.108 218.774 221.764 218.254C221.421 217.733 221.165 217.115 221.017 216.443C220.87 215.759 220.832 215.039 220.905 214.333C220.979 213.627 221.163 212.951 221.445 212.351C221.712 211.792 222.064 211.319 222.477 210.965C222.89 210.611 223.355 210.384 223.838 210.3C224.481 210.196 225.132 210.3 225.74 210.603C226.35 210.92 226.885 211.46 227.286 212.166C227.485 212.525 227.648 212.919 227.771 213.337C227.884 213.769 227.967 214.213 228.02 214.666C228.026 214.675 228.033 214.682 228.041 214.685Z" fill="#EBEBEB"/>
<path d="M227.35 214.695C227.301 214.15 227.173 213.623 226.975 213.145C226.777 212.668 226.512 212.248 226.196 211.912C225.556 211.257 224.76 210.957 223.966 211.072C223.561 211.132 223.171 211.31 222.82 211.595C222.47 211.88 222.169 212.264 221.936 212.722C221.681 213.224 221.507 213.794 221.425 214.396C221.344 214.997 221.358 215.615 221.466 216.209C221.56 216.731 221.732 217.221 221.971 217.648C222.21 218.075 222.511 218.429 222.855 218.689C223.529 219.202 224.319 219.352 225.07 219.109C225.788 218.869 226.425 218.305 226.88 217.507C227.309 216.727 227.557 215.788 227.592 214.812C227.594 214.802 227.595 214.792 227.594 214.782C227.593 214.772 227.59 214.763 227.586 214.754C227.582 214.746 227.576 214.739 227.57 214.734C227.564 214.728 227.557 214.725 227.549 214.724C227.534 214.724 227.52 214.732 227.509 214.747C227.498 214.762 227.492 214.782 227.492 214.802C227.44 215.58 227.243 216.326 226.92 216.969C226.597 217.612 226.159 218.131 225.647 218.474C225.281 218.736 224.879 218.885 224.467 218.912C224.055 218.939 223.643 218.843 223.261 218.631C222.872 218.411 222.525 218.074 222.245 217.644C221.965 217.215 221.759 216.704 221.644 216.15C221.53 215.594 221.505 215.012 221.571 214.442C221.638 213.872 221.794 213.328 222.028 212.849C222.248 212.408 222.535 212.037 222.87 211.762C223.204 211.487 223.578 211.315 223.966 211.257C224.47 211.194 224.979 211.284 225.455 211.521C225.937 211.762 226.363 212.177 226.687 212.722C226.849 213.007 226.983 213.319 227.086 213.65C227.187 213.993 227.261 214.35 227.307 214.714C227.307 214.714 227.357 214.705 227.35 214.695Z" fill="#EBEBEB"/>
<path d="M246.485 227.938H142.043V255.321H246.485V227.938Z" fill="#DBDBDB"/>
<path d="M163.514 227.938L155.934 255.321H142.442L150.021 227.938H163.514Z" fill="#EBEBEB"/>
<path d="M191.161 227.938L183.582 255.321H170.089L177.669 227.938H191.161Z" fill="#EBEBEB"/>
<path d="M218.801 227.938L211.229 255.321H197.736L205.316 227.938H218.801Z" fill="#EBEBEB"/>
<path d="M246.456 227.938L238.876 255.321H225.384L232.964 227.938H246.456Z" fill="#EBEBEB"/>
<path d="M244.376 280.644H144.159V297.979H244.376V280.644Z" fill="#DBDBDB"/>
<path d="M164.753 280.644L157.487 297.969H144.543L151.817 280.644H164.753Z" fill="#EBEBEB"/>
<path d="M191.289 280.644L184.016 297.969H171.065L178.338 280.644H191.289Z" fill="#EBEBEB"/>
<path d="M217.811 280.644L210.538 297.969H197.594L204.868 280.644H217.811Z" fill="#EBEBEB"/>
<path d="M244.34 280.644L237.067 297.969H224.123L231.396 280.644H244.34Z" fill="#EBEBEB"/>
<path d="M376 97.75H242C242 97.75 255.284 47.9699 275.731 47.9699C296.178 47.9699 302.583 82.3206 302.583 82.3206C302.583 82.3206 316.376 63.6591 327.719 63.6591C339.061 63.6591 348.9 88.3299 348.9 88.3299C348.9 88.3299 364.919 75.0607 376 97.75Z" fill="#EBEBEB"/>
<path d="M145 27.1528H83.9999C83.9999 27.1528 97.6208 0 108.37 0C119.119 0 122.279 18.0966 122.279 18.0966C122.279 18.0966 129.857 9.6589 136.88 11.1656C143.904 12.6724 145 27.1528 145 27.1528Z" fill="#EBEBEB"/>
<path d="M336.586 147.71H298.908C298.908 147.71 307.328 130.991 313.961 130.991C320.593 130.991 322.552 142.134 322.552 142.134C322.552 142.134 327.232 136.928 331.571 137.866C335.909 138.803 336.586 147.71 336.586 147.71Z" fill="#EBEBEB"/>
<path d="M106.396 73.5224H32.9998C32.9998 73.5224 43.0514 42.7596 53.8012 40.8357C64.5509 38.9118 69.6943 63.6881 69.6943 63.6881C69.6943 63.6881 76.6328 54.8987 82.0825 54.8987C87.5322 54.8987 91.7424 66.4323 91.7424 66.4323C91.7424 66.4323 102.67 58.561 106.396 73.5224Z" fill="#EBEBEB"/>
<path d="M41.7542 314.034L79.5244 313.8L117.302 313.712L192.842 313.546L268.39 313.712L306.16 313.8L343.93 314.034L306.16 314.268L268.39 314.356L192.842 314.522L117.302 314.356L79.5244 314.268L41.7542 314.034Z" fill="#263238"/>
<path d="M194.267 391C276.924 391 343.931 380.292 343.931 367.083C343.931 353.874 276.924 343.166 194.267 343.166C111.611 343.166 44.6041 353.874 44.6041 367.083C44.6041 380.292 111.611 391 194.267 391Z" fill="#EBEBEB"/>
<path d="M219.994 350.849C221.643 351.414 268.85 351.584 270.657 350.43C271.347 349.994 271.767 342.997 272.045 334.531C272.108 332.699 272.156 330.811 272.204 328.882L276.025 303.258L244.469 303.048L241.488 328.688L241.607 334.337C241.607 334.337 223.506 342.505 221.659 343.982C219.812 345.458 218.353 350.276 219.994 350.849Z" fill="#FFE8CE"/>
<path d="M219.994 350.849C221.643 351.414 268.85 351.584 270.657 350.43C271.49 349.897 271.95 339.68 272.204 328.89L241.488 328.696L241.607 334.345C241.607 334.345 223.506 342.513 221.659 343.99C219.812 345.466 218.353 350.276 219.994 350.849Z" fill="white"/>
<path d="M219.994 350.85C221.643 351.415 268.85 351.584 270.657 350.43C271.347 349.994 271.767 342.997 272.045 334.531L241.607 334.329C241.607 334.329 223.506 342.497 221.659 343.974C219.812 345.45 218.353 350.277 219.994 350.85Z" fill="#959595"/>
<path d="M220.684 348.929C228.612 348.759 260.533 348.832 268.366 349.275C268.429 349.275 268.429 349.324 268.366 349.332C260.525 349.67 228.588 349.332 220.676 349.058C220.509 349.05 220.517 348.929 220.684 348.929Z" fill="#263238"/>
<path d="M224.704 342.255C225.589 342.229 226.469 342.393 227.289 342.735C228.108 343.077 228.848 343.589 229.461 344.24C230.568 345.394 231.198 346.936 231.221 348.55C231.221 348.598 231.126 348.598 231.118 348.55C230.859 346.959 230.101 345.496 228.958 344.381C227.815 343.265 226.347 342.556 224.775 342.36C224.761 342.369 224.744 342.373 224.728 342.37C224.712 342.367 224.697 342.357 224.688 342.343C224.678 342.329 224.675 342.312 224.678 342.296C224.68 342.279 224.69 342.264 224.704 342.255Z" fill="#263238"/>
<path d="M238.539 335.12C241.71 335.12 245.374 336.242 247.332 338.881C247.411 338.986 247.268 339.091 247.173 339.043C244.397 337.556 241.474 336.373 238.452 335.516C238.4 335.504 238.356 335.472 238.327 335.427C238.299 335.381 238.29 335.326 238.301 335.274C238.313 335.221 238.344 335.176 238.389 335.147C238.434 335.118 238.488 335.109 238.539 335.12Z" fill="#263238"/>
<path d="M236.089 336.081C239.26 336.081 242.923 337.203 244.882 339.85C244.961 339.946 244.818 340.059 244.723 340.003C241.949 338.514 239.025 337.334 236.002 336.484C235.957 336.465 235.92 336.431 235.898 336.387C235.875 336.344 235.869 336.293 235.879 336.245C235.89 336.197 235.916 336.154 235.955 336.124C235.993 336.094 236.041 336.079 236.089 336.081Z" fill="#263238"/>
<path d="M233.639 337.049C236.81 337.009 240.473 338.163 242.44 340.81C242.511 340.907 242.368 341.02 242.273 340.971C239.501 339.476 236.576 338.293 233.552 337.444C233.5 337.433 233.455 337.4 233.427 337.355C233.399 337.31 233.389 337.255 233.401 337.202C233.413 337.15 233.444 337.104 233.489 337.075C233.533 337.047 233.587 337.037 233.639 337.049Z" fill="#263238"/>
<path d="M231.189 338.01C234.36 338.01 238.031 339.123 239.99 341.77C240.061 341.867 239.918 341.98 239.823 341.932C237.051 340.437 234.126 339.254 231.102 338.405C231.05 338.393 231.005 338.361 230.977 338.316C230.949 338.27 230.94 338.215 230.951 338.163C230.963 338.111 230.994 338.065 231.039 338.036C231.083 338.007 231.137 337.998 231.189 338.01Z" fill="#263238"/>
<path d="M266.399 341.617C269.959 341.617 269.928 347.266 266.399 347.266C262.871 347.266 262.816 341.593 266.399 341.617Z" fill="#263238"/>
<path d="M235.383 331.23C237.08 333.482 239.681 334.91 241.932 336.5C241.985 336.531 242.044 336.548 242.105 336.551C242.166 336.554 242.226 336.543 242.282 336.518C242.337 336.493 242.386 336.455 242.425 336.407C242.463 336.359 242.49 336.302 242.503 336.242C242.516 336.245 242.528 336.244 242.541 336.241C242.553 336.238 242.564 336.231 242.573 336.223C242.583 336.214 242.59 336.203 242.594 336.191C242.598 336.179 242.6 336.166 242.598 336.153C242.378 333.195 241.396 330.347 239.752 327.897C238.769 326.485 236.755 325.161 235.146 326.509C233.536 327.857 234.384 329.923 235.383 331.23ZM235.241 328.559C235.574 325.057 238.674 327.752 239.356 328.825C239.785 329.525 240.169 330.253 240.505 331.004C241.173 332.569 241.763 334.166 242.273 335.79C241.219 334.935 240.093 334.176 239.007 333.369C237.714 332.409 235.066 330.496 235.241 328.559Z" fill="#263238"/>
<path d="M253.857 334.136C253.619 332.029 251.256 331.569 249.591 331.884C246.739 332.493 244.093 333.85 241.916 335.822C241.905 335.83 241.896 335.84 241.889 335.852C241.882 335.864 241.879 335.877 241.879 335.891C241.879 335.905 241.882 335.918 241.889 335.93C241.896 335.942 241.905 335.952 241.916 335.96C241.883 336.012 241.862 336.071 241.856 336.133C241.85 336.195 241.859 336.257 241.881 336.315C241.904 336.373 241.939 336.424 241.986 336.465C242.032 336.506 242.087 336.534 242.146 336.549C244.858 336.985 247.696 337.8 250.463 337.356C252.081 337.13 254.087 336.129 253.857 334.136ZM246.396 336.355C245.056 336.178 243.74 335.927 242.432 335.798C243.93 335.032 245.389 334.184 246.959 333.595C247.713 333.29 248.487 333.037 249.274 332.836C250.495 332.554 254.57 332.788 252.446 335.548C251.201 337.065 247.99 336.557 246.396 336.355Z" fill="#263238"/>
<path d="M322.407 184.784C322.407 184.784 285.754 248.25 284.771 252.705C283.264 259.557 275.256 327.171 275.256 327.171L237.12 326.477C237.12 326.477 243.693 266.852 249.917 247.217C254.404 233.07 286.745 186.148 286.745 186.148L322.407 184.784Z" fill="#37474F"/>
<path d="M240.6 320.521C246.079 320.48 265.488 320.263 272.774 320.948C272.789 320.948 272.803 320.954 272.814 320.965C272.824 320.975 272.83 320.99 272.83 321.005C272.83 321.019 272.824 321.034 272.814 321.044C272.803 321.055 272.789 321.061 272.774 321.061C270.269 321.424 246.079 320.851 240.6 320.674C240.588 320.678 240.576 320.679 240.563 320.677C240.551 320.675 240.539 320.67 240.529 320.663C240.519 320.655 240.51 320.645 240.505 320.634C240.499 320.623 240.496 320.61 240.496 320.597C240.496 320.585 240.499 320.572 240.505 320.561C240.51 320.549 240.519 320.54 240.529 320.532C240.539 320.525 240.551 320.52 240.563 320.518C240.576 320.516 240.588 320.517 240.6 320.521Z" fill="#263238"/>
<path d="M316.152 190.611C313.773 194.444 311.212 198.197 308.754 201.998C306.296 205.8 303.854 209.609 301.436 213.442C296.61 221.093 291.896 228.814 287.292 236.604C285.06 240.19 283.147 243.971 281.575 247.903C280.144 251.855 279.069 255.931 278.364 260.081C277.611 264.254 277.119 268.458 276.659 272.663C276.163 277.139 275.671 281.616 275.185 286.092C274.18 295.239 273.176 304.401 272.172 313.58C272.045 314.702 271.926 315.832 271.815 316.954C271.815 317.123 272.085 317.155 272.108 316.954C273.226 307.85 274.162 298.723 275.185 289.603L276.707 276.028C277.175 271.808 277.627 267.587 278.293 263.382C278.888 259.247 279.786 255.162 280.981 251.163C282.288 247.02 284.045 243.038 286.221 239.292C290.638 231.536 295.315 223.91 299.993 216.307C304.671 208.705 309.468 200.973 314.407 193.444C315.01 192.516 315.628 191.588 316.263 190.676C316.35 190.603 316.199 190.538 316.152 190.611Z" fill="#263238"/>
<path d="M290.003 356.184C291.74 356.297 338.582 343.731 340.04 342.15C340.105 342.054 340.143 341.942 340.151 341.827C340.334 340.261 337.939 334.41 336.259 326.913C336.155 326.436 335.275 324.161 334.039 321.086C330.637 312.652 324.572 298.158 324.572 298.158L293.991 306.147L305.25 329.188L306.772 334.604C306.772 334.604 291.304 347.202 289.892 349.13C288.481 351.059 288.275 356.055 290.003 356.184Z" fill="#FFE8CE"/>
<path d="M290.003 356.184C291.74 356.297 338.582 343.731 340.041 342.15C340.105 342.054 340.143 341.942 340.152 341.827C340.334 340.261 337.939 334.41 336.259 326.913C336.156 326.436 335.276 324.161 334.039 321.086L305.258 329.156L306.78 334.571C306.78 334.571 291.312 347.169 289.9 349.098C288.489 351.027 288.275 356.055 290.003 356.184Z" fill="white"/>
<path d="M290.003 356.176C291.74 356.305 338.582 343.732 340.041 342.15C340.596 341.552 339.382 335.104 336.259 326.913L306.78 334.612C306.78 334.612 291.312 347.194 289.9 349.139C288.489 351.084 288.275 356.055 290.003 356.176Z" fill="#959595"/>
<path d="M290.185 354.142C297.797 351.931 328.702 343.731 336.393 342.125C336.457 342.125 336.464 342.125 336.393 342.182C328.901 344.538 297.932 352.488 290.209 354.287C290.059 354.312 290.027 354.191 290.185 354.142Z" fill="#263238"/>
<path d="M292.413 346.653C293.259 346.405 294.146 346.338 295.018 346.458C295.89 346.577 296.729 346.88 297.48 347.347C298.837 348.178 299.83 349.506 300.255 351.059C300.255 351.108 300.175 351.132 300.159 351.059C299.507 349.583 298.401 348.363 297.009 347.581C295.616 346.799 294.012 346.499 292.437 346.726C292.432 346.733 292.425 346.739 292.417 346.743C292.409 346.747 292.4 346.748 292.391 346.747C292.382 346.745 292.374 346.742 292.367 346.736C292.36 346.73 292.355 346.723 292.352 346.714C292.35 346.705 292.349 346.696 292.351 346.687C292.353 346.679 292.358 346.671 292.364 346.664C292.37 346.658 292.378 346.653 292.387 346.651C292.396 346.649 292.405 346.65 292.413 346.653Z" fill="#263238"/>
<path d="M304.005 336.17C307.058 335.314 310.895 335.476 313.448 337.525C313.551 337.606 313.448 337.751 313.337 337.727C310.292 336.999 307.18 336.607 304.053 336.557C304.009 336.551 303.969 336.531 303.938 336.499C303.907 336.468 303.887 336.426 303.882 336.382C303.876 336.338 303.886 336.293 303.908 336.254C303.93 336.216 303.964 336.186 304.005 336.17Z" fill="#263238"/>
<path d="M301.88 337.735C304.933 336.88 308.77 337.041 311.323 339.091C311.426 339.172 311.323 339.317 311.204 339.293C308.158 338.58 305.045 338.204 301.92 338.171C301.863 338.176 301.807 338.158 301.763 338.121C301.719 338.084 301.691 338.031 301.686 337.973C301.681 337.915 301.698 337.858 301.735 337.813C301.771 337.769 301.824 337.74 301.88 337.735Z" fill="#263238"/>
<path d="M299.747 339.301C302.808 338.445 306.637 338.607 309.198 340.657C309.293 340.737 309.198 340.874 309.079 340.858C306.035 340.132 302.922 339.743 299.795 339.696C299.748 339.694 299.703 339.676 299.668 339.643C299.634 339.611 299.611 339.567 299.606 339.519C299.6 339.472 299.611 339.423 299.637 339.383C299.663 339.343 299.702 339.314 299.747 339.301Z" fill="#263238"/>
<path d="M297.622 340.859C300.675 340.011 304.512 340.173 307.065 342.222C307.168 342.303 307.065 342.44 306.954 342.416C303.908 341.698 300.796 341.311 297.67 341.262C297.617 341.268 297.564 341.253 297.523 341.22C297.481 341.187 297.454 341.138 297.448 341.085C297.442 341.031 297.456 340.977 297.489 340.935C297.522 340.892 297.57 340.865 297.622 340.859Z" fill="#263238"/>
<path d="M332.556 335.241C335.997 334.337 337.376 339.785 333.927 340.681C330.478 341.577 329.107 336.137 332.556 335.241Z" fill="#263238"/>
<path d="M299.977 333.224C302.189 334.959 305.06 335.645 307.628 336.622C307.687 336.638 307.749 336.64 307.809 336.628C307.869 336.616 307.925 336.589 307.973 336.551C308.021 336.512 308.059 336.463 308.084 336.406C308.11 336.35 308.122 336.288 308.12 336.226C308.133 336.226 308.146 336.222 308.157 336.216C308.169 336.209 308.178 336.2 308.185 336.189C308.192 336.178 308.197 336.165 308.198 336.152C308.199 336.139 308.197 336.125 308.191 336.113C307.238 333.304 305.576 330.799 303.371 328.85C302.071 327.744 299.787 326.977 298.566 328.704C297.345 330.431 298.693 332.215 299.977 333.224ZM299.185 330.682C298.629 327.203 302.3 329.019 303.228 329.875C303.821 330.438 304.374 331.042 304.885 331.682C305.926 333.018 306.897 334.408 307.795 335.847C306.558 335.298 305.282 334.862 304.029 334.354C302.522 333.757 299.486 332.594 299.177 330.682H299.185Z" fill="#263238"/>
<path d="M318.57 331.246C317.817 329.269 315.399 329.439 313.884 330.181C311.275 331.503 309.055 333.502 307.446 335.976C307.438 335.986 307.432 335.998 307.43 336.011C307.427 336.025 307.428 336.038 307.432 336.051C307.436 336.064 307.443 336.076 307.452 336.085C307.462 336.094 307.473 336.101 307.486 336.105C307.469 336.164 307.465 336.226 307.476 336.287C307.486 336.347 307.511 336.405 307.547 336.454C307.583 336.504 307.63 336.544 307.684 336.571C307.738 336.599 307.798 336.613 307.859 336.613C310.594 336.331 313.543 336.379 316.104 335.257C317.603 334.604 319.292 333.111 318.57 331.246ZM311.91 335.33C310.578 335.499 309.238 335.604 307.946 335.822C309.167 334.657 310.445 333.555 311.775 332.521C312.428 332.033 313.111 331.588 313.821 331.19C314.931 330.593 318.935 329.769 317.539 332.99C316.739 334.773 313.512 335.128 311.91 335.33Z" fill="#263238"/>
<path d="M303.157 327.679L337.424 318.527C337.424 318.527 304.616 252.81 304.917 248.274C305.155 244.239 328.948 208.987 330.288 202.386C332.437 191.579 327.268 181.927 322.257 175.955L286.816 186.124C286.816 186.124 289.639 192.362 294.824 196.301C294.824 196.301 272.553 234.151 271.982 246.612C271.411 259.073 303.157 327.679 303.157 327.679Z" fill="#37474F"/>
<path d="M302.507 321.223C307.47 319.778 306.027 320.125 311.014 318.729C313.456 318.051 329.496 313.588 331.874 313.354C331.93 313.354 331.954 313.435 331.874 313.459C329.686 314.46 313.575 318.64 311.125 319.27C306.114 320.561 307.534 320.134 302.507 321.376C302.451 321.384 302.412 321.223 302.507 321.223Z" fill="#263238"/>
<path d="M289.329 194.872C292.725 196.155 296.006 197.732 299.137 199.585C299.162 199.598 299.181 199.621 299.19 199.648C299.199 199.675 299.197 199.705 299.184 199.731C299.172 199.756 299.15 199.776 299.123 199.785C299.096 199.794 299.067 199.792 299.042 199.779C295.735 198.31 292.358 196.906 289.139 195.26C289.095 195.231 289.063 195.186 289.049 195.134C289.035 195.082 289.04 195.027 289.064 194.979C289.087 194.931 289.127 194.894 289.176 194.874C289.225 194.854 289.28 194.854 289.329 194.872Z" fill="#263238"/>
<path d="M293.492 193.985C293.744 194.619 293.955 195.268 294.126 195.93C294.312 196.446 294.396 196.994 294.372 197.544C294.361 197.562 294.346 197.577 294.328 197.588C294.31 197.599 294.29 197.604 294.269 197.604C294.248 197.604 294.227 197.599 294.209 197.588C294.191 197.577 294.176 197.562 294.166 197.544C293.869 197.061 293.644 196.536 293.5 195.986C293.286 195.381 293.056 194.784 292.866 194.178C292.731 193.791 293.357 193.597 293.492 193.985Z" fill="#263238"/>
<path d="M293.492 190.716C293.349 190.159 293.206 189.611 293.056 189.054C292.905 188.497 292.699 187.924 292.588 187.343C292.588 187.254 292.429 187.294 292.453 187.343C292.588 187.9 292.651 188.481 292.747 189.046C292.842 189.611 292.953 190.175 293.064 190.732C293.273 191.79 293.537 192.835 293.857 193.864C293.298 193.822 292.757 193.654 292.271 193.371C291.798 192.973 291.46 192.434 291.304 191.83C291.082 191.2 290.883 190.563 290.653 189.941C290.368 189.26 290.14 188.555 289.972 187.835C289.972 187.738 289.813 187.779 289.829 187.835C290.102 189.356 290.524 190.846 291.089 192.282C291.335 192.847 291.518 193.428 292.065 193.702C292.666 193.962 293.314 194.091 293.968 194.082C294.039 194.082 294.15 194.082 294.134 193.977C293.968 192.944 293.761 191.806 293.492 190.716Z" fill="#263238"/>
<path d="M294.078 197.56C292.731 200.037 291.192 202.402 289.749 204.823C288.306 207.244 287.006 209.601 285.69 212.022C283.042 216.912 280.584 221.932 278.34 227.033C277.23 229.556 276.173 232.109 275.169 234.692C274.124 237.262 273.263 239.905 272.592 242.601C271.961 245.291 271.843 248.08 272.243 250.816C272.745 253.622 273.455 256.385 274.368 259.08C276.205 265.255 278.44 271.3 281.06 277.174C281.147 277.368 281.464 277.223 281.393 277.021C279.522 271.646 277.587 266.287 275.898 260.88C274.273 255.602 272.338 250.13 273.234 244.521C273.735 241.831 274.489 239.196 275.486 236.653C276.448 234.038 277.473 231.453 278.562 228.897C280.719 223.853 283.129 218.954 285.603 214.072C286.982 211.336 288.433 208.632 289.837 205.904C291.24 203.177 292.62 200.352 294.197 197.705C294.245 197.552 294.15 197.487 294.078 197.56Z" fill="#263238"/>
<path d="M319.886 192.265C319.244 192.161 318.3 192.386 315.533 192.193C314.764 192.123 314.001 191.997 313.25 191.813C312.488 191.692 311.763 191.394 311.133 190.942C310.128 189.974 309.308 188.825 308.715 187.552C307.973 186.241 307.405 184.835 307.026 183.372C307.026 183.283 306.875 183.323 306.891 183.412C307.042 184.219 307.121 185.026 307.335 185.882C307.539 186.65 307.804 187.401 308.128 188.125C308.637 189.559 309.49 190.841 310.61 191.854C311.862 192.814 313.614 192.992 315.129 193.105C316.009 193.169 319.458 193.105 319.886 192.572C320.013 192.483 320.005 192.29 319.886 192.265Z" fill="#263238"/>
<path d="M328.916 311.022C324.593 302.08 320.364 293.082 316.231 284.027C312.097 274.972 308.085 265.849 304.195 256.66C303.119 254.502 302.261 252.239 301.634 249.905C301.103 247.346 301.88 245.063 302.942 242.746C304.919 238.546 307.129 234.464 309.563 230.52C311.941 226.549 314.51 222.667 317.024 218.769C319.623 214.951 322.005 210.984 324.159 206.889C326.11 202.927 327.196 198.706 326.641 194.267C326.086 189.828 324.207 185.729 322.201 181.831C321.67 180.806 321.123 179.789 320.615 178.756C320.576 178.683 320.457 178.756 320.504 178.828C322.74 182.912 324.889 187.198 325.935 191.741C326.474 194.006 326.641 196.346 326.427 198.666C326.148 201.008 325.5 203.289 324.508 205.421C322.645 209.585 320.044 213.426 317.594 217.244C315.145 221.061 312.536 225.032 310.094 228.986C307.613 232.945 305.335 237.031 303.267 241.229C302.364 243.109 301.373 245.071 301.151 247.177C300.913 249.493 301.729 251.704 302.609 253.795C306.415 262.882 310.427 271.897 314.502 280.863C318.578 289.829 322.803 298.828 327.093 307.737L328.679 311.103C328.782 311.288 328.98 311.159 328.916 311.022Z" fill="#263238"/>
<path d="M286.031 108.648C286.824 104.96 290.852 96.6149 298.804 98.2451C310.158 100.577 311.799 122.844 317.452 129.784C327.688 142.358 328.021 154.803 319.633 156.796C310.229 159.024 301.08 148.726 301.397 126.532C301.611 112.635 297.766 106.477 295.054 106.889C292.342 107.3 290.844 110.811 290.844 110.811L286.031 108.648Z" fill="#263238"/>
<path d="M286.411 107.268C286.973 105.547 287.737 103.903 288.687 102.369C289.64 100.798 290.903 99.4455 292.397 98.3984C293.944 97.3346 295.78 96.7925 297.646 96.8488C299.496 96.9057 301.305 97.4179 302.919 98.3419C304.491 99.2996 305.843 100.59 306.883 102.127C307.911 103.637 308.764 105.261 309.428 106.969C310.687 110.355 311.57 113.874 312.06 117.461C311.196 113.993 310.078 110.597 308.714 107.3C308.007 105.688 307.138 104.155 306.122 102.724C305.135 101.312 303.864 100.129 302.395 99.2538C300.924 98.4 299.274 97.9158 297.583 97.8415C295.908 97.7617 294.25 98.2007 292.826 99.1005C291.365 100.038 290.097 101.255 289.091 102.684C288.566 103.397 288.081 104.141 287.64 104.911C287.196 105.654 286.792 106.453 286.411 107.268Z" fill="#263238"/>
<path d="M301.357 118.873C301.476 121.076 301.357 123.288 301.309 125.491C301.262 127.694 301.175 129.889 301.167 132.084C301.159 134.28 301.23 136.467 301.452 138.638C301.633 140.799 302.021 142.937 302.61 145.021C303.167 147.092 304.106 149.037 305.377 150.751C306.709 152.42 308.32 153.838 310.134 154.94C311.95 156.062 314.001 156.731 316.12 156.893C317.18 156.976 318.246 156.919 319.291 156.723C319.829 156.621 320.359 156.481 320.877 156.304C321.393 156.148 321.885 155.917 322.336 155.618C321.452 156.273 320.445 156.737 319.379 156.982C318.315 157.264 317.219 157.402 316.12 157.393C315.011 157.373 313.908 157.213 312.837 156.917C311.769 156.611 310.74 156.181 309.769 155.634C308.796 155.091 307.877 154.453 307.026 153.729L306.399 153.18L305.797 152.608C305.388 152.215 305.006 151.795 304.655 151.349C303.292 149.548 302.28 147.499 301.674 145.312C300.576 140.992 300.153 136.522 300.421 132.068C300.485 129.857 300.651 127.654 300.841 125.459C301.032 123.263 301.285 121.076 301.357 118.873Z" fill="#263238"/>
<path d="M285.381 108.712C285.254 107.687 285.865 106.291 286.499 106.041C287.133 105.791 292.192 107.445 292.723 108.68C293.254 109.915 291.209 111.23 291.209 111.23L285.381 108.712Z" fill="#185BB4"/>
<path d="M291.438 145.062C288.323 149.589 265.79 168.321 253.5 169.015C247.95 169.321 226.242 166.916 221.405 164.891C215.467 162.405 227.209 147.434 230.92 148.072C235.566 148.879 252.041 150.646 255.324 150.735C260.588 150.872 276.731 141.858 287.601 139.509C293.222 138.307 293.849 141.575 291.438 145.062Z" fill="#FFE8CE"/>
<path d="M291.193 145.917C287.752 152.026 275.605 162.502 275.605 162.502L273.536 158.612L266.685 145.772C266.685 145.772 278.198 141.107 285.833 138.839C286.729 138.559 287.647 138.354 288.576 138.226C293.508 137.58 294.15 140.671 291.193 145.917Z" fill="#DBDBDB"/>
<path d="M291.193 145.917C287.752 152.027 275.605 162.502 275.605 162.502L273.536 158.612L272.124 155.965L266.677 145.78C266.677 145.78 278.198 141.099 285.833 138.831C286.731 138.559 287.648 138.357 288.576 138.226C288.674 138.219 288.772 138.219 288.87 138.226C293.532 137.71 294.102 140.776 291.193 145.917Z" fill="#DBDBDB"/>
<path d="M276.834 142.616C277.098 143.73 277.098 144.892 276.834 146.006C276.569 144.892 276.569 143.73 276.834 142.616ZM273.575 149.266C273.016 149.257 272.459 149.325 271.918 149.468C272.46 149.607 273.017 149.675 273.575 149.67C274.136 149.675 274.696 149.607 275.24 149.468C274.697 149.326 274.137 149.258 273.575 149.266ZM290.416 139.792C289.854 139.783 289.294 139.851 288.751 139.994C289.294 140.136 289.854 140.204 290.416 140.195C290.974 140.199 291.531 140.132 292.073 139.994C291.531 139.855 290.974 139.788 290.416 139.792ZM283.93 148.217C284.322 148.624 284.765 148.976 285.246 149.266C284.961 148.776 284.614 148.326 284.215 147.927C283.821 147.522 283.379 147.17 282.899 146.878C283.186 147.366 283.533 147.816 283.93 148.217ZM277.532 156.288C277.924 156.696 278.366 157.052 278.848 157.345C278.565 156.853 278.218 156.402 277.817 156.005C277.425 155.596 276.983 155.241 276.501 154.948C276.774 155.438 277.11 155.888 277.5 156.288H277.532Z" fill="white"/>
<path d="M277.722 159.637C276.572 157.272 271.498 147.749 270.269 145.764C270.182 145.627 270.079 145.643 270.142 145.764C272.39 150.522 274.888 155.153 277.627 159.637C277.658 159.734 277.754 159.701 277.722 159.637Z" fill="#263238"/>
<path d="M291.193 145.917C287.752 152.026 275.605 162.502 275.605 162.502L273.536 158.612L272.124 155.965C278.713 149.347 286.65 141.204 288.87 138.21C293.532 137.709 294.102 140.776 291.193 145.917Z" fill="#A6A6A6"/>
<path d="M279.958 174.059L281.758 194.235C284.182 194.121 286.599 193.873 288.997 193.492C295.321 192.527 301.586 191.198 307.764 189.514C313.892 187.9 321.076 185.672 329.29 182.702C329.29 182.702 310.713 148.597 297.892 139.186C297.599 138.969 297.314 138.767 297.02 138.581C296.965 138.533 296.909 138.508 296.854 138.468C291.026 134.715 285.754 137.661 282.836 141.842C282.099 142.891 274.963 159.403 275.32 164.939C275.645 169.806 279.958 174.059 279.958 174.059Z" fill="#DBDBDB"/>
<path d="M290.265 152.462C290.405 153.013 290.472 153.58 290.463 154.149C290.471 154.72 290.405 155.29 290.265 155.844C290.125 155.29 290.058 154.72 290.066 154.149C290.061 153.58 290.128 153.013 290.265 152.462ZM294.586 173.591C294.581 174.162 294.648 174.731 294.784 175.285C294.928 174.733 294.995 174.162 294.982 173.591C294.991 173.019 294.924 172.449 294.784 171.896C294.648 172.45 294.581 173.019 294.586 173.591ZM308.421 161.566C308.413 162.137 308.479 162.707 308.619 163.26C308.884 162.147 308.884 160.985 308.619 159.871C308.479 160.424 308.413 160.994 308.421 161.566ZM283.05 171.016C283.041 171.587 283.108 172.157 283.248 172.711C283.512 171.597 283.512 170.435 283.248 169.321C283.108 169.875 283.041 170.445 283.05 171.016ZM299.034 156.142C298.473 156.138 297.913 156.205 297.369 156.344C298.463 156.613 299.604 156.613 300.699 156.344C300.157 156.206 299.6 156.138 299.042 156.142H299.034ZM310.831 171.194C310.27 171.181 309.709 171.249 309.166 171.395C310.261 171.664 311.402 171.664 312.496 171.395C311.955 171.254 311.398 171.186 310.839 171.194H310.831ZM292.897 183.122C292.338 183.113 291.781 183.18 291.24 183.324C291.781 183.467 292.338 183.534 292.897 183.525C293.458 183.534 294.018 183.466 294.562 183.324C294.02 183.186 293.463 183.118 292.905 183.122H292.897ZM313.789 180.797C313.23 180.793 312.673 180.861 312.132 180.999C313.223 181.268 314.362 181.268 315.454 180.999C314.909 180.861 314.35 180.793 313.789 180.797ZM290.415 139.767C289.854 139.759 289.294 139.827 288.75 139.969C289.294 140.112 289.854 140.18 290.415 140.171C290.974 140.175 291.531 140.107 292.072 139.969C291.53 139.839 290.973 139.78 290.415 139.792V139.767ZM298.899 143.504C299.291 143.913 299.733 144.268 300.215 144.561C299.934 144.068 299.588 143.617 299.184 143.222C298.792 142.813 298.35 142.457 297.868 142.164C298.154 142.663 298.503 143.122 298.907 143.528L298.899 143.504ZM316.223 162.381C316.615 162.789 317.057 163.145 317.539 163.438C317.256 162.946 316.909 162.496 316.508 162.098C316.115 161.691 315.672 161.336 315.192 161.041C315.476 161.54 315.822 161.998 316.223 162.405V162.381ZM288.52 164.398C288.912 164.807 289.355 165.162 289.837 165.456C289.245 164.467 288.429 163.637 287.458 163.034C287.75 163.543 288.107 164.01 288.52 164.423V164.398ZM304.457 178.062C304.849 178.47 305.291 178.826 305.773 179.119C305.181 178.13 304.366 177.3 303.394 176.698C303.688 177.198 304.045 177.657 304.457 178.062ZM283.969 148.201C284.362 148.607 284.804 148.96 285.286 149.25C285 148.76 284.654 148.31 284.255 147.91C283.861 147.506 283.419 147.154 282.939 146.861C283.212 147.353 283.545 147.809 283.93 148.217L283.969 148.201ZM282.844 158.806C283.243 158.405 283.592 157.955 283.882 157.466C283.399 157.753 282.956 158.106 282.566 158.515C282.165 158.914 281.815 159.364 281.527 159.855C281.992 159.564 282.421 159.217 282.804 158.822L282.844 158.806ZM320.465 173.219C320.866 172.822 321.213 172.372 321.495 171.88C320.522 172.479 319.706 173.31 319.117 174.301C319.596 174.005 320.036 173.647 320.425 173.235L320.465 173.219ZM284.897 178.998C285.296 178.599 285.643 178.148 285.928 177.658C284.954 178.258 284.138 179.088 283.549 180.079C284.029 179.783 284.468 179.425 284.857 179.014L284.897 178.998ZM306.13 151.179C306.531 150.78 306.88 150.33 307.168 149.839C306.685 150.13 306.243 150.486 305.852 150.897C305.451 151.296 305.102 151.746 304.814 152.236C305.281 151.945 305.709 151.595 306.09 151.195L306.13 151.179ZM300.865 187.415C301.269 187.018 301.618 186.567 301.904 186.076C301.421 186.367 300.978 186.722 300.588 187.133C300.186 187.532 299.837 187.982 299.549 188.472C300.016 188.181 300.445 187.832 300.826 187.431L300.865 187.415ZM300.865 165.625C301.271 165.23 301.62 164.779 301.904 164.285C300.933 164.888 300.117 165.718 299.525 166.706C300.01 166.406 300.453 166.039 300.841 165.617L300.865 165.625Z" fill="white"/>
<path d="M293.214 138.121C293.103 138.928 289.947 144.174 286.506 144.311C285.38 144.351 284.881 138.137 284.881 138.137L284.738 137.685L282.78 131.382L289.789 125.919L290.812 125.184C290.812 125.184 291.232 126.952 291.739 129.147L291.811 129.461C291.811 129.583 291.874 129.696 291.898 129.817L292.136 130.809C292.191 131.067 292.247 131.318 292.294 131.616L292.461 132.423C292.839 134.303 293.091 136.207 293.214 138.121Z" fill="#FFE8CE"/>
<path d="M291.771 129.147C291.287 131.009 290.41 132.741 289.201 134.223C287.992 135.705 286.48 136.9 284.77 137.726L282.812 131.423L289.789 125.919L290.812 125.184C290.812 125.184 291.232 126.911 291.771 129.147Z" fill="#263238"/>
<path d="M274.091 121.883C274.035 133.489 280.862 134.836 283.319 134.845C285.547 134.845 293.151 134.594 294.419 123.054C295.688 111.513 290.368 107.825 285.27 107.526C280.172 107.228 274.146 110.254 274.091 121.883Z" fill="#FFE8CE"/>
<path d="M293.761 123.836C291.898 124.03 291.383 120.051 291.383 120.051C291.383 120.051 287.585 120.164 286.197 114.628C286.344 116.293 286.967 117.879 287.989 119.188C287.989 119.188 281.258 118.655 278.292 113.006C278.292 113.006 279.49 115.887 280.568 116.896C278.856 116.404 277.357 115.341 276.31 113.877C276.31 113.877 275.216 117.202 274.336 118.131C274.336 118.131 273.036 112.288 275.422 109.253C280.449 102.797 288.703 108.446 288.703 108.446C288.703 108.446 293.317 109.156 294.966 112.675C297.511 118.058 293.761 123.836 293.761 123.836Z" fill="#263238"/>
<path d="M292.564 123.909C292.564 123.909 294.752 120.092 296.441 120.858C298.13 121.625 296.679 127.016 294.855 127.888C294.63 128.017 294.381 128.099 294.124 128.128C293.867 128.157 293.607 128.133 293.359 128.058C293.111 127.983 292.881 127.857 292.681 127.689C292.482 127.522 292.318 127.315 292.199 127.081L292.564 123.909Z" fill="#FFE8CE"/>
<path d="M275.517 119.535C275.785 119.487 276.05 119.423 276.31 119.341C276.59 119.309 276.852 119.184 277.055 118.986C277.111 118.914 277.142 118.824 277.142 118.732C277.142 118.64 277.111 118.55 277.055 118.478C276.92 118.357 276.755 118.274 276.579 118.239C276.402 118.203 276.219 118.216 276.048 118.276C275.685 118.346 275.361 118.55 275.137 118.849C275.093 118.917 275.069 118.996 275.066 119.077C275.064 119.158 275.083 119.239 275.122 119.31C275.161 119.38 275.219 119.439 275.289 119.478C275.358 119.518 275.437 119.538 275.517 119.535Z" fill="#263238"/>
<path d="M282.955 120.439C282.688 120.412 282.423 120.369 282.162 120.31C281.872 120.304 281.593 120.199 281.369 120.011C281.312 119.939 281.28 119.849 281.28 119.757C281.28 119.664 281.312 119.575 281.369 119.503C281.493 119.371 281.65 119.275 281.823 119.227C281.996 119.179 282.179 119.179 282.352 119.228C282.72 119.27 283.06 119.444 283.311 119.721C283.363 119.787 283.394 119.867 283.403 119.951C283.411 120.035 283.395 120.12 283.358 120.195C283.32 120.271 283.263 120.334 283.191 120.377C283.12 120.42 283.038 120.442 282.955 120.439Z" fill="#263238"/>
<path d="M281.464 122.812C281.464 122.812 281.52 122.812 281.52 122.884C281.52 123.691 281.623 124.595 282.313 124.845V124.894C281.464 124.781 281.298 123.57 281.464 122.812Z" fill="#263238"/>
<path d="M282.122 121.972C283.375 121.851 283.518 124.393 282.352 124.53C281.187 124.668 281.068 122.069 282.122 121.972Z" fill="#263238"/>
<path d="M282.622 122.077C282.852 122.214 283.081 122.456 283.351 122.472C283.621 122.488 283.874 122.198 284.065 121.932H284.104C284.104 122.424 283.977 122.94 283.47 123.045C282.963 123.15 282.677 122.723 282.487 122.238C282.463 122.166 282.534 122.028 282.622 122.077Z" fill="#263238"/>
<path d="M277.096 122.852C277.096 122.852 277.032 122.892 277.04 122.924C277.112 123.732 277.04 124.644 276.374 124.95C276.374 124.95 276.374 124.999 276.374 124.95C277.238 124.813 277.286 123.594 277.096 122.852Z" fill="#263238"/>
<path d="M276.342 122.069C275.082 122.069 275.145 124.619 276.342 124.635C277.539 124.652 277.405 122.085 276.342 122.069Z" fill="#263238"/>
<path d="M275.827 122.247C275.629 122.392 275.438 122.642 275.2 122.666C274.963 122.69 274.709 122.416 274.526 122.15H274.487C274.487 122.642 274.661 123.15 275.129 123.231C275.597 123.312 275.851 122.876 275.922 122.384C275.977 122.327 275.914 122.19 275.827 122.247Z" fill="#263238"/>
<path d="M278.404 126.371C278.404 126.371 278.293 127.533 278.293 128.122C279.36 128.089 280.427 128.203 281.464 128.461C281.71 128.533 281.694 128.324 281.417 128.17C280.589 127.717 279.649 127.523 278.713 127.613C278.673 127.46 278.919 125.781 278.832 125.781C278.406 125.836 277.99 125.95 277.595 126.12C277.754 123.627 278.309 121.173 278.428 118.687C278.428 118.668 278.42 118.65 278.407 118.636C278.393 118.623 278.375 118.615 278.356 118.615C278.337 118.615 278.319 118.623 278.306 118.636C278.292 118.65 278.285 118.668 278.285 118.687C277.615 121.292 277.2 123.957 277.048 126.645C277.072 126.944 278.19 126.475 278.404 126.371Z" fill="#263238"/>
<path d="M279.585 128.122C279.982 128.653 280.539 129.039 281.171 129.219C282.13 129.316 282.194 128.412 281.123 128.001C280.609 127.897 280.077 127.939 279.585 128.122Z" fill="#263238"/>
<path d="M281.186 129.219C280.825 129.157 280.488 128.995 280.211 128.751C280.385 128.436 280.829 128.082 281.876 128.59C282.042 128.961 281.797 129.283 281.186 129.219Z" fill="#FF99BA"/>
<path d="M291.541 136.733C292.937 136.733 295.283 137.088 298.455 139.541C298.455 139.541 291.842 144.957 285.69 144.957C283.494 144.957 282.836 141.833 282.836 141.833C282.836 141.833 285.793 136.781 291.541 136.733Z" fill="#FFE8CE"/>
<path d="M396 369.097H370.097C351.275 369.097 339.763 355.853 337.693 331.811C336.671 319.956 336.044 305.607 335.386 290.418C333.356 243.747 330.573 179.853 312.726 179.853H292.215V175.011H312.726C335.117 175.011 337.67 233.578 340.135 290.216C340.793 305.357 341.42 319.657 342.435 331.376C343.727 346.371 349.57 364.247 370.097 364.247H396V369.097Z" fill="#185BB4"/>
<path opacity="0.2" d="M307.279 174.995L306.264 179.837H292.215V174.995H307.279Z" fill="black"/>
<path d="M253.555 148.435H245.262V207.422H253.555V148.435Z" fill="#185BB4"/>
<path d="M245.27 152.793H213.738V202.459H245.27V152.793Z" fill="#185BB4"/>
<path opacity="0.2" d="M245.262 152.801V202.467H237.429L233.916 152.801H245.262Z" fill="black"/>
<path d="M189.54 161.711H213.73V169.136H189.54C188.712 169.136 187.917 168.801 187.331 168.204C186.745 167.608 186.416 166.799 186.416 165.956V164.899C186.415 164.481 186.495 164.066 186.652 163.679C186.808 163.293 187.038 162.941 187.328 162.645C187.619 162.349 187.963 162.114 188.343 161.954C188.722 161.793 189.129 161.711 189.54 161.711Z" fill="#DBDBDB"/>
<path d="M213.73 161.711H205.239V169.128H213.73V161.711Z" fill="#A6A6A6"/>
<path d="M189.54 186.124H213.73V193.549H189.54C188.712 193.549 187.917 193.214 187.331 192.617C186.745 192.021 186.416 191.212 186.416 190.369V189.312C186.415 188.893 186.495 188.479 186.652 188.092C186.808 187.706 187.038 187.354 187.328 187.058C187.619 186.762 187.963 186.527 188.343 186.367C188.722 186.206 189.129 186.124 189.54 186.124Z" fill="#DBDBDB"/>
<path d="M213.73 186.124H205.239V193.541H213.73V186.124Z" fill="#A6A6A6"/>
<path d="M302.562 172.889H277.928V182.791H302.562V172.889Z" fill="#185BB4"/>
<path d="M302.562 172.897H277.928V182.799H302.562V172.897Z" fill="#185BB4"/>
<path opacity="0.2" d="M286.578 172.897L285.769 182.799H277.928V172.897H286.578Z" fill="black"/>
<path d="M253.555 154.665H273.052C274.345 154.665 275.585 155.188 276.5 156.119C277.414 157.05 277.928 158.312 277.928 159.629V195.631C277.928 196.947 277.414 198.21 276.5 199.141C275.585 200.071 274.345 200.594 273.052 200.594H253.555V154.665Z" fill="#185BB4"/>
<path opacity="0.2" d="M263.926 154.665L260.414 200.594H253.563V154.665H263.926Z" fill="black"/>
<g opacity="0.2">
<path d="M262.111 163.946H260.557V191.305H262.111V163.946Z" fill="black"/>
<path d="M266.519 163.946H264.965V191.305H266.519V163.946Z" fill="black"/>
<path d="M270.927 163.946H269.373V191.305H270.927V163.946Z" fill="black"/>
</g>
<path d="M300.279 145.183C303.006 152.97 299.098 181.499 294.475 187.544C287.609 196.502 274.043 204.742 268.858 207.317C266.59 208.439 256.434 191.91 258.646 190.369C263.403 187.052 278.555 179.135 279.839 177.561C281.123 175.987 288.037 160.871 290.804 152.373C294.523 140.962 298.907 141.252 300.279 145.183Z" fill="#FFE8CE"/>
<path d="M268.842 207.365C261.651 211.546 247.34 210.933 245.389 210.327L242.868 209.52C239.863 208.657 239.054 206.97 239.054 206.97C239.054 206.97 235.296 207.018 234.884 204.71C234.424 202.12 239.792 202.555 242.892 200.958C250.028 197.302 259.082 190.071 261.024 188.812L268.842 207.365Z" fill="#FFE8CE"/>
<path d="M252.985 202.459C250.92 203.559 248.782 204.511 246.586 205.307C244.136 206.031 241.637 206.57 239.11 206.922C239.097 206.926 239.087 206.934 239.08 206.945C239.072 206.956 239.068 206.969 239.068 206.982C239.068 206.995 239.072 207.008 239.08 207.019C239.087 207.03 239.097 207.038 239.11 207.043C244.07 206.905 248.899 205.387 253.072 202.652C253.175 202.588 253.088 202.41 252.985 202.459Z" fill="#263238"/>
<path d="M255.775 206.502C253.666 207.39 249.948 208.923 242.86 209.456C242.86 209.456 242.86 209.496 242.86 209.504C247.361 209.821 251.861 208.857 255.855 206.72C255.982 206.623 255.918 206.445 255.775 206.502Z" fill="#263238"/>
<path d="M251.177 196.01C251.914 195.203 251.478 194.767 249.528 195.122C247.577 195.477 240.164 198.593 239.316 195.873C238.467 193.153 248.997 188.908 252.287 188.561C255.26 188.405 258.24 188.494 261.199 188.827C259.312 190.07 254.84 193.524 251.177 196.01Z" fill="#FFE8CE"/>
<path d="M292.627 147.144C297.424 136.87 301.801 139.59 302.221 149.751C302.363 156.807 302.05 163.864 301.285 170.879L283.898 165.811C283.898 165.811 289.559 153.721 292.627 147.144Z" fill="#DBDBDB"/>
<path d="M296.956 141.156C297.928 141.758 298.743 142.588 299.335 143.577C298.364 142.974 297.548 142.144 296.956 141.156ZM290.067 154.165C290.058 154.737 290.125 155.307 290.265 155.86C290.405 155.307 290.471 154.737 290.463 154.165C290.472 153.596 290.405 153.029 290.265 152.478C290.128 153.03 290.061 153.597 290.067 154.165ZM299.042 156.159C298.481 156.154 297.921 156.222 297.377 156.36C298.471 156.629 299.612 156.629 300.707 156.36C300.163 156.216 299.603 156.143 299.042 156.142V156.159ZM288.52 164.423C288.912 164.831 289.355 165.187 289.837 165.48C289.245 164.491 288.429 163.661 287.458 163.059C287.752 163.559 288.109 164.018 288.52 164.423ZM300.841 165.617C301.247 165.222 301.597 164.771 301.88 164.277C300.909 164.88 300.093 165.71 299.502 166.699C299.994 166.402 300.445 166.038 300.841 165.617Z" fill="white"/>
<path d="M290.978 150.275C290.328 151.623 289.646 152.946 288.964 154.31C289.08 153.681 289.176 153.043 289.25 152.398H289.202C289.107 152.898 288.988 153.398 288.893 153.899C288.853 154.141 288.806 154.383 288.758 154.625C288.758 154.673 288.758 154.722 288.758 154.778C288.227 155.811 287.704 156.853 287.172 157.902C286.57 159.161 286.007 160.428 285.436 161.695C284.865 162.962 284.334 164.511 283.692 165.795C284.238 166.026 284.807 166.199 285.388 166.311C285.539 166.368 285.618 166.214 285.46 166.19C285.301 166.166 284.001 165.641 283.985 165.633C284.556 164.35 285.262 163.139 285.864 161.88C286.467 160.621 287.085 159.379 287.664 158.111C288.837 155.545 289.868 152.906 291.034 150.332C291.034 150.267 290.978 150.243 290.978 150.275Z" fill="#263238"/>
<path d="M302.942 156.392C302.784 156.917 302.602 157.442 302.467 158.007C302.419 158.233 302.364 158.45 302.308 158.676C302.372 156.836 302.43 155.002 302.483 153.172C302.237 156.175 301.983 159.169 301.793 162.171C301.517 165.046 301.387 167.934 301.404 170.822C300.883 170.697 300.353 170.613 299.819 170.572C300.395 170.822 301 170.998 301.618 171.097C302.054 168.191 302.086 164.979 302.229 162.058C302.269 161.251 302.292 160.444 302.324 159.58C302.419 159.072 302.562 158.571 302.697 158.071C302.831 157.571 302.935 156.99 303.046 156.457C303.006 156.376 302.95 156.36 302.942 156.392Z" fill="#263238"/>
<path d="M300.579 168.2C298.129 167.312 287.981 164.051 285.745 163.495C285.586 163.454 285.523 163.543 285.682 163.599C290.546 165.439 295.506 167.005 300.54 168.288C300.603 168.313 300.643 168.216 300.579 168.2Z" fill="#263238"/>
<path d="M215.34 165.464C217.718 166.206 217.235 162.897 217.235 162.897C217.235 162.897 219.098 167.481 221.865 167.279C224.632 167.078 223.776 163.099 223.728 162.808C223.823 163.051 225.647 167.215 228.406 166.723C231.165 166.23 229.841 162.34 229.746 162.098C229.913 162.292 232.125 164.866 234.154 164.003C237.611 162.518 232.093 155.771 232.497 152.704L237.358 152.849C237.517 152.834 237.676 152.81 237.833 152.777L238.016 150.251C236.462 149.609 234.962 148.843 233.528 147.959C231.697 146.91 229.928 145.957 228.612 145.925C228.022 145.893 227.437 146.055 226.944 146.388C226.451 146.721 226.077 147.207 225.877 147.773C225.877 147.773 224.45 145.481 222.262 145.804C221.144 145.973 220.414 147.951 220.414 147.951C220.063 147.445 219.58 147.047 219.02 146.804C218.46 146.56 217.845 146.479 217.243 146.571C215.705 146.893 215.213 148.83 215.213 148.83C215.213 148.83 213.263 147.66 211.796 148.516C208.854 150.178 210.202 163.849 215.34 165.464Z" fill="#FFE8CE"/>
<path d="M233.1 152.414L237.334 152.809C237.494 152.794 237.652 152.769 237.81 152.737C243.153 151.752 246.483 145.522 242.567 145.078C239.625 144.731 236.438 148.71 233.465 147.911L233.1 152.414Z" fill="#FFE8CE"/>
<path d="M215.11 149.081H215.038C214.364 153.855 215.133 158.724 217.242 163.043C217.314 163.18 217.559 163.115 217.512 162.954C216.053 158.473 215.244 153.799 215.11 149.081Z" fill="#263238"/>
<path d="M220.414 147.846C220.414 147.789 220.327 147.789 220.319 147.846C219.605 153.11 220.763 158.46 223.585 162.93C223.689 163.083 223.934 163.115 223.823 162.93C222.063 159.814 220.414 152.277 220.414 147.846Z" fill="#263238"/>
<path d="M230.063 162.292C227.328 157.902 226.242 153.059 225.837 147.927C225.837 147.862 225.742 147.878 225.726 147.927C225.259 150.493 225.853 153.737 226.519 156.223C227.101 158.541 228.268 160.664 229.905 162.381C229.984 162.453 230.127 162.389 230.063 162.292Z" fill="#263238"/>
<path d="M163.09 347.734C161.449 348.283 114.457 348.148 112.665 347.009C111.991 346.58 111.61 339.703 111.388 331.385C111.333 329.595 111.301 327.74 111.269 325.854C111.269 323.625 111.206 321.365 111.19 319.168C111.135 309.314 111.269 300.639 111.269 300.639H141.866V319.168V325.854L141.707 331.385C141.707 331.385 159.673 339.52 161.529 340.984C163.384 342.449 164.732 347.224 163.09 347.734Z" fill="#AD6359"/>
<path d="M163.091 347.734C161.449 348.283 114.457 348.148 112.665 347.009C111.991 346.58 111.61 339.703 111.388 331.385C111.333 329.595 111.301 327.74 111.269 325.854C111.269 323.625 111.206 321.365 111.19 319.168H141.85V325.854L141.691 331.385C141.691 331.385 159.658 339.52 161.513 340.984C163.368 342.449 164.732 347.224 163.091 347.734Z" fill="white"/>
<path d="M163.233 347.837C162.163 348.196 142.151 348.267 127.555 347.965C124.177 347.885 121.093 347.798 118.611 347.686C115.178 347.527 112.879 347.344 112.506 347.105C111.674 346.572 111.285 336.48 111.095 325.83H141.834L141.676 331.402C141.676 331.402 159.745 339.584 161.584 341.056C163.424 342.529 164.914 347.28 163.233 347.837Z" fill="#959595"/>
<path d="M162.536 345.943C154.607 345.72 122.655 345.593 114.806 345.983C114.742 345.983 114.742 346.022 114.806 346.03C122.655 346.42 154.615 346.285 162.536 346.07C162.726 346.062 162.734 345.943 162.536 345.943Z" fill="#263238"/>
<path d="M142.826 329.634C139.71 329.045 135.896 329.515 133.509 331.736C133.414 331.823 133.509 331.951 133.644 331.919C136.625 330.96 139.701 330.327 142.818 330.032C142.87 330.033 142.921 330.014 142.959 329.977C142.997 329.94 143.019 329.89 143.02 329.837C143.021 329.785 143.001 329.734 142.965 329.696C142.928 329.657 142.878 329.636 142.826 329.634Z" fill="#263238"/>
<path d="M145.093 331.019C141.977 330.422 138.163 330.892 135.769 333.121C135.681 333.2 135.769 333.335 135.903 333.304C138.889 332.339 141.97 331.701 145.093 331.401C145.134 331.389 145.17 331.364 145.196 331.33C145.221 331.295 145.235 331.253 145.235 331.21C145.235 331.167 145.221 331.125 145.196 331.091C145.17 331.056 145.134 331.031 145.093 331.019Z" fill="#263238"/>
<path d="M147.321 332.372C144.205 331.775 140.392 332.245 138.005 334.466C137.91 334.553 138.005 334.689 138.132 334.657C141.114 333.701 144.189 333.066 147.305 332.762C147.351 332.755 147.392 332.733 147.423 332.698C147.453 332.664 147.471 332.62 147.473 332.574C147.474 332.528 147.46 332.483 147.433 332.446C147.405 332.409 147.366 332.383 147.321 332.372Z" fill="#263238"/>
<path d="M149.565 333.741C146.449 333.144 142.635 333.614 140.249 335.835C140.154 335.922 140.249 336.057 140.383 336.026C143.362 335.065 146.435 334.43 149.549 334.131C149.594 334.124 149.636 334.102 149.666 334.067C149.697 334.033 149.714 333.989 149.716 333.943C149.718 333.897 149.704 333.852 149.676 333.815C149.649 333.778 149.609 333.752 149.565 333.741Z" fill="#263238"/>
<path d="M148.605 322.415C147.384 320.72 145.1 321.476 143.8 322.567C141.595 324.489 139.933 326.959 138.979 329.73C138.974 329.742 138.972 329.755 138.973 329.768C138.974 329.781 138.978 329.794 138.985 329.805C138.992 329.816 139.002 329.825 139.013 329.831C139.025 329.838 139.038 329.841 139.051 329.841C139.051 330.08 139.273 330.335 139.534 330.231C142.111 329.284 144.989 328.592 147.193 326.873C148.486 325.87 149.762 324.023 148.605 322.415ZM143.15 327.987C141.897 328.48 140.621 328.918 139.384 329.459C140.283 328.039 141.254 326.665 142.294 325.344C142.802 324.711 143.356 324.115 143.951 323.562C144.878 322.71 148.557 320.919 147.994 324.358C147.685 326.244 144.648 327.39 143.15 327.987Z" fill="#263238"/>
<path d="M131.059 328.878C133.62 329.985 136.609 329.937 139.305 330.215C139.366 330.215 139.425 330.201 139.48 330.174C139.534 330.146 139.581 330.107 139.618 330.059C139.655 330.01 139.68 329.954 139.692 329.894C139.703 329.834 139.701 329.773 139.686 329.714C139.695 329.707 139.703 329.697 139.709 329.686C139.714 329.675 139.717 329.663 139.717 329.65C139.717 329.638 139.714 329.626 139.709 329.615C139.703 329.604 139.695 329.594 139.686 329.587C138.086 327.147 135.877 325.172 133.279 323.856C131.741 323.124 129.315 322.965 128.586 324.915C127.856 326.865 129.561 328.234 131.059 328.878ZM129.656 326.65C128.26 323.466 132.264 324.262 133.374 324.859C134.086 325.255 134.772 325.696 135.428 326.18C136.763 327.198 138.043 328.284 139.265 329.435C137.933 329.221 136.593 329.117 135.253 328.95C133.652 328.751 130.425 328.401 129.656 326.65Z" fill="#263238"/>
<path d="M146.211 323.665L108.296 324.35C108.296 324.35 103.135 290.674 99.7415 269.733C98.4571 261.862 97.4422 255.781 97.0299 253.95C96.0468 249.581 76.8359 180.224 76.8359 180.224L104.396 180.184H113.815C113.815 180.184 113.212 191.781 113.569 192.998C118.485 209.784 128.53 239.552 131.67 249.923C136.483 265.865 146.211 323.665 146.211 323.665Z" fill="#A6A6A6"/>
<path d="M142.762 317.831C137.323 317.791 118.024 317.576 110.778 318.252C110.767 318.257 110.759 318.264 110.752 318.273C110.746 318.282 110.743 318.293 110.743 318.304C110.743 318.315 110.746 318.326 110.752 318.335C110.759 318.345 110.767 318.352 110.778 318.356C113.275 318.714 137.323 318.157 142.77 317.982C142.782 317.985 142.794 317.986 142.806 317.983C142.819 317.98 142.83 317.975 142.84 317.967C142.85 317.959 142.857 317.949 142.862 317.938C142.867 317.926 142.87 317.914 142.869 317.901C142.868 317.889 142.865 317.876 142.859 317.865C142.852 317.855 142.844 317.845 142.833 317.839C142.823 317.832 142.811 317.827 142.798 317.826C142.786 317.825 142.773 317.826 142.762 317.831Z" fill="#263238"/>
<path d="M108.915 289.13C107.604 280.422 106.143 271.736 104.53 263.071C103.738 258.813 102.873 254.563 101.763 250.336C100.653 246.11 99.242 241.931 97.799 237.785C94.9606 229.539 92.249 221.253 89.7039 212.912C87.1589 204.571 84.7882 196.198 82.5682 187.753C82.2828 186.686 82.0053 185.62 81.6961 184.569C81.6961 184.482 81.5454 184.522 81.5613 184.569C82.4255 188.82 83.5434 193.03 84.6138 197.232C85.6841 201.435 86.8338 205.621 88.031 209.792C90.4413 218.165 93.0551 226.48 95.8724 234.736C97.2757 238.843 98.7346 242.942 99.9794 247.105C101.224 251.268 102.191 255.486 103.056 259.736C104.808 268.364 106.298 277.048 107.678 285.731C109.058 294.415 110.239 303.242 111.397 311.997C111.547 313.103 111.69 314.217 111.833 315.332C111.872 315.642 112.364 315.642 112.332 315.332C111.436 306.6 110.207 297.853 108.915 289.13Z" fill="#263238"/>
<path d="M104.396 180.168L99.7415 269.733C98.4571 261.861 97.4422 255.781 97.03 253.95C96.0468 249.58 76.8359 180.224 76.8359 180.224L104.396 180.168Z" fill="#263238"/>
<path d="M116.066 355.279C114.425 355.828 67.4324 355.693 65.6405 354.547C64.9666 354.125 64.586 347.248 64.364 338.931C64.3085 337.132 64.2768 335.285 64.2451 333.399C64.2451 331.163 64.1817 328.91 64.1658 326.713C64.1103 316.86 64.2451 308.184 64.2451 308.184H94.8335V333.407L94.675 338.939C94.675 338.939 112.641 347.073 114.496 348.538C116.352 350.002 117.707 354.738 116.066 355.279Z" fill="#AD6359"/>
<path d="M116.066 355.279C114.425 355.828 67.4325 355.693 65.6407 354.547C64.9667 354.125 64.5862 347.248 64.3642 338.931C64.3087 337.132 64.277 335.285 64.2452 333.399C64.2452 331.163 64.1818 328.91 64.166 326.713H94.8258V333.407L94.6672 338.939C94.6672 338.939 112.633 347.073 114.489 348.538C116.344 350.002 117.708 354.738 116.066 355.279Z" fill="white"/>
<path d="M116.209 355.351C115.139 355.701 95.1193 355.773 80.5308 355.47C77.1611 355.398 74.0769 355.303 71.5873 355.199C68.1622 355.04 65.8629 354.849 65.4823 354.61C64.6895 354.077 64.2613 343.993 64.079 333.343H94.8181L94.6595 338.915C94.6595 338.915 112.745 347.089 114.584 348.53C116.423 349.97 117.859 354.794 116.209 355.351Z" fill="#959595"/>
<path d="M115.535 353.448C107.607 353.234 75.6466 353.098 67.8053 353.488C67.7418 353.488 67.7418 353.536 67.8053 353.544C75.6466 353.925 107.615 353.798 115.535 353.584C115.702 353.576 115.702 353.456 115.535 353.448Z" fill="#263238"/>
<path d="M95.8008 337.148C92.6848 336.551 88.8712 337.021 86.4847 339.241C86.3896 339.329 86.4847 339.464 86.6116 339.432C89.5938 338.476 92.6689 337.841 95.7849 337.538C95.8302 337.531 95.8717 337.508 95.9022 337.474C95.9327 337.439 95.9504 337.395 95.9523 337.349C95.9542 337.303 95.9401 337.258 95.9125 337.221C95.8848 337.185 95.8454 337.159 95.8008 337.148Z" fill="#263238"/>
<path d="M98.0447 338.517C94.9287 337.92 91.1151 338.39 88.7286 340.61C88.6335 340.698 88.7286 340.833 88.8634 340.801C91.8442 339.84 94.9199 339.205 98.0367 338.907C98.0818 338.899 98.1226 338.875 98.1523 338.84C98.182 338.805 98.1987 338.761 98.1996 338.715C98.2006 338.669 98.1857 338.624 98.1574 338.588C98.1292 338.552 98.0893 338.527 98.0447 338.517Z" fill="#263238"/>
<path d="M100.297 339.878C97.1809 339.289 93.3673 339.758 90.9728 341.979C90.8856 342.067 90.9728 342.194 91.1076 342.162C94.0899 341.208 97.1651 340.576 100.281 340.276C100.334 340.278 100.385 340.259 100.423 340.223C100.462 340.187 100.485 340.138 100.487 340.085C100.489 340.032 100.47 339.981 100.435 339.942C100.399 339.903 100.349 339.88 100.297 339.878Z" fill="#263238"/>
<path d="M102.54 341.247C99.4243 340.658 95.6106 341.128 93.2241 343.348C93.129 343.436 93.2241 343.563 93.351 343.531C96.3335 342.578 99.4086 341.946 102.524 341.645C102.577 341.647 102.628 341.628 102.667 341.592C102.705 341.556 102.728 341.507 102.731 341.454C102.733 341.401 102.714 341.35 102.678 341.311C102.642 341.272 102.593 341.249 102.54 341.247Z" fill="#263238"/>
<path d="M101.581 329.929C100.36 328.226 98.0766 328.982 96.7684 330.08C94.5636 332.002 92.9012 334.473 91.9479 337.243C91.9443 337.256 91.9436 337.269 91.9458 337.282C91.948 337.295 91.9531 337.308 91.9608 337.318C91.9684 337.329 91.9783 337.338 91.9898 337.344C92.0013 337.351 92.0141 337.354 92.0271 337.355C92.0236 337.416 92.0346 337.477 92.0592 337.532C92.0838 337.588 92.1214 337.637 92.1687 337.675C92.2161 337.713 92.2718 337.74 92.3313 337.752C92.3908 337.764 92.4524 337.761 92.5108 337.745C95.0876 336.798 97.9577 336.105 100.17 334.386C101.486 333.407 102.731 331.529 101.581 329.929ZM96.1262 335.5C94.8656 336.002 93.597 336.432 92.3601 336.981C93.3036 335.588 94.1837 334.163 95.262 332.866C95.7748 332.233 96.3284 331.635 96.9191 331.075C97.8546 330.231 101.526 328.441 100.971 331.871C100.693 333.757 97.6247 334.903 96.1262 335.492V335.5Z" fill="#263238"/>
<path d="M84.0429 336.392C86.6117 337.498 89.5929 337.45 92.2965 337.729C92.358 337.729 92.4186 337.715 92.4736 337.687C92.5285 337.66 92.5761 337.619 92.6125 337.57C92.6488 337.52 92.6729 337.462 92.6828 337.401C92.6927 337.34 92.688 337.278 92.6692 337.219C92.6815 337.215 92.6927 337.208 92.7021 337.199C92.7114 337.19 92.7186 337.179 92.7232 337.167C92.7277 337.155 92.7295 337.142 92.7284 337.129C92.7273 337.116 92.7233 337.103 92.7167 337.092C91.1012 334.656 88.879 332.685 86.2708 331.377C84.7327 330.645 82.3065 330.486 81.5771 332.436C80.8477 334.386 82.5285 335.747 84.0429 336.392ZM82.6475 334.155C81.252 330.971 85.256 331.767 86.366 332.372C87.0792 332.763 87.7653 333.202 88.4195 333.685C89.7523 334.708 91.033 335.797 92.2569 336.949C90.917 336.726 89.577 336.63 88.2371 336.463C86.6276 336.264 83.4007 335.914 82.6316 334.155H82.6475Z" fill="#263238"/>
<path d="M99.1071 330.725H62.0093C62.0093 330.725 70.0727 215.252 68.7724 208.781C66.6396 198.188 68.0588 186.018 73.0538 180.128H106.061C106.061 180.128 106.719 189.425 103.309 194.98C103.309 194.98 100.209 196.946 98.7107 197.814L99.1071 330.725Z" fill="#A6A6A6"/>
<path d="M95.6506 324.7C90.5128 324.572 91.9955 324.533 86.8498 324.461C84.3365 324.421 67.8213 324.191 65.4427 324.564C65.3872 324.564 65.3872 324.66 65.4427 324.668C67.8213 325.073 84.3286 325.018 86.8498 325.002C91.9876 325.002 90.5128 324.93 95.6506 324.851C95.6664 324.845 95.6802 324.835 95.69 324.822C95.6998 324.808 95.7051 324.792 95.7051 324.775C95.7051 324.758 95.6998 324.742 95.69 324.728C95.6802 324.715 95.6664 324.705 95.6506 324.7Z" fill="#263238"/>
<path d="M105.371 193.524C102.125 195.094 99.0193 196.939 96.0862 199.039C96.062 199.054 96.0447 199.078 96.038 199.106C96.0313 199.133 96.0358 199.162 96.0505 199.187C96.0653 199.211 96.089 199.228 96.1165 199.235C96.144 199.242 96.173 199.237 96.1972 199.222C99.3686 197.479 102.54 195.792 105.585 193.882C105.632 193.853 105.666 193.807 105.679 193.753C105.693 193.7 105.684 193.643 105.656 193.595C105.628 193.548 105.582 193.514 105.528 193.5C105.475 193.487 105.418 193.495 105.371 193.524Z" fill="#263238"/>
<path d="M101.161 193.046C100.972 193.689 100.824 194.343 100.717 195.004C100.582 195.523 100.547 196.063 100.614 196.596C100.614 196.699 100.78 196.691 100.828 196.596C101.076 196.094 101.248 195.557 101.335 195.004C101.494 194.391 101.668 193.786 101.803 193.173C101.898 192.783 101.287 192.648 101.161 193.046Z" fill="#263238"/>
<path d="M100.868 189.854C100.955 189.297 101.042 188.748 101.145 188.199C101.248 187.65 101.391 187.053 101.447 186.48C101.447 186.384 101.605 186.416 101.589 186.48C101.502 187.037 101.494 187.61 101.447 188.167C101.399 188.724 101.351 189.289 101.296 189.846C101.184 190.897 101.02 191.941 100.804 192.974C101.352 192.881 101.872 192.666 102.327 192.346C102.748 191.91 103.025 191.354 103.12 190.754C103.278 190.117 103.421 189.48 103.587 188.844C103.812 188.154 103.974 187.445 104.071 186.726C104.071 186.631 104.23 186.663 104.214 186.726C104.085 188.24 103.803 189.736 103.373 191.192C103.281 191.769 102.985 192.294 102.541 192.672C101.968 192.979 101.34 193.165 100.693 193.221C100.622 193.221 100.511 193.221 100.519 193.134C100.581 192.035 100.697 190.941 100.868 189.854Z" fill="#263238"/>
<path d="M74.1325 208.36C73.8947 205.924 73.4982 203.504 73.2366 201.069C72.7408 196.193 73.0353 191.269 74.1087 186.488C74.1087 186.4 73.9898 186.36 73.9739 186.488C73.0352 190.687 72.5987 194.983 72.6737 199.286C72.8877 203.584 73.6489 207.818 73.7123 212.124C73.7757 216.43 73.4427 220.84 73.1652 225.185C72.8877 229.531 72.6023 233.941 72.3248 238.31C71.1989 255.892 70.1603 273.474 69.0899 291.064C68.7939 295.967 68.5085 300.875 68.2337 305.789C67.9482 310.779 67.5994 315.777 67.4408 320.784C67.4408 321.214 68.0592 321.182 68.0989 320.784C68.8442 311.957 69.2723 303.098 69.8352 294.272C70.3982 285.445 70.8977 276.761 71.4209 268.006C71.9442 259.251 72.4754 250.496 73.0067 241.741C73.2604 237.368 73.5247 232.996 73.7995 228.624C74.0532 224.27 74.3704 219.908 74.4338 215.547C74.4687 213.147 74.3681 210.748 74.1325 208.36Z" fill="#263238"/>
<path d="M85.819 186.161C85.8119 186.15 85.8019 186.14 85.7901 186.134C85.7783 186.127 85.7651 186.124 85.7516 186.124C85.7381 186.124 85.7248 186.127 85.713 186.134C85.7012 186.14 85.6913 186.15 85.6842 186.161C85.4873 186.738 85.3829 187.342 85.375 187.952C85.2723 188.604 85.1212 189.248 84.923 189.878C84.559 191.145 83.8764 192.296 82.9409 193.221C80.8636 195.171 78.0807 195.895 75.4008 196.548C75.3831 196.554 75.3676 196.565 75.3565 196.58C75.3455 196.595 75.3396 196.613 75.3396 196.632C75.3396 196.65 75.3455 196.668 75.3565 196.683C75.3676 196.698 75.3831 196.71 75.4008 196.715C76.9932 196.787 78.5838 196.538 80.0787 195.983C81.4122 195.574 82.6425 194.882 83.6862 193.953C84.6827 193.001 85.3636 191.765 85.6366 190.411C85.7783 189.704 85.8527 188.984 85.8586 188.262C85.8586 187.92 85.8586 187.578 85.8586 187.228C85.9154 186.873 85.9019 186.511 85.819 186.161Z" fill="#263238"/>
<path d="M101.359 141.494C102.041 146.906 112.602 167.027 123.845 175.942C127.967 179.213 149.826 181.147 155.297 180.717C161.696 180.224 162.655 164.934 159.071 163.74C154.592 162.252 133.866 160.413 129.799 158.964C124.851 157.166 115.845 145.617 107.282 138.469C102.881 134.768 100.836 137.331 101.359 141.494Z" fill="#AD6359"/>
<path d="M155.297 180.725C157.319 180.669 166.571 179.603 169.085 178.727C171.598 177.852 178.599 174.811 178.155 172.814C177.711 170.816 175.554 171.54 175.554 171.54C175.554 171.54 178.322 169.781 177.663 167.815C177.005 165.849 173.699 167.091 173.699 167.091C173.699 167.091 176.411 165.077 175.61 163.159C174.809 161.241 171.725 163.048 171.725 163.048C171.725 163.048 174.294 161.321 172.978 160.015C171.392 158.423 167.015 162.172 164.177 162.928C163.527 163.103 150.841 165.483 150.841 165.483L155.297 180.725Z" fill="#AD6359"/>
<path d="M172.05 162.896C168.824 165.618 166.944 166.255 162.837 166.82C162.823 166.825 162.811 166.834 162.803 166.846C162.794 166.859 162.79 166.873 162.79 166.888C162.79 166.903 162.794 166.917 162.803 166.929C162.811 166.942 162.823 166.951 162.837 166.956C166.905 166.765 169.379 166.311 172.185 163.048C172.304 162.888 172.177 162.769 172.05 162.896Z" fill="#263238"/>
<path d="M173.977 166.868C170.385 169.447 168.356 170.107 164.122 171.039C164.066 171.039 164.082 171.158 164.122 171.15C168.371 170.601 170.829 170.092 174.088 167.083C174.223 166.932 174.143 166.749 173.977 166.868Z" fill="#263238"/>
<path d="M175.332 171.58C171.677 173.785 169.481 174.652 165.231 175.01C165.21 175.01 165.19 175.019 165.175 175.034C165.16 175.048 165.152 175.069 165.152 175.09C165.152 175.111 165.16 175.131 165.175 175.146C165.19 175.161 165.21 175.169 165.231 175.169C168.937 175.394 172.581 174.147 175.38 171.699C175.594 171.532 175.562 171.445 175.332 171.58Z" fill="#263238"/>
<path d="M147.907 163.812C150.043 162.426 152.277 161.2 154.591 160.142C156.827 159.347 166.262 159.347 166.365 161.4C166.508 164.042 161.061 165.101 158.326 165.276C158.326 165.276 158.667 171.381 154.916 172.997C151.166 174.612 147.907 163.812 147.907 163.812Z" fill="#AD6359"/>
<path d="M166.175 162.14C164.59 164.64 160.966 164.632 158.326 164.998C158.286 165 158.247 165.012 158.213 165.033C158.179 165.054 158.151 165.083 158.131 165.118C158.112 165.153 158.101 165.192 158.1 165.233C158.1 165.273 158.109 165.312 158.128 165.348C158.128 167.919 157.335 171.532 155.075 173.052C155.004 173.1 155.075 173.204 155.131 173.164C157.755 171.859 158.818 168.388 158.667 165.547C161.379 165.221 165.01 165.069 166.199 162.148C166.207 162.132 166.183 162.124 166.175 162.14Z" fill="#263238"/>
<path d="M136.411 180.431C136.411 180.431 125.216 177.358 123.852 176.284C122.364 175.11 120.945 173.85 119.602 172.511C109.414 162.459 103.262 148.753 101.597 143.977C99.8365 138.891 101.454 134.02 106.171 137.299C106.551 137.569 106.916 137.859 107.266 138.167C112.816 143.022 127.658 157.787 129.466 158.543C131.273 159.299 139.987 160.445 139.987 160.445L136.411 180.431Z" fill="#455A64"/>
<path d="M119.602 172.511C109.414 162.459 103.262 148.753 101.597 143.977C99.8365 138.891 101.454 134.02 106.171 137.299L119.602 172.511Z" fill="#263238"/>
<path d="M136.371 160.095C135.85 161.631 135.419 163.196 135.079 164.783C134.69 166.375 134.286 167.966 133.961 169.558C133.255 172.68 132.726 175.84 132.375 179.022C132.375 179.041 132.383 179.059 132.396 179.072C132.41 179.086 132.428 179.093 132.447 179.093C132.466 179.093 132.484 179.086 132.497 179.072C132.51 179.059 132.518 179.041 132.518 179.022C133.374 175.902 134.009 172.71 134.659 169.542C134.984 167.95 135.277 166.406 135.602 164.846C135.927 163.286 136.316 161.663 136.49 160.119C136.493 160.103 136.49 160.086 136.481 160.073C136.472 160.059 136.458 160.05 136.443 160.047C136.427 160.044 136.411 160.047 136.397 160.056C136.384 160.065 136.374 160.079 136.371 160.095Z" fill="#263238"/>
<path d="M112.221 152.517C112.483 153.695 112.689 154.905 112.847 156.147C112.843 156.099 112.843 156.051 112.847 156.004C112.911 155.327 112.958 154.635 113.077 153.966C113.077 153.966 113.141 153.926 113.141 153.966C113.182 154.654 113.155 155.345 113.061 156.027C113.022 156.354 112.982 156.68 112.935 156.998C112.99 157.548 113.038 158.097 113.069 158.638C113.133 159.673 113.331 164.09 113.307 164.846C113.307 165.005 113.125 165.021 113.085 164.846C112.935 164.05 112.538 159.522 112.427 158.479C112.22 156.491 112.119 154.493 112.126 152.494C112.142 152.47 112.205 152.478 112.221 152.517Z" fill="#263238"/>
<path d="M113.482 185.58C111.896 187.013 109.962 189.106 98.8298 189.886C98.1321 189.886 97.4185 189.942 96.7049 189.886C85.9855 189.584 70.945 181.131 70.0491 180.462C70.0491 180.462 81.601 149.087 96.8794 137.045C99.0597 135.318 103.738 136.169 106.663 137.944C107.71 138.581 111.167 144.383 111.864 149.668C112.562 154.953 115.06 184.147 113.482 185.58Z" fill="#455A64"/>
<path d="M104.8 145.808C102.104 146.031 98.2432 141.351 96.9746 137.849C96.8874 137.61 97.5851 135.326 98.2987 132.508C98.7268 130.797 99.1629 128.887 99.4325 127.112C99.488 126.745 100.622 127.605 100.622 127.605L102.826 128.512L110.12 131.521C109.146 133.644 108.435 135.878 108.003 138.175C107.98 138.424 107.98 138.674 108.003 138.923C108.007 138.963 108.007 139.003 108.003 139.043C107.979 140.451 107.401 145.569 104.8 145.808Z" fill="#AD6359"/>
<path d="M107.971 138.915C107.975 138.955 107.975 138.995 107.971 139.035C107.586 139.03 107.201 138.992 106.822 138.923C99.3687 137.61 99.8999 127.923 99.8999 127.923L102.834 128.505L110.128 131.513C109.153 133.636 108.442 135.87 108.011 138.167C107.974 138.415 107.961 138.665 107.971 138.915Z" fill="#263238"/>
<path d="M98.6788 115.451C97.2595 119.383 98.7739 131.02 101.47 133.758C105.378 137.737 112.078 138.398 115.479 133.606C118.786 128.974 116.542 113.836 113.505 111.321C109.026 107.635 100.772 109.649 98.6788 115.451Z" fill="#AD6359"/>
<path d="M109.24 123.506C109.24 123.506 109.184 123.554 109.192 123.586C109.311 124.382 109.327 125.281 108.645 125.631C108.645 125.631 108.645 125.679 108.645 125.671C109.509 125.44 109.485 124.222 109.24 123.506Z" fill="#263238"/>
<path d="M108.439 122.774C107.17 122.838 107.392 125.377 108.566 125.321C109.739 125.265 109.501 122.718 108.439 122.774Z" fill="#263238"/>
<path d="M114.045 122.981C114.045 122.981 114.108 122.981 114.108 123.044C114.156 123.84 114.338 124.732 115.067 124.939C114.171 124.931 113.957 123.737 114.045 122.981Z" fill="#263238"/>
<path d="M114.679 122.097C115.931 121.898 116.264 124.429 115.083 124.62C113.902 124.811 113.624 122.272 114.679 122.097Z" fill="#263238"/>
<path d="M107.456 120.895C107.789 120.776 108.082 120.609 108.407 120.458C108.761 120.354 109.071 120.136 109.287 119.837C109.34 119.73 109.356 119.608 109.331 119.491C109.307 119.374 109.244 119.269 109.153 119.192C108.947 119.073 108.713 119.01 108.475 119.01C108.237 119.01 108.003 119.073 107.797 119.192C107.342 119.365 106.968 119.703 106.75 120.139C106.711 120.24 106.7 120.35 106.72 120.457C106.741 120.564 106.791 120.662 106.865 120.742C106.939 120.821 107.033 120.877 107.138 120.905C107.243 120.932 107.353 120.929 107.456 120.895Z" fill="#263238"/>
<path d="M115.471 121.238C115.125 121.199 114.781 121.141 114.441 121.062C114.07 121.051 113.713 120.916 113.426 120.68C113.355 120.586 113.317 120.472 113.317 120.354C113.317 120.236 113.355 120.122 113.426 120.028C113.589 119.854 113.796 119.728 114.025 119.663C114.254 119.599 114.497 119.598 114.726 119.662C115.212 119.712 115.661 119.942 115.987 120.306C116.055 120.396 116.096 120.504 116.104 120.617C116.112 120.73 116.088 120.843 116.033 120.941C115.978 121.04 115.896 121.121 115.796 121.174C115.697 121.226 115.584 121.248 115.471 121.238Z" fill="#263238"/>
<path d="M112.943 127.263C113.022 127.836 113.073 128.412 113.094 128.99C112.021 128.994 110.954 129.144 109.922 129.436C109.684 129.515 109.684 129.308 109.922 129.149C110.73 128.667 111.664 128.442 112.602 128.505C112.602 128.353 112.332 126.706 112.42 126.698C112.846 126.741 113.264 126.84 113.664 126.992C113.419 124.541 112.784 122.145 112.57 119.702C112.57 119.614 112.689 119.582 112.713 119.662C113.479 122.206 113.987 124.823 114.227 127.47C114.299 127.78 113.165 127.35 112.943 127.263Z" fill="#263238"/>
<path d="M99.5195 125.154C101.518 125.01 101.264 120.107 101.264 120.107C101.264 120.107 104.308 119.518 105.743 115.332C105.743 115.332 109.708 117.72 112.982 117.115C118.12 116.112 117.898 109.386 115.955 108.041C113.196 106.131 108.36 109.02 108.36 109.02C108.36 109.02 100.97 107.054 98.8456 112.085C97.8916 112.163 97.0027 112.602 96.3583 113.312C95.7138 114.023 95.3617 114.952 95.3729 115.913C95.1826 119.534 98.0369 125.257 99.5195 125.154Z" fill="#263238"/>
<path d="M100.558 120.696C102.036 120.422 103.381 119.66 104.379 118.532C104.916 117.922 105.298 117.191 105.492 116.401C105.687 115.611 105.689 114.785 105.497 113.995C105.502 113.981 105.511 113.969 105.523 113.96C105.536 113.951 105.55 113.947 105.565 113.947C105.58 113.947 105.594 113.951 105.606 113.96C105.618 113.969 105.627 113.981 105.632 113.995C105.869 114.823 105.921 115.693 105.784 116.543C105.647 117.394 105.325 118.203 104.839 118.914C104.355 119.587 103.703 120.122 102.95 120.465C102.196 120.809 101.366 120.949 100.542 120.872C100.494 120.832 100.471 120.712 100.558 120.696Z" fill="#263238"/>
<path d="M108.162 109.243C108.798 108.188 109.796 107.401 110.968 107.03C112.394 106.624 113.918 106.76 115.25 107.413C115.78 107.691 116.227 108.105 116.547 108.612C116.867 109.119 117.049 109.702 117.073 110.302C117.089 111.693 116.627 113.048 115.765 114.138C115.765 114.138 115.694 114.138 115.718 114.138C116.406 113.109 116.758 111.891 116.725 110.652C116.703 110.062 116.516 109.491 116.185 109.004C115.854 108.517 115.392 108.133 114.853 107.898C112.729 106.983 109.636 107.174 108.273 109.347C108.233 109.394 108.114 109.315 108.162 109.243Z" fill="#263238"/>
<path d="M100.693 124.971C100.693 124.971 98.2115 121.158 96.491 122.042C94.7705 122.925 96.5703 128.409 98.5287 129.205C98.7724 129.324 99.0377 129.393 99.3086 129.407C99.5795 129.421 99.8505 129.38 100.105 129.287C100.36 129.193 100.593 129.049 100.791 128.862C100.989 128.676 101.147 128.451 101.256 128.202L100.693 124.971Z" fill="#AD6359"/>
<path d="M97.0059 123.594C97.0059 123.594 97.0059 123.633 97.0059 123.649C97.6327 123.988 98.1817 124.454 98.6174 125.019C99.0531 125.584 99.3657 126.235 99.5351 126.929C99.4591 126.786 99.3531 126.661 99.2243 126.563C99.0955 126.466 98.947 126.398 98.7893 126.364C98.6316 126.33 98.4683 126.33 98.3109 126.366C98.1535 126.402 98.0058 126.472 97.878 126.57C97.878 126.57 97.878 126.65 97.878 126.642C98.1243 126.572 98.3862 126.58 98.6276 126.666C98.869 126.751 99.0781 126.91 99.2259 127.12C99.4719 127.473 99.6792 127.852 99.8443 128.25C99.9077 128.377 100.13 128.313 100.09 128.17C100.201 126.363 98.9008 123.832 97.0059 123.594Z" fill="#263238"/>
<path d="M25.9027 370.274H0V365.499H25.9027C46.4218 365.499 52.2731 347.869 53.5655 333.081C54.5803 321.5 55.1987 307.396 55.8568 292.489C58.3226 236.631 60.8756 178.871 83.2659 178.871H103.785V183.646H83.25C65.4107 183.646 62.6357 246.675 60.5981 292.688C59.9321 307.675 59.3057 321.826 58.2909 333.519C56.2295 357.213 44.7251 370.274 25.9027 370.274Z" fill="#185BB4"/>
<path opacity="0.2" d="M103.785 178.847V183.622H87.4205L86.4056 178.847H103.785Z" fill="black"/>
<path d="M174.968 212.084H183.705V150.814H174.968V212.084Z" fill="#185BB4"/>
<path d="M174.968 153.719H141.763V208.542H174.968V153.719Z" fill="#185BB4"/>
<path opacity="0.2" d="M174.968 153.719V208.542H166.722L163.019 153.719H174.968Z" fill="black"/>
<path d="M91.464 186.114H116.098V176.348H91.464V186.114Z" fill="#185BB4"/>
<path d="M116.098 176.356H91.4644V186.122H116.098V176.356Z" fill="#185BB4"/>
<path opacity="0.2" d="M107.448 186.114L108.256 176.356H116.098V186.114H107.448Z" fill="black"/>
<path d="M141.763 205.295H120.974C119.681 205.295 118.441 204.779 117.526 203.861C116.612 202.943 116.098 201.698 116.098 200.4V162.482C116.098 161.184 116.612 159.939 117.526 159.021C118.441 158.103 119.681 157.587 120.974 157.587H141.763V205.295Z" fill="#185BB4"/>
<path opacity="0.2" d="M130.837 205.295L134.54 157.596H141.763V205.295H130.837Z" fill="black"/>
<g opacity="0.2">
<path d="M132.749 195.649H134.39V167.234H132.749V195.649Z" fill="black"/>
<path d="M128.11 195.649H129.751V167.234H128.11V195.649Z" fill="black"/>
<path d="M123.464 195.649H125.105V167.234H123.464V195.649Z" fill="black"/>
</g>
<path d="M89.9495 148.076C89.1566 159.569 88.2528 182.978 93.3112 189.846C99.9474 198.856 118.683 204.324 124.233 205.964C126.611 206.672 132.312 190.841 130.901 188.565C129.489 186.289 110.152 181.402 108.629 180.064C107.107 178.727 102.286 160.071 99.995 150.568C97.0297 138.581 90.2746 143.54 89.9495 148.076Z" fill="#AD6359"/>
<path d="M145.188 194.646C148.24 195.378 152.871 193.802 153.021 196.15C153.156 198.235 149.85 199.007 149.85 199.007C149.85 199.007 153.862 199.35 153.37 201.634C152.879 203.918 149.073 204.022 149.073 204.022C149.073 204.022 152.752 204.523 152.094 206.768C151.436 209.012 147.907 209.323 147.907 209.323C147.907 209.323 148.835 210.015 147.662 211.392C145.989 213.366 140.407 213.135 137.529 212.323C134.651 211.511 124.685 206.386 123.17 205.566L128.221 186.941C128.221 186.941 134.017 186.018 137.014 185.906C140.011 185.795 149.977 188.183 149.557 190.682C149.136 193.181 142.12 191.398 140.304 191.335C138.488 191.271 138.171 191.677 138.964 192.345C139.479 192.815 143.832 194.319 145.188 194.646Z" fill="#AD6359"/>
<path d="M149.667 198.968C144.982 199.763 142.793 199.238 138.496 197.376C138.409 197.336 138.338 197.455 138.425 197.503C142.468 199.692 145.124 200.687 149.715 199.182C149.945 199.119 149.897 198.936 149.667 198.968Z" fill="#263238"/>
<path d="M149.256 203.942C144.316 204.3 141.945 203.799 137.299 202.191C137.236 202.191 137.188 202.279 137.252 202.31C141.684 204.26 144.348 205.208 149.24 204.197C149.462 204.157 149.486 203.926 149.256 203.942Z" fill="#263238"/>
<path d="M147.844 209.291C143.031 209.291 140.407 208.845 136.094 206.712C136.074 206.702 136.051 206.7 136.03 206.707C136.009 206.713 135.991 206.727 135.98 206.747C135.968 206.766 135.965 206.789 135.97 206.81C135.975 206.832 135.988 206.851 136.007 206.863C140.193 209.474 143.467 210.047 147.828 209.442C148.121 209.394 148.145 209.291 147.844 209.291Z" fill="#263238"/>
<path d="M109.605 202.231C109.605 202.231 94.4851 194.606 92.162 188.764C89.3077 181.473 88.1422 160.214 89.2522 149.31C90.3622 138.406 97.9261 139.759 100.352 149.397C102.731 158.805 108.098 177.597 108.653 178.481C109.359 179.619 117.985 181.76 117.985 181.76" fill="#455A64"/>
<path d="M108.09 176.045C107.829 175.146 107.369 173.116 107.107 172.24C106.576 170.489 106.045 168.73 105.521 166.979C104.998 165.228 104.435 163.469 103.856 161.726C103.753 161.432 103.658 161.129 103.563 160.835C103.611 160.644 103.396 158.336 103.412 157.771C103.412 157.683 103.27 157.675 103.278 157.771C103.299 158.336 103.28 158.903 103.222 159.466C103.222 159.569 103.222 159.681 103.222 159.784C102.857 158.638 102.493 157.5 102.12 156.386C102.12 156.306 101.961 156.338 101.985 156.386C102.699 158.773 103.048 160.278 103.571 162.212C104.094 164.146 104.633 165.945 105.157 167.783C105.68 169.622 106.29 171.492 106.869 173.355C107.195 174.459 107.576 175.545 108.011 176.61C108.344 177.326 108.36 176.992 108.09 176.045Z" fill="#263238"/>
<path d="M91.036 182.468C90.7268 180.502 90.4176 178.488 90.1797 176.546C89.6961 172.567 89.3869 168.651 89.2125 164.671C89.1094 162.395 88.9429 160.134 88.816 157.866C88.816 157.843 88.8069 157.821 88.7905 157.804C88.7741 157.788 88.752 157.779 88.7288 157.779C88.7057 157.779 88.6835 157.788 88.6672 157.804C88.6508 157.821 88.6416 157.843 88.6416 157.866C88.6416 159.888 88.5703 161.901 88.6416 163.923C88.6416 164.218 88.6416 164.512 88.6416 164.807L88.5465 164.393C88.2531 163.239 87.8408 162.108 87.5871 160.938C87.5802 160.925 87.5687 160.914 87.5546 160.909C87.5406 160.903 87.525 160.902 87.5107 160.907C87.4963 160.912 87.4841 160.922 87.4763 160.935C87.4685 160.948 87.4656 160.963 87.4682 160.978C87.7536 162.14 87.9042 163.366 88.1738 164.504C88.3165 165.085 88.4592 165.666 88.6178 166.247L88.6971 166.494C88.7447 167.656 88.8002 168.818 88.8795 169.98C89.0944 173.968 89.5525 177.939 90.2511 181.871C90.7301 184.442 91.4223 186.969 92.3205 189.424C92.325 189.437 92.3331 189.447 92.3437 189.455C92.3543 189.462 92.367 189.466 92.3799 189.466C92.3929 189.466 92.4055 189.462 92.4161 189.455C92.4268 189.447 92.4349 189.437 92.4394 189.424C91.9716 187.459 91.3532 184.434 91.036 182.468Z" fill="#263238"/>
<path d="M115.179 181.752C114.351 183.181 113.609 184.659 112.959 186.177C112.261 187.674 111.555 189.17 110.897 190.682C109.563 193.66 108.396 196.711 107.401 199.819C107.399 199.837 107.403 199.854 107.412 199.869C107.421 199.884 107.435 199.896 107.451 199.902C107.467 199.909 107.485 199.909 107.502 199.904C107.518 199.9 107.533 199.889 107.543 199.875C109.018 196.93 110.279 193.866 111.563 190.833C112.197 189.337 112.808 187.825 113.434 186.328C114.061 184.832 114.774 183.328 115.258 181.784C115.274 181.736 115.202 181.712 115.179 181.752Z" fill="#263238"/>
<path d="M194.381 111.771C194.287 111.771 194.196 111.72 194.129 111.628C194.063 111.537 194.025 111.413 194.025 111.283V97.5424C194.025 97.4129 194.063 97.2887 194.129 97.1972C194.196 97.1056 194.287 97.0541 194.381 97.0541C194.476 97.0541 194.566 97.1056 194.633 97.1972C194.7 97.2887 194.737 97.4129 194.737 97.5424V111.283C194.737 111.413 194.7 111.537 194.633 111.628C194.566 111.72 194.476 111.771 194.381 111.771Z" fill="#263238"/>
<path d="M176.244 118.354C176.181 118.354 176.119 118.332 176.064 118.289C176.009 118.246 175.963 118.184 175.931 118.11L170.944 106.205C170.915 106.15 170.894 106.087 170.884 106.02C170.873 105.953 170.873 105.884 170.884 105.817C170.894 105.75 170.914 105.687 170.943 105.632C170.973 105.576 171.01 105.53 171.053 105.496C171.096 105.461 171.144 105.44 171.194 105.432C171.243 105.425 171.293 105.432 171.341 105.453C171.388 105.474 171.432 105.508 171.469 105.553C171.506 105.599 171.536 105.654 171.557 105.717L176.543 117.621C176.567 117.676 176.583 117.737 176.59 117.801C176.596 117.864 176.594 117.929 176.582 117.991C176.57 118.053 176.549 118.111 176.52 118.161C176.492 118.212 176.456 118.254 176.415 118.286C176.364 118.329 176.305 118.353 176.244 118.354Z" fill="#263238"/>
<path d="M171.03 216.326C170.967 216.327 170.905 216.303 170.851 216.258C170.812 216.222 170.777 216.176 170.751 216.122C170.725 216.068 170.706 216.007 170.698 215.943C170.689 215.879 170.69 215.813 170.701 215.75C170.711 215.687 170.731 215.627 170.759 215.574L175.746 203.679C175.769 203.623 175.8 203.574 175.837 203.535C175.874 203.496 175.917 203.467 175.962 203.45C176.008 203.433 176.055 203.429 176.101 203.437C176.148 203.446 176.193 203.466 176.233 203.498C176.274 203.531 176.31 203.573 176.339 203.624C176.367 203.675 176.388 203.733 176.4 203.796C176.413 203.858 176.416 203.922 176.41 203.986C176.404 204.05 176.389 204.112 176.365 204.167L171.379 216.062C171.346 216.149 171.296 216.22 171.234 216.267C171.171 216.314 171.1 216.335 171.03 216.326Z" fill="#263238"/>
<path d="M194.153 224.901C194.059 224.901 193.968 224.849 193.902 224.758C193.835 224.666 193.797 224.542 193.797 224.412V210.691C193.797 210.562 193.835 210.437 193.902 210.346C193.968 210.254 194.059 210.203 194.153 210.203C194.247 210.205 194.337 210.258 194.403 210.349C194.47 210.44 194.508 210.562 194.51 210.691V224.432C194.506 224.558 194.467 224.677 194.4 224.765C194.334 224.852 194.245 224.901 194.153 224.901Z" fill="#263238"/>
<path d="M217.305 216.482C217.243 216.482 217.182 216.459 217.129 216.416C217.075 216.373 217.03 216.312 216.999 216.238L212.012 204.343C211.989 204.287 211.974 204.226 211.968 204.162C211.962 204.098 211.965 204.033 211.977 203.971C211.99 203.909 212.011 203.851 212.039 203.8C212.068 203.749 212.104 203.706 212.144 203.674C212.185 203.642 212.23 203.621 212.276 203.613C212.323 203.605 212.37 203.609 212.415 203.626C212.461 203.643 212.503 203.672 212.54 203.711C212.578 203.75 212.609 203.799 212.632 203.855L217.619 215.75C217.643 215.805 217.659 215.866 217.665 215.929C217.672 215.993 217.669 216.057 217.657 216.119C217.645 216.181 217.624 216.239 217.596 216.29C217.567 216.34 217.531 216.383 217.491 216.414C217.435 216.461 217.371 216.485 217.305 216.482Z" fill="#263238"/>
<path d="M212.49 118.51C212.427 118.511 212.365 118.487 212.312 118.442C212.271 118.41 212.235 118.368 212.207 118.318C212.178 118.267 212.157 118.209 212.145 118.147C212.133 118.085 212.131 118.02 212.137 117.957C212.144 117.894 212.159 117.833 212.184 117.778L217.17 105.873C217.222 105.775 217.299 105.707 217.385 105.682C217.471 105.658 217.561 105.677 217.637 105.738C217.714 105.799 217.771 105.896 217.798 106.011C217.824 106.126 217.819 106.251 217.783 106.361L212.796 118.266C212.764 118.339 212.719 118.399 212.666 118.442C212.612 118.484 212.552 118.508 212.49 118.51Z" fill="#263238"/>
</svg>
