<svg width="364" height="391" viewBox="0 0 364 391" fill="none" xmlns="http://www.w3.org/2000/svg">
<path d="M247.468 32.3385C249.449 18.8412 241.118 6.13116 228.861 3.94979C216.603 1.76841 205.061 10.9417 203.08 24.439C201.099 37.9362 209.43 50.6463 221.687 52.8277C233.944 55.009 245.487 45.8357 247.468 32.3385Z" fill="#EBEBEB"/>
<path d="M247.57 33.7427C249.478 20.9032 241.572 8.79209 229.911 6.69184C218.251 4.59159 207.253 13.2975 205.346 26.137C203.438 38.9765 211.344 51.0876 223.004 53.1879C234.665 55.2881 245.663 46.5822 247.57 33.7427Z" fill="#DBDBDB"/>
<path d="M235.276 49.9531C245.569 45.3219 250.504 32.3792 246.298 21.0449C242.092 9.71057 230.338 4.27664 220.045 8.90787C209.752 13.5391 204.817 26.4817 209.023 37.8161C213.229 49.1504 224.983 54.5843 235.276 49.9531Z" fill="white"/>
<path d="M226.726 9.47095H226.213V12.8204H226.726V9.47095Z" fill="#EBEBEB"/>
<path d="M217.405 12.0997L216.961 12.3818L218.482 15.2828L218.925 15.0007L217.405 12.0997Z" fill="#EBEBEB"/>
<path d="M210.748 18.4186L210.492 18.9097L213.138 20.5844L213.395 20.0934L210.748 18.4186Z" fill="#EBEBEB"/>
<path d="M210.928 29.6602H207.886V30.2246H210.928V29.6602Z" fill="#EBEBEB"/>
<path d="M212.887 38.2699L210.253 39.9451L210.51 40.4338L213.144 38.7586L212.887 38.2699Z" fill="#EBEBEB"/>
<path d="M218.476 44.6182L216.956 47.5198L217.4 47.8017L218.92 44.9002L218.476 44.6182Z" fill="#EBEBEB"/>
<path d="M226.726 47.0642H226.213V50.4136H226.726V47.0642Z" fill="#EBEBEB"/>
<path d="M234.472 44.6516L234.029 44.9338L235.549 47.8345L235.993 47.5523L234.472 44.6516Z" fill="#EBEBEB"/>
<path d="M240.056 38.259L239.8 38.7478L242.426 40.4179L242.683 39.9291L240.056 38.259Z" fill="#EBEBEB"/>
<path d="M245.06 29.6602H242.019V30.2246H245.06V29.6602Z" fill="#EBEBEB"/>
<path d="M242.43 19.4586L239.803 21.1287L240.06 21.6175L242.687 19.9474L242.43 19.4586Z" fill="#EBEBEB"/>
<path d="M235.558 12.0877L234.038 14.9893L234.482 15.2712L236.002 12.3696L235.558 12.0877Z" fill="#EBEBEB"/>
<path d="M229.44 22.8602L220.647 41.8943L221.104 42.1502L229.896 23.1161L229.44 22.8602Z" fill="#EBEBEB"/>
<path d="M225.444 22.3548L224.777 22.502L228.526 43.1239L229.193 42.9767L225.444 22.3548Z" fill="#DBDBDB"/>
<path d="M160.622 189.211H16.3668V5.77002H160.622V189.211ZM19.7194 185.51H157.261V9.47104H19.7278L19.7194 185.51Z" fill="#EBEBEB"/>
<path d="M88.8646 10.4426H85.5036V187.361H88.8646V10.4426Z" fill="#EBEBEB"/>
<path d="M163.68 13.2554H13.3159V18.409H163.68V13.2554Z" fill="#EBEBEB"/>
<path d="M163.68 19.0566H13.3159V24.2103H163.68V19.0566Z" fill="#EBEBEB"/>
<path d="M163.68 24.8486H13.3159V30.0023H163.68V24.8486Z" fill="#EBEBEB"/>
<path d="M163.68 30.6501H13.3159V35.8038H163.68V30.6501Z" fill="#EBEBEB"/>
<path d="M163.68 36.4514H13.3159V41.6051H163.68V36.4514Z" fill="#EBEBEB"/>
<path d="M163.68 42.2437H13.3159V47.3973H163.68V42.2437Z" fill="#EBEBEB"/>
<path d="M163.68 48.0449H13.3159V53.1986H163.68V48.0449Z" fill="#EBEBEB"/>
<path d="M163.68 53.8464H13.3159V59.0001H163.68V53.8464Z" fill="#EBEBEB"/>
<path d="M163.68 59.6384H13.3159V64.7921H163.68V59.6384Z" fill="#EBEBEB"/>
<path d="M153.697 12.2097H152.857V131.003H153.697V12.2097Z" fill="#263238"/>
<path d="M154.766 135.315H151.783L152.53 130.596H154.018L154.766 135.315Z" fill="#263238"/>
<path d="M156.724 12.2097H155.883V184.057H156.724V12.2097Z" fill="#263238"/>
<path d="M157.791 187.527H154.816L155.555 182.808H157.051L157.791 187.527Z" fill="#263238"/>
<path d="M168.891 5.04828H8.09879V15.8275H168.891V5.04828Z" fill="#DBDBDB"/>
<path d="M355.965 47.499H265.318V173.195H355.965V47.499Z" fill="#EBEBEB"/>
<path d="M344.428 73.4709H276.543V75.8489H344.428V73.4709Z" fill="#DBDBDB"/>
<path d="M334.026 78.4487H276.543V80.8266H334.026V78.4487Z" fill="#DBDBDB"/>
<path d="M320.38 83.4175H276.543V85.7954H320.38V83.4175Z" fill="#DBDBDB"/>
<path d="M342.058 88.3955H276.543V90.7734H342.058V88.3955Z" fill="#DBDBDB"/>
<path d="M336.487 93.3638H276.543V95.7417H336.487V93.3638Z" fill="#DBDBDB"/>
<path d="M338.748 103.31H276.543V105.688H338.748V103.31Z" fill="#DBDBDB"/>
<path d="M300.373 108.288H276.543V110.666H300.373V108.288Z" fill="#DBDBDB"/>
<path d="M324.598 113.257H276.543V115.635H324.598V113.257Z" fill="#DBDBDB"/>
<path d="M342.058 118.235H276.543V120.613H342.058V118.235Z" fill="#DBDBDB"/>
<path d="M333.034 123.203H276.543V125.581H333.034V123.203Z" fill="#DBDBDB"/>
<path d="M337.756 133.15H276.543V135.528H337.756V133.15Z" fill="#DBDBDB"/>
<path d="M313.599 138.128H276.543V140.506H313.599V138.128Z" fill="#DBDBDB"/>
<path d="M313.599 153.182H276.543V155.56H313.599V153.182Z" fill="#DBDBDB"/>
<path d="M338.707 163.119C342.499 163.119 345.572 159.734 345.572 155.56C345.572 151.385 342.499 148 338.707 148C334.916 148 331.842 151.385 331.842 155.56C331.842 159.734 334.916 163.119 338.707 163.119Z" fill="#185BB4"/>
<path d="M286.661 57.1863C287.485 57.1867 288.286 57.4895 288.938 58.0468C288.964 58.0685 288.987 58.0961 289.004 58.1278C289.02 58.1595 289.031 58.1946 289.035 58.2311C289.039 58.2675 289.036 58.3044 289.027 58.3395C289.017 58.3747 289.001 58.4073 288.98 58.4354C288.961 58.4642 288.936 58.4886 288.909 58.5071C288.881 58.5255 288.85 58.5377 288.818 58.5429C288.786 58.548 288.753 58.5461 288.722 58.5372C288.69 58.5282 288.661 58.5125 288.635 58.4909C288.074 57.9991 287.378 57.7316 286.661 57.7322C285.843 57.7322 285.058 58.0899 284.48 58.7268C283.902 59.3636 283.577 60.2273 283.577 61.1279C283.577 62.0285 283.902 62.8922 284.48 63.529C285.058 64.1658 285.843 64.5236 286.661 64.5236C287.373 64.5354 288.066 64.27 288.618 63.7741C288.644 63.75 288.675 63.7324 288.708 63.7226C288.74 63.7127 288.775 63.7108 288.808 63.7169C288.842 63.7231 288.874 63.7372 288.902 63.7582C288.93 63.7793 288.954 63.8068 288.971 63.8389C288.996 63.8632 289.016 63.8931 289.03 63.9266C289.044 63.9601 289.051 63.9964 289.051 64.0332C289.051 64.0699 289.044 64.1063 289.03 64.1398C289.016 64.1733 288.996 64.2032 288.971 64.2275C288.317 64.7756 287.517 65.0715 286.694 65.0695C286.224 65.0695 285.759 64.9675 285.324 64.7694C284.89 64.5713 284.495 64.281 284.163 63.915C283.831 63.549 283.567 63.1145 283.387 62.6362C283.207 62.158 283.115 61.6455 283.115 61.1279C283.115 60.6103 283.207 60.0977 283.387 59.6195C283.567 59.1413 283.831 58.7068 284.163 58.3407C284.495 57.9747 284.89 57.6844 285.324 57.4863C285.759 57.2882 286.224 57.1863 286.694 57.1863H286.661Z" fill="#185BB4"/>
<path d="M293.945 57.1864C294.662 57.1457 295.373 57.3426 295.987 57.7516C296.601 58.1607 297.09 58.7631 297.39 59.481C297.689 60.199 297.787 60.9995 297.669 61.779C297.552 62.5586 297.225 63.2815 296.73 63.8542C296.236 64.4269 295.597 64.8232 294.896 64.9918C294.194 65.1605 293.463 65.0937 292.797 64.8002C292.131 64.5066 291.56 63.9998 291.158 63.3452C290.756 62.6906 290.541 61.9182 290.542 61.128C290.527 60.6223 290.604 60.1185 290.768 59.6457C290.932 59.173 291.179 58.7408 291.495 58.3741C291.812 58.0074 292.192 57.7136 292.612 57.5097C293.033 57.3059 293.486 57.1959 293.945 57.1864ZM293.945 64.5237C294.561 64.5626 295.174 64.3969 295.704 64.0482C296.233 63.6995 296.656 63.1838 296.917 62.5677C297.177 61.9517 297.264 61.2637 297.166 60.5927C297.068 59.9217 296.789 59.2987 296.365 58.8042C295.942 58.3096 295.394 57.9664 294.791 57.8189C294.189 57.6713 293.56 57.7262 292.986 57.9765C292.412 58.2268 291.92 58.661 291.572 59.2228C291.225 59.7847 291.039 60.4483 291.038 61.128C291.015 62.0026 291.309 62.8513 291.854 63.488C292.399 64.1246 293.151 64.4971 293.945 64.5237Z" fill="#185BB4"/>
<path d="M299.677 58.4448V64.8013C299.683 64.8401 299.682 64.88 299.673 64.9181C299.664 64.9563 299.648 64.9919 299.625 65.0222C299.602 65.0526 299.573 65.077 299.541 65.0938C299.508 65.1105 299.473 65.1192 299.437 65.1192C299.401 65.1192 299.366 65.1105 299.334 65.0938C299.301 65.077 299.273 65.0526 299.25 65.0222C299.227 64.9919 299.21 64.9563 299.201 64.9181C299.192 64.88 299.191 64.8401 299.198 64.8013V57.6768C299.181 57.6241 299.18 57.5668 299.195 57.5134C299.21 57.4601 299.241 57.4135 299.282 57.3808C299.336 57.3404 299.402 57.3246 299.466 57.3367C299.53 57.3488 299.588 57.3878 299.626 57.4455L303.903 63.9223V57.6028C303.903 57.5332 303.928 57.4663 303.972 57.4163C304.016 57.3662 304.075 57.3369 304.139 57.3345C304.171 57.3333 304.204 57.3393 304.234 57.3522C304.265 57.3651 304.293 57.3847 304.316 57.4097C304.34 57.4348 304.359 57.4648 304.371 57.4979C304.384 57.5311 304.391 57.5668 304.391 57.6028V64.755C304.391 64.7911 304.384 64.8267 304.371 64.8599C304.359 64.8931 304.34 64.9231 304.316 64.9481C304.293 64.9732 304.265 64.9927 304.234 65.0057C304.204 65.0186 304.171 65.0246 304.139 65.0234C304.103 65.023 304.067 65.0137 304.035 64.996C304.003 64.9784 303.975 64.9529 303.954 64.9216C303.944 64.9179 303.935 64.9119 303.928 64.9038C303.921 64.8958 303.915 64.8861 303.912 64.8753L299.677 58.4448Z" fill="#185BB4"/>
<path d="M308.659 57.8435H306.534C306.468 57.8411 306.406 57.8108 306.361 57.759C306.315 57.7072 306.29 57.638 306.29 57.5659C306.292 57.4955 306.318 57.4286 306.364 57.3788C306.409 57.3289 306.47 57.2999 306.534 57.2976H311.273C311.337 57.2999 311.397 57.3289 311.443 57.3788C311.488 57.4286 311.514 57.4955 311.516 57.5659C311.516 57.638 311.491 57.7072 311.445 57.759C311.4 57.8108 311.338 57.8411 311.273 57.8435H309.147V64.8014C309.147 64.8726 309.121 64.9408 309.075 64.9912C309.03 65.0415 308.968 65.0697 308.903 65.0697C308.838 65.0697 308.777 65.0415 308.731 64.9912C308.685 64.9408 308.659 64.8726 308.659 64.8014V57.8435Z" fill="#185BB4"/>
<path d="M316.91 63.3116C316.91 63.079 316.858 62.8498 316.759 62.6448C316.659 62.4397 316.515 62.2651 316.338 62.1365C316.083 61.9501 315.798 61.8183 315.498 61.7479H315.448H313.767V64.8197C313.757 64.8835 313.726 64.9412 313.681 64.9826C313.635 65.0241 313.578 65.0468 313.519 65.0468C313.46 65.0468 313.403 65.0241 313.358 64.9826C313.313 64.9412 313.282 64.8835 313.272 64.8197V57.5842C313.275 57.5188 313.298 57.4564 313.338 57.4076C313.377 57.3588 313.431 57.3264 313.49 57.3159H315.507C315.963 57.3211 316.404 57.4967 316.758 57.8138C317.112 58.1309 317.358 58.5708 317.456 59.0617C317.553 59.5526 317.497 60.0655 317.295 60.5164C317.094 60.9673 316.759 61.3297 316.347 61.5443C316.378 61.5683 316.412 61.587 316.448 61.5999C316.732 61.7685 316.97 62.018 317.137 62.3223C317.304 62.6266 317.394 62.9746 317.397 63.3301C317.383 63.6414 317.411 63.9534 317.481 64.2553C317.5 64.3255 317.535 64.3893 317.582 64.4404C317.639 64.4331 317.697 64.4463 317.747 64.4779C317.797 64.5096 317.836 64.558 317.859 64.6162C317.875 64.6874 317.868 64.7624 317.839 64.8283C317.809 64.8942 317.76 64.9468 317.7 64.977H317.557C317.459 64.9666 317.365 64.9277 317.286 64.8643C317.206 64.8009 317.143 64.7152 317.103 64.6162C316.939 64.2063 316.873 63.7574 316.91 63.3116ZM315.498 57.8433H313.759V61.1927H315.54C315.944 61.1866 316.328 61.0043 316.609 60.6859C316.891 60.3675 317.046 59.9391 317.04 59.4949C317.034 59.0507 316.869 58.6272 316.58 58.3175C316.291 58.0077 315.902 57.8372 315.498 57.8433Z" fill="#185BB4"/>
<path d="M323.531 63.0617H320.313L319.691 64.9122C319.674 64.9635 319.643 65.0077 319.602 65.0392C319.562 65.0706 319.514 65.0876 319.464 65.088H319.372C319.311 65.0593 319.262 65.0059 319.235 64.9389C319.209 64.8718 319.206 64.796 319.229 64.7272L321.674 57.5287C321.696 57.4785 321.731 57.4361 321.774 57.4067C321.817 57.3772 321.867 57.3618 321.918 57.3622C321.969 57.3594 322.02 57.3738 322.063 57.4036C322.107 57.4333 322.141 57.477 322.161 57.5287L324.606 64.7272C324.63 64.7938 324.63 64.8677 324.607 64.9345C324.584 65.0013 324.539 65.056 324.48 65.088H324.388C324.338 65.087 324.288 65.0698 324.247 65.0386C324.205 65.0074 324.172 64.9635 324.153 64.9122L323.531 63.0617ZM320.498 62.5158H323.355L321.926 58.3429L320.498 62.5158Z" fill="#185BB4"/>
<path d="M329.136 57.1863C329.961 57.1867 330.762 57.4895 331.413 58.0468C331.44 58.0685 331.463 58.0961 331.479 58.1278C331.496 58.1595 331.507 58.1946 331.511 58.2311C331.515 58.2675 331.512 58.3044 331.502 58.3395C331.493 58.3747 331.477 58.4073 331.455 58.4354C331.436 58.4642 331.412 58.4886 331.384 58.5071C331.357 58.5255 331.326 58.5377 331.294 58.5429C331.262 58.548 331.229 58.5461 331.197 58.5372C331.166 58.5282 331.137 58.5125 331.111 58.4909C330.55 57.9991 329.853 57.7316 329.136 57.7322C328.318 57.7322 327.534 58.0899 326.956 58.7268C326.377 59.3636 326.052 60.2273 326.052 61.1279C326.052 62.0285 326.377 62.8922 326.956 63.529C327.534 64.1658 328.318 64.5236 329.136 64.5236C329.849 64.5354 330.542 64.27 331.094 63.7741C331.12 63.75 331.15 63.7324 331.183 63.7226C331.216 63.7127 331.25 63.7108 331.284 63.7169C331.318 63.7231 331.349 63.7372 331.378 63.7582C331.406 63.7793 331.429 63.8068 331.447 63.8389C331.472 63.8632 331.492 63.8931 331.506 63.9266C331.519 63.9601 331.527 63.9964 331.527 64.0332C331.527 64.0699 331.519 64.1063 331.506 64.1398C331.492 64.1733 331.472 64.2032 331.447 64.2275C330.792 64.7756 329.992 65.0715 329.17 65.0695C328.7 65.0695 328.234 64.9675 327.8 64.7694C327.366 64.5713 326.971 64.281 326.639 63.915C326.306 63.549 326.043 63.1145 325.863 62.6362C325.683 62.158 325.59 61.6455 325.59 61.1279C325.59 60.6103 325.683 60.0977 325.863 59.6195C326.043 59.1413 326.306 58.7068 326.639 58.3407C326.971 57.9747 327.366 57.6844 327.8 57.4863C328.234 57.2882 328.7 57.1863 329.17 57.1863H329.136Z" fill="#185BB4"/>
<path d="M335.395 57.8435H333.269C333.204 57.8411 333.142 57.8108 333.096 57.759C333.051 57.7072 333.026 57.638 333.026 57.5659C333.028 57.4955 333.054 57.4286 333.099 57.3788C333.145 57.3289 333.205 57.2999 333.269 57.2976H338.008C338.072 57.2999 338.133 57.3289 338.178 57.3788C338.224 57.4286 338.25 57.4955 338.252 57.5659C338.253 57.6019 338.248 57.6378 338.236 57.6715C338.224 57.7051 338.206 57.7358 338.184 57.7617C338.161 57.7876 338.134 57.8082 338.104 57.8222C338.073 57.8363 338.041 57.8435 338.008 57.8435H335.882V64.8014C335.882 64.8726 335.857 64.9408 335.811 64.9912C335.765 65.0415 335.703 65.0697 335.639 65.0697C335.574 65.0697 335.512 65.0415 335.467 64.9912C335.421 64.9408 335.395 64.8726 335.395 64.8014V57.8435Z" fill="#185BB4"/>
<path d="M234.439 241.192H222.743L222.011 234.891H235.178L234.439 241.192ZM223.516 240.267H233.725L234.246 235.816H222.986L223.516 240.267Z" fill="#DBDBDB"/>
<path d="M234.439 272.836H222.743L222.011 266.535H235.178L234.439 272.836ZM223.516 271.91H233.725L234.246 267.46H222.986L223.516 271.91Z" fill="#DBDBDB"/>
<path d="M346.827 292.21L347.869 300.408L349.978 316.868H354.087V292.21H346.827Z" fill="#EBEBEB"/>
<path d="M198.643 391C282.378 391 350.259 381.261 350.259 369.247C350.259 357.233 282.378 347.494 198.643 347.494C114.908 347.494 47.0268 357.233 47.0268 369.247C47.0268 381.261 114.908 391 198.643 391Z" fill="#EBEBEB"/>
<path d="M59.5641 345.44C84.6327 345.44 104.955 340.08 104.955 333.468C104.955 326.855 84.6327 321.495 59.5641 321.495C34.4955 321.495 14.1733 326.855 14.1733 333.468C14.1733 340.08 34.4955 345.44 59.5641 345.44Z" fill="#EBEBEB"/>
<path d="M0 316.868L45.5 316.646L91 316.563L182 316.415L273 316.563L318.5 316.646L364 316.868L318.5 317.1L273 317.183L182 317.331L91 317.183L45.5 317.1L0 316.868Z" fill="#263238"/>
<path d="M246.844 309.75C246.844 309.75 246.844 346.179 246.844 346.205C246.844 353.166 246.785 359.272 246.44 362.427C246.445 362.435 246.447 362.444 246.447 362.453C246.447 362.461 246.445 362.47 246.44 362.478C246.441 363.226 246.268 363.965 245.936 364.635L245.894 364.677C243.844 366.09 188.555 368.001 186.606 367.409C184.656 366.817 186.16 361.184 188.286 359.382C190.412 357.581 211.225 347.329 211.225 347.329L211.57 310.917L246.844 309.75Z" fill="#AD6359"/>
<path d="M246.837 338.719V346.204C246.837 353.165 246.778 359.272 246.433 362.427C246.438 362.435 246.44 362.443 246.44 362.452C246.44 362.461 246.438 362.47 246.433 362.478C246.346 363.213 246.177 363.937 245.929 364.635L245.887 364.677C243.837 366.089 188.548 368.001 186.599 367.409C184.649 366.817 186.153 361.184 188.279 359.382C190.405 357.581 211.218 347.329 211.218 347.329L211.117 339.717L246.837 338.719Z" fill="#C7C7C7"/>
<path d="M186.598 367.409C188.548 368.001 243.837 366.098 245.895 364.677C246.685 364.153 246.879 356.024 246.837 346.204V345.892L211.151 346.737L211.193 347.346C211.193 347.346 190.354 357.606 188.254 359.408C186.153 361.209 184.641 366.842 186.598 367.409Z" fill="#263238"/>
<path d="M187.144 365.235C196.462 364.677 234.072 363.341 243.315 363.544C243.391 363.544 243.391 363.594 243.315 363.603C234.072 364.347 196.479 365.387 187.152 365.421C186.959 365.387 186.951 365.244 187.144 365.235Z" fill="#455A64"/>
<path d="M208.184 347.541C211.831 346.695 216.334 347.135 219.225 349.672C219.342 349.774 219.225 349.926 219.082 349.892C215.537 348.876 211.895 348.244 208.217 348.006C208.162 348 208.111 347.975 208.073 347.935C208.034 347.895 208.011 347.843 208.007 347.788C208.003 347.732 208.018 347.677 208.051 347.632C208.083 347.587 208.13 347.554 208.184 347.541Z" fill="#455A64"/>
<path d="M205.595 349.241C209.233 348.395 213.745 348.835 216.636 351.372C216.745 351.465 216.636 351.626 216.485 351.592C212.941 350.575 209.298 349.942 205.62 349.706C205.566 349.699 205.515 349.673 205.478 349.632C205.44 349.592 205.418 349.539 205.415 349.484C205.412 349.429 205.428 349.374 205.461 349.33C205.494 349.285 205.541 349.254 205.595 349.241Z" fill="#455A64"/>
<path d="M202.999 350.932C206.646 350.087 211.15 350.535 214.04 353.064C214.158 353.165 214.04 353.326 213.897 353.292C210.353 352.273 206.711 351.638 203.033 351.398C202.978 351.392 202.926 351.367 202.888 351.327C202.849 351.287 202.826 351.235 202.822 351.179C202.818 351.124 202.834 351.069 202.866 351.023C202.898 350.978 202.945 350.946 202.999 350.932Z" fill="#455A64"/>
<path d="M250.012 174.7L249.978 177.11L248.626 283.564L248.617 283.97L247.819 347.735L209.117 346.957L216.586 174.827L216.687 172.526L217.065 152.557H249.751L250.012 174.7Z" fill="#455A64"/>
<path d="M210.738 340.461C216.779 340.402 215.04 340.334 221.081 340.351C224.039 340.351 243.474 340.427 246.23 340.918C246.289 340.918 246.289 341.036 246.23 341.045C243.457 341.468 224.031 341.045 221.073 340.994C215.031 340.867 216.771 340.833 210.729 340.639C210.711 340.632 210.695 340.619 210.684 340.603C210.673 340.586 210.667 340.567 210.668 340.547C210.669 340.527 210.677 340.508 210.689 340.492C210.701 340.477 210.719 340.466 210.738 340.461Z" fill="#263238"/>
<path d="M228.073 185.898C228.073 185.88 228.066 185.863 228.054 185.85C228.041 185.838 228.024 185.831 228.006 185.831C227.988 185.831 227.971 185.838 227.959 185.85C227.946 185.863 227.939 185.88 227.939 185.898C227.939 196.09 227.527 201.8 227.284 211.983C227.04 222.167 226.746 232.35 226.443 242.525C225.897 262.884 225.082 283.225 224.334 303.576C223.914 314.988 223.39 326.396 222.763 337.797C222.763 337.813 222.769 337.828 222.78 337.839C222.791 337.85 222.806 337.856 222.822 337.856C222.837 337.856 222.852 337.85 222.863 337.839C222.874 337.828 222.881 337.813 222.881 337.797C224.351 317.498 225.754 297.131 226.561 276.772C227.368 256.413 227.939 236.063 228.031 215.705C228.115 204.278 228.048 197.325 228.073 185.898Z" fill="#263238"/>
<path d="M250.004 174.7L248.626 283.564L222.687 152.557H249.744L250.004 174.7Z" fill="#263238"/>
<path d="M290.252 307.779C290.252 307.779 295.126 343.87 295.126 343.895C296.1 350.797 296.806 356.861 296.907 360.033C296.907 360.033 296.907 360.033 296.907 360.084C297.005 360.823 296.936 361.575 296.705 362.283C296.705 362.3 296.705 362.317 296.705 362.334C294.857 364.025 240.324 373.414 238.316 373.093C236.308 372.771 237.047 366.986 238.87 364.914C240.694 362.841 259.986 349.858 259.986 349.858L255.449 313.734L290.252 307.779Z" fill="#AD6359"/>
<path d="M294.126 336.486C294.126 336.486 295.126 343.87 295.126 343.895C296.1 350.797 296.806 356.862 296.907 360.033C296.907 360.033 296.907 360.033 296.907 360.084C296.923 360.823 296.855 361.56 296.705 362.283C296.705 362.3 296.705 362.317 296.705 362.334C294.857 364.026 240.324 373.414 238.316 373.093C236.308 372.771 237.047 366.986 238.87 364.914C240.694 362.842 259.986 349.858 259.986 349.858L258.835 342.314L294.126 336.486Z" fill="#C7C7C7"/>
<path d="M238.282 373.093C240.298 373.414 294.823 364.017 296.671 362.334C297.386 361.7 296.487 353.631 295.125 343.895L295.075 343.591L259.834 349.258L259.952 349.858C259.952 349.858 240.677 362.85 238.836 364.922C236.996 366.994 236.232 372.763 238.282 373.093Z" fill="#263238"/>
<path d="M238.534 370.86C247.693 369.05 284.748 362.613 293.991 361.556C294.067 361.556 294.075 361.598 293.991 361.615C284.958 363.611 247.827 369.743 238.584 371.046C238.366 371.071 238.341 370.902 238.534 370.86Z" fill="#455A64"/>
<path d="M257.012 350.476C260.516 349.173 265.036 348.97 268.238 351.085C268.364 351.169 268.238 351.347 268.12 351.33C264.473 350.8 260.78 350.667 257.104 350.932C257.049 350.934 256.995 350.915 256.952 350.881C256.909 350.846 256.879 350.797 256.868 350.743C256.857 350.689 256.866 350.632 256.892 350.583C256.918 350.534 256.961 350.496 257.012 350.476Z" fill="#455A64"/>
<path d="M254.668 352.506C258.171 351.203 262.692 351 265.893 353.123C266.019 353.2 265.893 353.377 265.776 353.36C262.128 352.834 258.435 352.701 254.76 352.963C254.705 352.964 254.651 352.946 254.608 352.911C254.565 352.876 254.535 352.828 254.524 352.773C254.513 352.719 254.521 352.662 254.548 352.613C254.574 352.565 254.616 352.527 254.668 352.506Z" fill="#455A64"/>
<path d="M252.331 354.544C255.834 353.242 260.347 353.039 263.556 355.153C263.682 355.238 263.556 355.415 263.439 355.398C259.792 354.864 256.098 354.731 252.423 355.001C252.368 355.002 252.314 354.984 252.271 354.949C252.228 354.915 252.198 354.866 252.187 354.811C252.176 354.757 252.185 354.7 252.211 354.652C252.237 354.603 252.279 354.565 252.331 354.544Z" fill="#455A64"/>
<path d="M220.394 152.523C220.536 153.199 222.822 163.874 225.191 173.042C226.914 179.741 228.687 185.628 229.704 186.237C230.855 186.922 236.468 189.425 238.35 190.212L246.946 272.957L258.566 349.571L296.563 343.65L269.523 175.977L265.121 152.523H220.394Z" fill="#455A64"/>
<path d="M258.793 341.882C264.759 340.918 262.994 341.104 269.01 340.191C271.934 339.751 291.16 336.883 293.958 336.96C294.016 336.96 294.033 337.061 293.958 337.078C291.286 337.924 272.01 340.461 269.078 340.833C263.086 341.612 264.801 341.324 258.801 342.043C258.787 342.035 258.775 342.024 258.766 342.011C258.757 341.997 258.752 341.981 258.751 341.965C258.75 341.949 258.754 341.933 258.761 341.918C258.768 341.903 258.779 341.891 258.793 341.882Z" fill="#263238"/>
<path d="M280.766 319.003C279.816 313.692 278.875 308.38 277.901 303.068C275.957 292.445 273.996 281.825 272.019 271.207C268.053 249.954 264.132 228.685 260.255 207.399C258.087 195.389 258.138 196.514 256.247 184.444C256.247 184.368 256.096 184.376 256.113 184.444C257.928 195.169 257.071 192.817 258.785 203.559C260.499 214.301 262.297 224.814 264.188 235.412C267.986 256.718 271.968 277.99 275.993 299.254C277.114 305.22 278.259 311.177 279.43 317.126C280.606 323.199 281.951 329.238 283.194 335.294C283.194 335.429 283.438 335.421 283.413 335.294C282.539 329.872 281.749 324.425 280.766 319.003Z" fill="#263238"/>
<path d="M270.321 185.239C269.312 184.976 268.228 184.892 267.203 184.731C266.363 184.596 265.523 184.444 264.683 184.266C263.101 183.981 261.603 183.346 260.296 182.405C258.868 181.289 258.137 179.589 257.448 177.956C257.033 176.992 256.613 176.028 256.188 175.064L255.557 173.668C255.264 173.12 255.003 172.555 254.776 171.976C254.776 171.892 254.616 171.976 254.65 171.976C254.793 172.372 254.911 172.776 255.003 173.186C255.146 173.651 255.272 174.116 255.415 174.581C255.675 175.427 255.927 176.273 256.196 177.119C256.605 178.645 257.195 180.116 257.952 181.5C259.481 183.936 262.204 184.926 264.926 185.272C265.708 185.365 266.498 185.425 267.287 185.467C268.277 185.556 269.272 185.556 270.262 185.467C270.285 185.461 270.306 185.449 270.323 185.432C270.34 185.415 270.352 185.393 270.358 185.37C270.364 185.347 270.363 185.322 270.357 185.299C270.35 185.276 270.338 185.255 270.321 185.239Z" fill="#263238"/>
<path d="M226.72 184.773C230.727 186.239 234.599 188.056 238.29 190.204C238.321 190.218 238.346 190.245 238.357 190.277C238.369 190.31 238.368 190.346 238.353 190.377C238.339 190.408 238.312 190.433 238.28 190.445C238.248 190.456 238.212 190.455 238.181 190.44C234.282 188.749 230.308 187.142 226.51 185.247C226.457 185.213 226.418 185.162 226.4 185.101C226.382 185.041 226.387 184.977 226.412 184.919C226.437 184.862 226.483 184.815 226.539 184.789C226.596 184.762 226.66 184.757 226.72 184.773Z" fill="#263238"/>
<path d="M225.543 157.927C225.543 157.792 225.795 157.758 225.795 157.927C225.793 162.306 226.011 166.681 226.451 171.037C226.627 173.059 228.241 184.223 231.728 183.412C232.307 183.276 232.568 182.693 232.694 181.813C232.681 180.656 232.526 179.506 232.232 178.387C231.845 176.045 231.534 173.702 231.341 171.342C230.931 166.945 230.979 162.517 231.484 158.13C231.484 158.101 231.495 158.073 231.516 158.053C231.536 158.032 231.564 158.02 231.593 158.02C231.622 158.02 231.65 158.032 231.67 158.053C231.691 158.073 231.702 158.101 231.702 158.13C231.605 164.23 231.959 170.328 232.761 176.374C233.198 179.276 234.652 183.648 231.635 184.097C228.619 184.545 226.594 177.229 226.199 175.224C225.236 169.511 225.016 163.697 225.543 157.927Z" fill="#263238"/>
<path d="M231.636 183.665C231.943 184.421 232.204 185.195 232.418 185.983C232.642 186.592 232.753 187.237 232.745 187.886C232.74 187.912 232.728 187.937 232.709 187.956C232.69 187.975 232.667 187.988 232.64 187.994C232.614 187.999 232.587 187.997 232.562 187.986C232.538 187.976 232.517 187.959 232.502 187.937C232.127 187.368 231.843 186.742 231.661 186.084C231.392 185.374 231.115 184.655 230.872 183.936C230.836 183.834 230.842 183.722 230.888 183.624C230.935 183.527 231.018 183.452 231.119 183.416C231.221 183.38 231.332 183.386 231.429 183.433C231.526 183.48 231.6 183.563 231.636 183.665Z" fill="#263238"/>
<path d="M269.917 178.438C265.312 178.134 216.687 172.518 216.687 172.518L217.065 152.548H220.426H265.153L269.556 176.002L269.917 178.438Z" fill="#263238"/>
<path d="M235.862 106.689C230.299 124.214 220.88 142.306 218.158 145.866C210.856 155.441 188.917 164.872 182.22 166.09C179.321 166.614 172.372 147.795 174.17 145.207C175.968 142.619 203.235 132.13 204.571 130.735C205.495 129.762 216.998 114.842 224.737 105.843C234.408 94.6527 237.324 102.104 235.862 106.689Z" fill="#FFE8CE"/>
<path d="M179.994 141.553L190.766 163.544C190.766 163.544 213.663 153.555 219.116 146.425C224.57 139.294 234.451 115.13 235.922 107.433C237.392 99.7359 234.854 94.2382 224.612 105.487C214.369 116.737 205.882 127.944 204.051 129.821C202.219 131.699 179.994 141.553 179.994 141.553Z" fill="#EBEBEB"/>
<path d="M180.899 140.436L193.806 163.222C193.806 163.222 213.972 153.521 219.114 147.152C224.257 140.783 232.735 121.228 235.39 110.672C238.045 100.116 236.491 92.631 224.618 105.546C212.745 118.462 206.031 127.842 203.611 129.948C202.46 130.861 180.899 140.436 180.899 140.436Z" fill="#37474F"/>
<path d="M186.336 142.542C186.99 142.542 187.521 142.008 187.521 141.35C187.521 140.691 186.99 140.157 186.336 140.157C185.682 140.157 185.151 140.691 185.151 141.35C185.151 142.008 185.682 142.542 186.336 142.542Z" fill="#263238"/>
<path d="M191.924 139.954C192.578 139.954 193.109 139.42 193.109 138.761C193.109 138.103 192.578 137.569 191.924 137.569C191.27 137.569 190.739 138.103 190.739 138.761C190.739 139.42 191.27 139.954 191.924 139.954Z" fill="#263238"/>
<path d="M235.391 110.638C232.736 121.194 224.266 140.715 219.115 147.118C216.914 149.85 211.99 153.182 207.058 156.109L233.047 98.814C237.072 97.7144 237.198 103.466 235.391 110.638Z" fill="#263238"/>
<path d="M272.455 170.056C272.321 170.209 214.192 170.386 213.637 169.786C212.889 168.94 226.022 105.504 231.988 97.7145C233.257 96.0229 237.467 95.5746 241.046 96.0229C241.98 96.1289 242.902 96.3186 243.802 96.5896H243.903C244.629 96.8051 245.314 97.1425 245.928 97.5876C255.877 105.589 264.263 133.56 266.22 141.959C269.497 155.822 272.934 169.507 272.455 170.056Z" fill="#EBEBEB"/>
<path d="M245.76 96.8433C245.76 96.8433 241.029 122.81 240.206 129.559C239.382 136.309 240.592 171.959 240.592 171.959L277.093 174.675C277.093 174.675 269.203 151.076 269.111 149.579C269.111 149.579 262.557 121.312 256.414 109.505C253.732 104.615 250.11 100.311 245.76 96.8433Z" fill="#37474F"/>
<path d="M277.093 174.675L260.54 173.44L248.726 99.4568V99.5075L256.137 109.065C256.221 109.217 256.305 109.37 256.381 109.522C262.523 121.363 269.077 149.596 269.077 149.596C269.203 151.076 277.093 174.675 277.093 174.675Z" fill="#263238"/>
<path d="M231.637 97.4099C231.637 97.4099 227.763 123.706 227.343 125.88C226.923 128.053 221.058 170.936 221.058 170.936L211.924 171.224L216.688 151.618C216.688 151.618 227.284 103.009 231.637 97.4099Z" fill="#37474F"/>
<path d="M236.97 111.84L234.382 106.765L231.038 110.436L231.861 114.089L235.155 114.521L236.97 111.84Z" fill="#263238"/>
<path d="M235.157 114.521L236.736 151.855L229.787 164.204L226.174 150.307L231.863 114.089L235.157 114.521Z" fill="#263238"/>
<path d="M233.7 217.705L233.654 261.552L305.546 261.627L305.592 217.781L233.7 217.705Z" fill="#B1B1B1"/>
<path opacity="0.1" d="M233.696 217.71L233.674 238.356L305.567 238.432L305.588 217.786L233.696 217.71Z" fill="black"/>
<path d="M231.984 231.71L307.279 231.789L307.3 211.329L232.005 211.25L231.984 231.71Z" fill="#B1B1B1"/>
<path d="M253.81 199.609L253.793 211.273L259.246 211.281L259.255 204.642L280.051 204.667L280.043 211.307H285.496L285.504 199.634L253.81 199.609Z" fill="#263238"/>
<path d="M292.028 236.652L296.935 236.657L296.945 226.88L292.038 226.875L292.028 236.652Z" fill="#263238"/>
<path d="M242.311 236.612L247.218 236.617L247.228 226.839L242.321 226.834L242.311 236.612Z" fill="#263238"/>
<path d="M253.793 104.641C270.01 119.452 280.303 140.605 281.001 144.877C282.681 155.204 284.807 173.304 284.446 181.246C284.311 184.19 262.154 180.62 262.196 177.474C262.338 167.629 261.036 145.976 260.977 145.596C260.582 142.948 255.759 131.048 250.894 118.141C246.029 105.234 246.97 98.4248 253.793 104.641Z" fill="#AD6359"/>
<path d="M259.859 208.329C260.505 208.625 261.226 208.715 261.924 208.586C262.623 208.458 263.265 208.117 263.766 207.61C264.398 208.644 265.371 209.422 266.514 209.809C268.556 210.401 270.37 207.432 270.37 207.432C271.251 208.368 272.389 209.016 273.639 209.293C275.647 209.657 277.908 206.925 277.908 206.925C279.185 207.33 280.564 207.264 281.798 206.739C283.89 205.749 285.663 199.71 286.1 196.234C286.537 192.758 284.529 182.481 284.344 180.485L262.195 177.491C262.195 177.491 255.842 192.529 255.91 196.691C255.968 200.218 257.422 207.111 259.859 208.329Z" fill="#FFE8CE"/>
<path d="M263.43 207.407C262.48 203.694 262.674 199.896 262.657 196.107C262.657 196.089 262.664 196.072 262.677 196.059C262.689 196.047 262.706 196.04 262.724 196.04C262.742 196.04 262.759 196.047 262.772 196.059C262.784 196.072 262.791 196.089 262.791 196.107C262.791 199.88 263.48 203.61 263.632 207.382C263.635 207.409 263.628 207.436 263.611 207.457C263.594 207.479 263.57 207.493 263.543 207.496C263.517 207.499 263.49 207.492 263.468 207.475C263.447 207.459 263.433 207.434 263.43 207.407Z" fill="#263238"/>
<path d="M270.094 207.323C269.958 206.458 269.935 205.58 270.027 204.709C270.027 203.787 270.127 202.857 270.203 201.935C270.349 200.086 270.536 198.242 270.766 196.403C270.766 196.319 270.901 196.319 270.892 196.403C270.758 198.247 270.648 200.091 270.581 201.935C270.581 202.865 270.531 203.787 270.514 204.709C270.551 205.584 270.494 206.46 270.346 207.323C270.336 207.349 270.319 207.371 270.297 207.387C270.274 207.403 270.247 207.411 270.22 207.411C270.192 207.411 270.166 207.403 270.143 207.387C270.121 207.371 270.103 207.349 270.094 207.323Z" fill="#263238"/>
<path d="M277.908 206.849C277.8 206.064 277.823 205.267 277.975 204.489C278.059 203.644 278.135 202.798 278.21 201.952C278.362 200.26 278.504 198.569 278.588 196.877C278.588 196.793 278.723 196.793 278.723 196.877C278.639 198.569 278.58 200.311 278.488 202.028L278.336 204.565C278.354 205.338 278.238 206.108 277.992 206.841C277.988 206.848 277.982 206.855 277.975 206.859C277.968 206.864 277.96 206.867 277.952 206.868C277.944 206.869 277.935 206.867 277.928 206.864C277.92 206.861 277.913 206.856 277.908 206.849Z" fill="#263238"/>
<path d="M261.111 177.593L285.672 178.929C285.672 178.929 283.857 151.863 281.907 144.344C279.958 136.825 263.321 111.763 253.498 102.679C244.255 94.1283 244.255 101.242 247.759 111.264C251.263 121.287 259.935 145.511 260.229 147.279C260.523 149.047 261.111 177.593 261.111 177.593Z" fill="#37474F"/>
<path d="M262.212 172.602C263.153 172.518 264.103 172.602 265.044 172.602C265.985 172.602 266.926 172.645 267.867 172.687C269.682 172.763 271.497 172.873 273.312 172.991L278.748 173.355C280.622 173.482 282.538 173.516 284.395 173.795C284.408 173.8 284.419 173.808 284.427 173.82C284.434 173.831 284.439 173.845 284.439 173.858C284.439 173.872 284.434 173.886 284.427 173.897C284.419 173.908 284.408 173.917 284.395 173.922C282.521 173.998 280.614 173.829 278.74 173.761L273.194 173.533C271.346 173.448 269.497 173.355 267.648 173.237C266.741 173.186 265.833 173.118 264.934 173.017C264.035 172.915 263.094 172.907 262.204 172.729C262.12 172.712 262.145 172.611 262.212 172.602Z" fill="#263238"/>
<path d="M235.258 106.088C236.216 106.046 242.576 101.013 244.501 97.1395C244.635 96.8689 244.139 94.1115 243.702 90.7367C243.442 88.6899 243.198 86.3978 243.131 84.2917C243.131 83.8603 241.686 84.7061 241.686 84.7061L238.997 85.4504L230.124 87.9371C230.96 90.545 231.473 93.2465 231.653 95.9808C231.663 96.264 231.643 96.5475 231.594 96.8266C231.598 96.8744 231.598 96.9225 231.594 96.9704C231.401 98.6366 233.712 106.147 235.258 106.088Z" fill="#FFE8CE"/>
<path d="M231.626 96.8432C231.63 96.891 231.63 96.9391 231.626 96.9869C232.076 97.0299 232.529 97.0299 232.979 96.9869C241.802 96.4964 242.533 85.1456 242.533 85.1456L239.046 85.4163L230.173 87.903C231.009 90.5108 231.522 93.2124 231.702 95.9466C231.71 96.2474 231.684 96.548 231.626 96.8432Z" fill="#263238"/>
<path d="M242.802 66.4448C244.92 70.8515 244.567 84.6043 241.752 88.0975C237.685 93.1723 229.988 94.7878 225.451 89.62C221.056 84.6212 221.838 66.707 225.073 63.3999C229.837 58.5957 239.676 59.9321 242.802 66.4448Z" fill="#FFE8CE"/>
<path d="M231.088 76.4764C231.088 76.4764 231.156 76.4764 231.156 76.561C231.105 77.4829 231.206 78.5571 231.996 78.8785C231.996 78.8785 231.996 78.9377 231.996 78.9293C231.013 78.7686 230.895 77.3476 231.088 76.4764Z" fill="#263238"/>
<path d="M231.929 75.5292C233.408 75.4446 233.466 78.4388 232.088 78.5149C230.71 78.591 230.685 75.5969 231.929 75.5292Z" fill="#263238"/>
<path d="M225.762 76.7299C225.762 76.7299 225.695 76.7722 225.695 76.8145C225.737 77.7364 225.636 78.8106 224.804 79.132V79.1827C225.83 79.0136 225.956 77.5757 225.762 76.7299Z" fill="#263238"/>
<path d="M224.922 75.7657C223.443 75.6811 223.376 78.6753 224.754 78.7514C226.132 78.8275 226.149 75.8841 224.922 75.7657Z" fill="#263238"/>
<path d="M233.081 74.1419C232.67 74.0404 232.308 73.8881 231.922 73.7528C231.493 73.6761 231.102 73.4555 230.813 73.1269C230.741 73.0081 230.71 72.8683 230.727 72.7301C230.744 72.5919 230.807 72.4635 230.905 72.3657C231.125 72.1961 231.385 72.0887 231.66 72.0545C231.935 72.0203 232.214 72.0605 232.468 72.1712C233.018 72.3175 233.494 72.6641 233.804 73.1438C233.868 73.2571 233.899 73.3868 233.892 73.5171C233.885 73.6475 233.84 73.7729 233.764 73.8784C233.687 73.9839 233.582 74.0649 233.461 74.1117C233.34 74.1584 233.208 74.1689 233.081 74.1419Z" fill="#263238"/>
<path d="M223.746 74.2855C224.144 74.1974 224.536 74.0873 224.922 73.9556C225.351 73.8954 225.749 73.6965 226.056 73.3889C226.135 73.2734 226.172 73.1348 226.163 72.9953C226.154 72.8558 226.099 72.7234 226.006 72.6192C225.795 72.4378 225.539 72.3169 225.266 72.2693C224.992 72.2217 224.711 72.249 224.452 72.3486C223.896 72.4668 223.405 72.7896 223.073 73.2536C223.004 73.3635 222.967 73.4913 222.968 73.6216C222.969 73.7519 223.007 73.8792 223.078 73.9882C223.149 74.0972 223.25 74.1832 223.368 74.2359C223.487 74.2887 223.618 74.3059 223.746 74.2855Z" fill="#263238"/>
<path d="M228.291 83.4458C228.685 83.9494 229.204 84.3401 229.795 84.5792C230.12 84.7015 230.475 84.7192 230.811 84.63C231.551 84.4185 231.551 83.7841 231.408 83.1582C231.325 82.864 231.21 82.5803 231.063 82.3124C230.282 82.9771 229.311 83.3741 228.291 83.4458Z" fill="#263238"/>
<path d="M229.795 84.5789C230.12 84.7012 230.475 84.7189 230.811 84.6296C231.551 84.4182 231.551 83.7838 231.408 83.1579C231.021 83.1808 230.652 83.3329 230.359 83.5902C230.067 83.8475 229.869 84.1953 229.795 84.5789Z" fill="#FF9ABB"/>
<path d="M223.19 68.0012C223.669 66.817 224.232 65.6244 224.929 65.3707C225.627 65.117 226.123 66.8424 227.728 66.9185C229.887 67.0285 230.895 65.0155 233.912 64.7448C238.239 64.3557 240.214 67.9673 240.441 74.1586C240.634 79.6818 243.97 80.1385 243.97 80.1385C243.97 80.1385 245.751 67.9081 242.289 63.9328C238.827 59.9575 230.929 58.3251 225.736 62.2412C223.812 63.7214 223.19 68.0012 223.19 68.0012Z" fill="#263238"/>
<path d="M241.155 78.0154C241.155 78.0154 243.583 73.2704 245.684 74.0824C247.784 74.8944 246.364 81.4917 244.18 82.6673C243.91 82.8365 243.609 82.949 243.296 82.998C242.982 83.047 242.661 83.0315 242.353 82.9525C242.046 82.8734 241.757 82.7325 241.505 82.5381C241.253 82.3438 241.042 82.1 240.886 81.8215L241.155 78.0154Z" fill="#FFE8CE"/>
<path d="M245.231 75.9688C245.231 75.9688 245.282 76.011 245.231 76.028C243.71 76.8738 243.063 78.5146 242.71 80.1555C242.781 79.9796 242.889 79.8213 243.027 79.6919C243.165 79.5624 243.329 79.4649 243.509 79.4061C243.688 79.3472 243.878 79.3286 244.065 79.3514C244.252 79.3742 244.432 79.4379 244.593 79.5381C244.635 79.5381 244.593 79.6311 244.593 79.6311C244.298 79.5783 243.993 79.6191 243.722 79.7479C243.452 79.8767 243.227 80.0872 243.08 80.35C242.834 80.7895 242.637 81.2546 242.492 81.7372C242.441 81.8979 242.164 81.8556 242.198 81.678C241.845 79.5804 243.055 76.4762 245.231 75.9688Z" fill="#263238"/>
<path d="M231.585 97.1646L234.753 104.997L244.366 95.1009L247.105 98.2642C247.105 98.2642 237.711 113.945 237.652 113.26L234.442 106.545L229.846 111.23L230.19 99.4821L231.585 97.1646Z" fill="#EBEBEB"/>
<path d="M229.685 105.42C229.811 103.483 229.878 101.521 230.088 99.5921C230.088 99.5245 230.206 99.4991 230.223 99.5921C230.609 101.461 230.105 108.896 230.114 110.647C230.307 110.444 234.374 106.528 234.416 106.587C235.113 107.653 237.466 112.508 237.625 112.99C239.113 110.495 244.801 101.428 246.566 99.0677C246.577 99.0583 246.59 99.0526 246.604 99.0514C246.619 99.0502 246.633 99.0537 246.645 99.0612C246.657 99.0688 246.667 99.08 246.672 99.0934C246.678 99.1067 246.679 99.1214 246.675 99.1354C245.389 101.724 237.861 113.946 237.743 113.946C236.504 111.636 235.382 109.265 234.382 106.841C233.693 107.687 229.584 112.127 229.567 111.839C229.496 109.699 229.535 107.556 229.685 105.42Z" fill="#263238"/>
<path d="M123.048 105.234C133.619 126.235 144.357 176.755 145.357 183.513C146.038 188.106 122.048 192.259 122.048 189.079C122.048 185.002 117.209 137.315 117.671 118.471C117.923 108.076 120.864 100.895 123.048 105.234Z" fill="#EB9481"/>
<path d="M121.956 187.066C121.57 189.832 122.485 199.415 124.284 206.519C125.124 209.987 128.72 219.672 131.417 219.207C134.115 218.741 133.316 215.823 133.316 215.823C133.316 215.823 135.434 219.68 138.097 218.961C140.761 218.242 139.391 213.726 139.391 213.726C139.391 213.726 141.845 217.54 144.433 216.627C147.021 215.713 144.895 211.408 144.895 211.408C144.895 211.408 146.987 215.003 148.819 213.337C151.029 211.332 146.441 205.158 145.668 201.275C145.492 200.43 143.349 183.158 143.349 183.158L121.956 187.066Z" fill="#EB9481"/>
<path d="M144.929 211.349C141.568 206.798 140.879 204.219 140.459 198.662C140.453 198.643 140.441 198.626 140.425 198.614C140.409 198.603 140.39 198.596 140.371 198.596C140.351 198.596 140.332 198.603 140.316 198.614C140.3 198.626 140.288 198.643 140.282 198.662C140.207 204.151 140.61 207.509 144.719 211.543C144.921 211.721 145.089 211.56 144.929 211.349Z" fill="#263238"/>
<path d="M139.46 213.971C136.376 208.938 135.603 206.147 134.729 200.353C134.729 200.269 134.578 200.277 134.587 200.353C134.965 206.113 135.427 209.454 139.183 214.081C139.351 214.301 139.603 214.199 139.46 213.971Z" fill="#263238"/>
<path d="M133.073 215.443C130.443 210.368 129.468 207.331 129.342 201.597C129.336 201.574 129.322 201.554 129.303 201.539C129.284 201.525 129.261 201.517 129.237 201.517C129.214 201.517 129.191 201.525 129.172 201.539C129.153 201.554 129.139 201.574 129.132 201.597C128.695 207.458 129.889 211.239 132.914 215.519C133.124 215.764 133.241 215.73 133.073 215.443Z" fill="#263238"/>
<path d="M145.206 182.312C145.206 182.312 149.071 188.233 150.197 191.252C151.323 194.272 151.449 206.934 148.727 207.12C145.214 207.356 143.685 200.04 143.433 196.361C143.433 196.361 135.299 196.911 133.098 191.895C130.896 186.879 145.206 182.312 145.206 182.312Z" fill="#EB9481"/>
<path d="M147.744 206.858C144.383 204.752 144.333 199.897 143.803 196.344C143.798 196.291 143.78 196.241 143.751 196.196C143.722 196.152 143.682 196.115 143.636 196.089C143.59 196.064 143.538 196.05 143.485 196.048C143.433 196.047 143.38 196.059 143.333 196.082C139.913 196.082 135.081 195.084 133.014 192.107C133.01 192.095 133.003 192.085 132.995 192.076C132.986 192.068 132.975 192.061 132.964 192.057C132.952 192.053 132.94 192.052 132.928 192.053C132.916 192.054 132.904 192.058 132.893 192.064C132.883 192.07 132.874 192.079 132.867 192.089C132.86 192.099 132.855 192.11 132.853 192.123C132.851 192.135 132.852 192.147 132.855 192.159C132.858 192.171 132.864 192.182 132.872 192.191C134.653 195.693 139.325 197.063 143.072 196.818C143.56 200.463 143.82 205.335 147.719 206.891C147.744 206.9 147.761 206.875 147.744 206.858Z" fill="#263238"/>
<path d="M147.66 180.891L120.41 185.12C120.41 185.12 116.066 134.194 115.906 117.1C115.747 100.007 121.847 95.8198 128.393 113.303C134.938 130.786 147.66 180.891 147.66 180.891Z" fill="#AFAFAF"/>
<path d="M120.276 180.832C131.426 178.294 143.518 177.356 145.618 177.043C145.719 177.043 145.727 177.186 145.618 177.195C143.551 177.398 129.838 179.994 120.276 181.001C120.2 181.009 120.192 180.849 120.276 180.832Z" fill="#263238"/>
<path d="M180.675 367.367C178.784 367.984 123.369 367.147 121.335 365.802C121.092 365.65 121.058 360.609 121.125 353.698L118.428 312.651L153.492 312.753L156.265 348.277C156.265 348.277 164.13 351.931 170.617 355.128C173.455 356.426 176.213 357.895 178.876 359.526C180.969 361.285 182.565 366.758 180.675 367.367Z" fill="#EB9481"/>
<path d="M180.674 367.367C178.783 367.984 123.368 367.147 121.335 365.802C121.091 365.65 121.057 360.609 121.125 353.698C134.812 356.769 171.313 361.742 172.38 358.858C172.809 357.699 171.935 356.388 170.633 355.178C173.471 356.477 176.229 357.945 178.892 359.577C180.968 361.285 182.564 366.758 180.674 367.367Z" fill="#263238"/>
<path d="M103.622 163.256C103.622 163.256 113.554 269.338 113.772 270.623C113.772 270.792 113.882 272.755 113.974 275.943C114.529 293.443 115.89 348.015 115.89 348.015H157.55C157.55 348.015 154.836 283.378 153.273 268.306C151.281 249.064 139.039 163.256 139.039 163.256H103.622Z" fill="#37474F"/>
<path d="M118.739 274.209C117.456 252.185 115.526 230.194 112.95 208.236C111.488 195.888 109.723 183.581 107.975 171.266C107.975 171.156 107.79 171.165 107.807 171.266C111.034 193.181 113.311 215.248 115.277 237.332C117.243 259.416 118.638 281.449 119.478 303.559C119.991 316.077 120.378 328.612 120.772 341.138C120.783 341.192 120.811 341.241 120.854 341.276C120.896 341.311 120.949 341.33 121.004 341.33C121.058 341.33 121.111 341.311 121.153 341.276C121.196 341.241 121.224 341.192 121.235 341.138C120.68 318.843 120.041 296.513 118.739 274.209Z" fill="#263238"/>
<path d="M154.92 341.256C153.827 341.112 152.643 341.155 151.559 341.121C150.315 341.121 149.038 341.062 147.811 341.019C145.4 340.926 142.98 340.859 140.568 340.825C135.703 340.74 130.829 340.774 125.973 340.926L121.956 341.07C120.528 341.121 119.099 341.256 117.671 341.248C117.57 341.248 117.57 341.375 117.671 341.375C120.116 341.375 122.595 341.586 125.048 341.679C127.502 341.772 129.872 341.806 132.283 341.84C137.148 341.907 142.03 341.84 146.887 341.688C148.223 341.637 149.559 341.62 150.895 341.578L153.046 341.468C153.685 341.468 154.315 341.468 154.953 341.408C155.037 341.408 155.029 341.273 154.92 341.256Z" fill="#263238"/>
<path d="M133.72 163.256L114.688 301.428C114.419 291.126 114.15 281.602 113.974 275.943C113.882 272.755 113.806 270.792 113.772 270.623C113.537 269.338 103.622 163.256 103.622 163.256H133.72Z" fill="#263238"/>
<path d="M110.882 374.725C108.899 374.564 58.0632 352.337 56.702 350.307C56.5339 350.078 58.3825 345.409 61.1302 339.057L72.3392 299.304L104.773 312.406L95.6228 347.701C95.6228 347.701 101.505 354.121 106.26 359.543C108.385 361.844 110.371 364.27 112.209 366.808C113.478 369.219 112.856 374.894 110.882 374.725Z" fill="#EB9481"/>
<path d="M110.882 374.725C108.899 374.564 58.0632 352.336 56.702 350.307C56.5339 350.078 58.3825 345.409 61.1302 339.057C72.5997 347.194 104.387 365.903 106.504 363.653C107.344 362.757 107.033 361.201 106.294 359.577C108.418 361.878 110.405 364.304 112.243 366.842C113.478 369.219 112.856 374.894 110.882 374.725Z" fill="#263238"/>
<path d="M57.4828 334.963L98.1262 347.651C98.1262 347.651 117.973 277.575 119.494 261.116C120.998 244.8 122.452 211.467 123.099 187.285C123.099 187.285 129.888 183.242 131.61 181.035C133.333 178.827 134.879 170.885 138.274 163.273H88.5472C76.666 186.507 85.6063 196.843 85.6063 201.909C85.6063 226.37 81.9344 258.841 80.7664 263.653C78.3297 273.685 57.4828 334.963 57.4828 334.963Z" fill="#37474F"/>
<path d="M98.0347 338.702C97.018 338.279 95.8668 338.017 94.8081 337.687C93.6065 337.323 92.3966 336.985 91.2034 336.613C88.9011 335.894 86.582 335.209 84.2629 334.549C79.5854 333.207 74.8744 331.972 70.1297 330.845L66.2141 329.94C64.8277 329.618 63.4077 329.373 62.0128 329.001C61.9036 329.001 61.8784 329.094 62.0128 329.128C64.3824 329.753 66.7183 330.608 69.0626 331.335C71.4069 332.062 73.6924 332.714 76.0115 333.382C80.6918 334.71 85.414 335.919 90.1531 337.027C91.4639 337.323 92.7579 337.653 94.0603 337.966L96.1525 338.431C96.7743 338.575 97.3793 338.778 98.0095 338.871C98.0318 338.875 98.0545 338.869 98.0726 338.855C98.0907 338.842 98.1028 338.822 98.1061 338.799C98.1095 338.777 98.1038 338.754 98.0904 338.736C98.077 338.718 98.057 338.705 98.0347 338.702Z" fill="#263238"/>
<path d="M132.77 180.485C130.397 181.583 128.144 182.927 126.048 184.494C123.821 186.034 121.771 187.801 119.628 189.451C119.544 189.518 119.628 189.654 119.712 189.595C121.973 188.14 124.342 186.863 126.577 185.365C128.821 183.995 130.937 182.421 132.896 180.663C132.955 180.595 132.879 180.443 132.77 180.485Z" fill="#263238"/>
<path d="M133.081 166.386C132.795 167.942 132.417 169.49 132.081 171.037C131.745 172.585 131.535 173.972 131.157 175.41C130.844 176.801 130.141 178.072 129.132 179.073C128.569 179.605 127.939 180.071 127.334 180.561C127.014 180.823 126.661 181.069 126.325 181.339C126.367 181.128 126.401 180.925 126.435 180.705C126.544 180.121 126.645 179.529 126.737 178.937C126.956 177.626 127.166 176.307 127.367 174.996C127.762 172.408 128.124 169.794 128.661 167.231C128.667 167.209 128.663 167.185 128.652 167.165C128.64 167.145 128.621 167.131 128.598 167.126C128.576 167.12 128.552 167.124 128.533 167.135C128.513 167.147 128.499 167.167 128.493 167.189C127.855 169.726 127.149 172.264 126.594 174.801C126.317 176.053 125.342 182.244 125.3 182.684C125.258 183.124 125.216 183.589 125.199 184.046C125.145 184.51 125.145 184.978 125.199 185.442C125.199 185.552 125.367 185.535 125.409 185.442C125.598 185.012 125.73 184.56 125.804 184.097C125.914 183.657 126.014 183.209 126.09 182.76C126.09 182.6 126.14 182.43 126.166 182.261C126.771 181.889 127.334 181.416 127.905 180.993C128.476 180.57 129.132 180.147 129.712 179.622C130.78 178.715 131.55 177.503 131.921 176.146C132.295 174.685 132.539 173.193 132.652 171.689C132.846 169.929 132.989 168.162 133.232 166.411C133.257 166.385 133.098 166.301 133.081 166.386Z" fill="#263238"/>
<path d="M132.039 98.9408C131.241 108.879 130.249 119.096 127.947 128.806C126.149 136.368 122.065 142.246 113.915 143.033C106.353 143.76 95.8913 142.187 90.3456 136.427C87.7576 133.746 87.1946 130.379 87.8752 126.793C88.8247 121.811 96.5299 94.8471 98.8742 86.4228C100.303 81.2972 101.714 76.0955 104.033 71.2744C108.89 61.1247 114.116 61.9705 114.839 61.8436C115.52 61.5222 119.755 60.2873 125.2 62.8924C126.632 63.5656 127.907 64.536 128.941 65.74C129.975 66.944 130.745 68.3545 131.199 69.8788C134.089 78.9459 132.812 89.6369 132.039 98.9408Z" fill="#263238"/>
<path d="M113.042 63.087C106.378 65.1677 103.942 71.8495 101.589 77.804C98.3118 86.1014 95.1693 94.458 92.43 102.958C91.1192 107.044 89.9092 111.163 88.7917 115.307C87.7414 119.282 86.3718 123.486 86.0861 127.605C85.6155 134.372 91.3293 138.33 97.1439 140.115C97.2018 140.134 97.2649 140.129 97.3193 140.101C97.3736 140.073 97.4148 140.025 97.4338 139.967C97.4527 139.908 97.4478 139.845 97.4203 139.79C97.3927 139.735 97.3447 139.694 97.2867 139.675C93.9929 138.533 90.6739 137.137 88.4976 134.236C85.6995 130.549 86.6574 126.37 87.6069 122.209C89.237 115.121 91.2621 108.143 93.4887 101.241C95.7154 94.3396 98.2866 87.5055 100.908 80.7305C103.429 74.277 105.757 65.6498 113.025 63.1969C113.134 63.1969 113.109 63.0616 113.042 63.087Z" fill="#263238"/>
<path d="M133.056 77.4826C132.569 72.1625 130.586 66.7662 125.401 64.5248C132.073 67.722 132.728 75.6303 132.779 82.1599C132.835 89.0448 132.642 95.9184 132.199 102.781C131.779 109.386 131.208 116.026 130.191 122.564C129.09 129.618 126.914 136.097 121.973 141.333C121.962 141.343 121.953 141.355 121.947 141.368C121.94 141.382 121.937 141.396 121.936 141.411C121.935 141.426 121.937 141.441 121.942 141.455C121.947 141.469 121.955 141.482 121.965 141.493C121.975 141.504 121.987 141.513 122 141.52C122.013 141.526 122.028 141.53 122.043 141.531C122.058 141.532 122.072 141.529 122.086 141.524C122.1 141.52 122.113 141.512 122.124 141.502C126.855 137.349 129.098 131.039 130.25 125C131.639 116.983 132.5 108.882 132.829 100.751C133.266 93.0962 133.762 85.1879 133.056 77.4826Z" fill="#263238"/>
<path d="M112.647 100.294C112.966 101.14 117.865 106.299 121.831 105.597C123.117 105.36 122.167 98.2133 122.167 98.2133L122.218 97.672L122.907 90.0597L113.555 85.6108L112.219 85.0356C112.219 85.0356 112.16 87.1332 112.126 89.7383C112.126 89.8652 112.126 89.9836 112.126 90.1105C112.118 90.2542 112.118 90.3982 112.126 90.5419C112.126 90.9309 112.126 91.3285 112.126 91.726C112.126 92.1235 112.126 92.3181 112.126 92.631C112.126 92.944 112.126 93.2654 112.126 93.5783C112.148 95.8262 112.322 98.0699 112.647 100.294Z" fill="#EB9481"/>
<path d="M112.126 89.7383C113.134 91.7178 114.558 93.4527 116.3 94.8227C118.041 96.1927 120.057 97.165 122.209 97.672L122.898 90.0597L113.554 85.6108L112.218 85.0356C112.218 85.0356 112.159 87.1332 112.126 89.7383Z" fill="#263238"/>
<path d="M132.519 78.853C133.578 92.2168 125.746 94.3651 122.881 94.5935C120.276 94.7965 111.395 95.1687 108.975 81.9741C106.555 68.7794 112.395 64.0429 118.319 63.2817C124.242 62.5205 131.469 65.4808 132.519 78.853Z" fill="#EB9481"/>
<path d="M130.284 76.011C129.981 75.9661 129.681 75.904 129.385 75.825C129.057 75.805 128.744 75.6773 128.494 75.4613C128.431 75.3773 128.397 75.2749 128.397 75.1694C128.397 75.064 128.431 74.9615 128.494 74.8776C128.644 74.7321 128.83 74.6289 129.032 74.5784C129.234 74.5279 129.446 74.532 129.646 74.5901C130.074 74.6443 130.465 74.8624 130.738 75.1991C130.798 75.2779 130.833 75.3725 130.84 75.4713C130.846 75.5701 130.824 75.6688 130.776 75.7551C130.728 75.8414 130.656 75.9117 130.568 75.9571C130.481 76.0026 130.382 76.0213 130.284 76.011Z" fill="#263238"/>
<path d="M121.444 76.1971C121.755 76.1548 122.033 76.0702 122.343 76.0026C122.656 75.9673 122.95 75.8342 123.184 75.6219C123.248 75.5386 123.284 75.4359 123.284 75.3301C123.284 75.2244 123.248 75.1216 123.184 75.0383C123.032 74.8935 122.844 74.792 122.64 74.7445C122.437 74.6969 122.224 74.7049 122.024 74.7677C121.601 74.8359 121.218 75.0588 120.949 75.3936C120.888 75.4753 120.853 75.5737 120.848 75.6759C120.844 75.778 120.87 75.8791 120.924 75.966C120.977 76.0528 121.056 76.1214 121.148 76.1626C121.241 76.2038 121.345 76.2159 121.444 76.1971Z" fill="#263238"/>
<path d="M123.519 79.5717C123.519 79.5717 123.451 79.5717 123.451 79.6478C123.51 80.5613 123.451 81.6186 122.611 81.9484C122.611 81.9484 122.611 82.0076 122.611 81.9992C123.636 81.8047 123.72 80.426 123.519 79.5717Z" fill="#263238"/>
<path d="M122.679 78.6414C121.217 78.5822 121.2 81.5256 122.553 81.5848C123.906 81.644 123.906 78.6921 122.679 78.6414Z" fill="#263238"/>
<path d="M122.108 78.7936C121.848 78.9628 121.595 79.2503 121.268 79.2842C120.94 79.318 120.646 79.005 120.427 78.709H120.377C120.377 79.2672 120.57 79.8509 121.217 79.9354C121.864 80.02 122.167 79.521 122.31 78.9543C122.301 78.8866 122.209 78.7259 122.108 78.7936Z" fill="#263238"/>
<path d="M128.561 79.369C128.561 79.369 128.628 79.369 128.628 79.4451C128.586 80.3586 128.687 81.4159 129.51 81.7288C129.51 81.7288 129.51 81.788 129.51 81.7796C128.502 81.6273 128.376 80.2233 128.561 79.369Z" fill="#263238"/>
<path d="M129.385 78.4214C130.839 78.3368 130.914 81.2802 129.561 81.3648C128.209 81.4494 128.158 78.4975 129.385 78.4214Z" fill="#263238"/>
<path d="M129.998 78.6076C130.233 78.7514 130.468 79.0305 130.746 79.0474C131.023 79.0643 131.292 78.7345 131.494 78.4215H131.536C131.536 78.9797 131.393 79.5718 130.863 79.6902C130.334 79.8086 130.023 79.3265 129.855 78.7767C129.83 78.7006 129.906 78.5399 129.998 78.6076Z" fill="#263238"/>
<path d="M127.233 83.4963C127.233 83.4963 127.427 84.8581 127.427 85.5009C127.427 85.5686 127.275 85.5939 127.057 85.6109C126.509 85.7152 125.943 85.6654 125.421 85.467C124.899 85.2685 124.442 84.9291 124.099 84.4859C124.087 84.4725 124.08 84.4547 124.081 84.4364C124.082 84.4182 124.09 84.401 124.103 84.3887C124.117 84.3763 124.134 84.3698 124.152 84.3706C124.171 84.3714 124.188 84.3794 124.2 84.3929C125.015 84.9513 125.988 85.2275 126.973 85.1795C127.015 85.0019 126.561 82.8535 126.662 82.8451C127.159 82.8851 127.648 82.9933 128.116 83.1665C127.796 80.3161 127.023 77.5418 126.738 74.7084C126.738 74.686 126.746 74.6644 126.762 74.6486C126.778 74.6327 126.799 74.6238 126.822 74.6238C126.844 74.6238 126.865 74.6327 126.881 74.6486C126.897 74.6644 126.906 74.686 126.906 74.7084C127.827 77.6579 128.455 80.6924 128.779 83.767C128.805 84.0546 127.485 83.5809 127.233 83.4963Z" fill="#263238"/>
<path d="M128.258 80.2567C128.056 78.0745 129.056 76.1968 130.485 76.0276C131.913 75.8585 133.249 77.5501 133.451 79.7323C133.652 81.9145 132.61 83.7921 131.224 83.9613C129.838 84.1305 128.459 82.4389 128.258 80.2567ZM128.787 80.2059C128.964 82.0921 130.031 83.5384 131.174 83.4369C132.316 83.3354 133.106 81.703 132.93 79.8168C132.753 77.9307 131.678 76.4844 130.535 76.5859C129.392 76.6874 128.611 78.3198 128.787 80.2059Z" fill="#263238"/>
<path d="M118.386 81.1958C118.368 80.4729 118.56 79.7605 118.939 79.1459C119.318 78.5314 119.866 78.0415 120.518 77.7365C121.169 77.4314 121.895 77.3245 122.605 77.4287C123.316 77.533 123.981 77.8439 124.519 78.3234C125.057 78.8028 125.444 79.4299 125.633 80.1276C125.822 80.8254 125.804 81.5634 125.582 82.2511C125.359 82.9388 124.943 83.5463 124.382 83.9989C123.822 84.4515 123.143 84.7296 122.428 84.799C121.418 84.8569 120.426 84.5106 119.669 83.8356C118.912 83.1607 118.451 82.2118 118.386 81.1958ZM118.915 81.1451C119.022 81.7532 119.303 82.3169 119.723 82.7672C120.143 83.2175 120.684 83.5349 121.28 83.6808C121.876 83.8267 122.502 83.7947 123.08 83.5886C123.659 83.3826 124.165 83.0115 124.537 82.5207C124.91 82.0298 125.132 81.4404 125.177 80.8245C125.222 80.2086 125.088 79.5927 124.792 79.0522C124.495 78.5116 124.048 78.0698 123.506 77.7806C122.964 77.4913 122.35 77.3673 121.739 77.4235C120.875 77.5413 120.092 77.9992 119.563 78.6969C119.034 79.3945 118.801 80.2749 118.915 81.1451Z" fill="#263238"/>
<path d="M125.51 80.1557C127.409 79.3099 128.359 79.8427 128.367 79.8512L128.653 79.4029C128.611 79.4029 127.485 78.6586 125.292 79.6736L125.51 80.1557Z" fill="#263238"/>
<path d="M118.596 80.8237L118.646 80.2909C118.293 80.2909 110.143 79.5296 109.269 79.5635C108.395 79.5973 106.32 81.0098 106.093 81.1705L106.395 81.6103C107.258 80.9532 108.224 80.4445 109.252 80.1048H109.353C109.991 80.1132 115.697 80.5615 118.596 80.8237Z" fill="#263238"/>
<path d="M109.352 81.0183C110.789 80.9337 114.537 76.933 114.654 69.9298C114.654 69.9298 114.116 76.2141 113.654 77.136C113.192 78.058 115.747 74.8862 115.915 69.2447C117.685 70.5158 119.626 71.5268 121.679 72.2473C124.326 72.9916 125.947 72.9662 126.141 72.7717C126.334 72.5771 122.427 71.3423 121.368 70.1243C121.368 70.1243 128.426 73.4145 131.669 73.6682C132.048 73.6682 132.51 65.9122 127.468 62.6135C122.427 59.3149 114.486 62.8842 112.344 64.9649C112.344 64.9649 109.823 65.3201 107.109 69.067C104.395 72.814 107.806 81.1113 109.352 81.0183Z" fill="#263238"/>
<path d="M111.167 82.8365C111.167 82.8365 108.285 78.6074 106.394 79.6562C104.504 80.705 106.638 86.7695 108.848 87.6153C109.124 87.7434 109.423 87.8141 109.727 87.8233C110.031 87.8324 110.333 87.7797 110.617 87.6684C110.9 87.557 111.158 87.3893 111.375 87.1753C111.592 86.9612 111.765 86.7053 111.881 86.4227L111.167 82.8365Z" fill="#EB9481"/>
<path d="M107.05 81.3817V81.4409C108.596 82.0922 109.403 83.5469 109.966 85.0525C109.877 84.8944 109.756 84.7577 109.61 84.6519C109.464 84.5461 109.296 84.4737 109.119 84.4398C108.942 84.406 108.76 84.4115 108.586 84.456C108.411 84.5004 108.248 84.5828 108.109 84.6972C108.109 84.6972 108.109 84.7903 108.151 84.7818C108.424 84.6954 108.718 84.697 108.99 84.7865C109.263 84.8759 109.501 85.0487 109.672 85.2809C109.956 85.6682 110.198 86.0851 110.394 86.5242C110.461 86.668 110.713 86.5919 110.663 86.4312C110.697 84.4012 109.176 81.6016 107.05 81.3817Z" fill="#263238"/>
<path d="M110.705 87.3109C110.707 87.5053 110.651 87.6958 110.545 87.8583C110.439 88.0207 110.287 88.1478 110.109 88.2234C109.931 88.2989 109.735 88.3196 109.546 88.2827C109.356 88.2458 109.181 88.153 109.044 88.0161C108.907 87.8793 108.813 87.7045 108.775 87.5139C108.737 87.3234 108.756 87.1257 108.829 86.9459C108.903 86.7661 109.028 86.6124 109.188 86.5042C109.349 86.396 109.537 86.3382 109.73 86.3382C109.988 86.3382 110.234 86.4404 110.417 86.6226C110.599 86.8048 110.703 87.0522 110.705 87.3109Z" fill="white"/>
<path d="M140.441 167.781C140.441 167.781 95.6892 168.449 84.581 167.663C84.581 167.663 93.639 115.984 105.587 102.924C106.033 102.434 106.504 101.968 106.999 101.529C107.73 100.911 107.629 95.9804 107.974 95.6082C108.318 95.2361 122.838 97.1561 123.023 97.5113C123.208 97.8665 123.956 102.518 123.956 102.518C127.249 106.748 137.845 121.363 139.08 127.394C140.315 133.424 136.425 140.081 136.425 140.081L140.441 167.781Z" fill="#AFAFAF"/>
<path d="M102.168 112.144C99.5214 124.983 101.093 152.743 107.21 157.818C117.293 166.124 141.526 168.551 148.29 169.355C151.206 169.701 157.012 150.493 155.012 148.015C153.012 145.537 123.225 141.68 121.805 140.403C120.822 139.489 116.192 122.717 112.201 113.261C106.832 100.464 103.135 107.408 102.168 112.144Z" fill="#EB9481"/>
<path d="M149.971 146.467C149.971 146.467 158.911 146.374 164.76 146.594C168.028 146.712 173.599 147.44 175.96 148.624C179.481 150.408 193.093 160.135 190.816 163.51C188.757 166.563 184.707 162.546 184.707 162.546C184.707 162.546 189.547 166.513 186.581 168.915C183.615 171.317 178.817 165.582 178.817 165.582C178.817 165.582 184.245 169.439 180.834 171.689C177.876 173.651 171.667 167.629 171.667 167.629C171.667 167.629 177.809 171.012 174.969 173.355C171.835 175.893 161.399 168.044 161.399 168.044C153.92 169.735 149.206 169.735 143.711 168.83C142.703 168.661 149.971 146.467 149.971 146.467Z" fill="#EB9481"/>
<path d="M180.312 166.918L179.094 165.624C178.34 164.767 177.537 163.953 176.69 163.188C175.85 162.461 175.01 161.768 174.086 161.108C173.161 160.448 172.119 159.788 171.195 159.069C171.12 159.01 171.036 159.12 171.12 159.171C172.037 159.883 172.918 160.643 173.758 161.446C174.598 162.207 175.439 162.985 176.279 163.755C177.119 164.525 177.959 165.21 178.8 165.946C179.211 166.31 179.64 166.69 180.018 167.071C180.376 167.462 180.767 167.821 181.186 168.145C181.228 168.145 181.278 168.145 181.253 168.077C180.981 167.658 180.666 167.27 180.312 166.918Z" fill="#263238"/>
<path d="M185.7 163.391C184.351 161.752 182.891 160.209 181.33 158.773C179.749 157.348 178.029 156.086 176.196 155.01C176.129 155.01 176.062 155.06 176.112 155.111C177.692 156.54 179.297 157.944 180.902 159.34C181.683 160.025 185.145 163.256 185.548 163.569C185.641 163.62 185.758 163.485 185.7 163.391Z" fill="#263238"/>
<path d="M175.33 170.369C174.022 168.856 172.619 167.429 171.128 166.098C169.489 164.882 167.761 163.791 165.961 162.833C165.893 162.833 165.826 162.901 165.885 162.943C167.515 164.161 169.162 165.337 170.733 166.631C171.506 167.265 174.414 169.955 175.204 170.488C175.288 170.538 175.38 170.437 175.33 170.369Z" fill="#263238"/>
<path d="M141.584 170.149L152.247 145.122C152.247 145.122 123.04 140.258 122.141 139.666C121.242 139.074 115.915 119.553 112.495 111.89C109.075 104.227 103.201 99.7272 100.933 116.178C98.6641 132.629 101.95 152.717 105.235 156.895C109.218 161.953 124.989 168.356 141.584 170.149Z" fill="#AFAFAF"/>
<path d="M126.577 166.986C122.208 165.793 117.948 163.713 113.772 161.911C110.184 160.397 106.521 158.528 104.529 154.984C103.601 153.18 102.952 151.243 102.605 149.241C102.143 147.008 101.765 144.75 101.445 142.474C101.059 139.881 100.712 137.281 100.403 134.676C100.252 133.34 100.101 132.003 99.9665 130.667C99.8321 129.331 99.5884 127.994 99.538 126.649C99.538 126.631 99.5309 126.614 99.5183 126.602C99.5057 126.589 99.4886 126.582 99.4707 126.582C99.4529 126.582 99.4358 126.589 99.4232 126.602C99.4106 126.614 99.4035 126.631 99.4035 126.649C99.496 127.884 99.4035 129.128 99.5044 130.371C99.5044 131.217 99.6052 131.995 99.664 132.807L99.4287 132.291C99.1699 131.698 98.9728 131.081 98.8406 130.447C98.8406 130.371 98.6977 130.405 98.7145 130.447C98.8658 131.081 99.017 131.724 99.1935 132.35C99.2775 132.655 99.3783 132.959 99.496 133.264C99.5663 133.468 99.6477 133.669 99.7396 133.864C99.9413 136.294 100.202 138.713 100.521 141.121C100.832 143.456 101.193 145.773 101.605 148.091C101.91 150.14 102.451 152.147 103.218 154.071C103.981 155.884 105.149 157.496 106.63 158.782C108.165 160.05 109.86 161.108 111.671 161.928C115.767 163.833 120 165.422 124.334 166.682C129.518 168.322 131.098 168.212 126.577 166.986Z" fill="#263238"/>
<path d="M137.543 142.517C136.468 142.373 123.755 139.684 123.259 139.54C123.011 139.464 122.786 139.324 122.608 139.134C122.43 138.944 122.304 138.711 122.242 138.457C121.847 137.425 121.503 136.368 121.133 135.328C120.494 133.535 119.845 131.75 119.184 129.974C119.184 129.576 119.108 129.128 119.066 128.781C119.024 128.434 118.94 127.834 118.864 127.36C118.696 126.337 118.394 125.33 118.268 124.307C118.268 124.205 118.108 124.239 118.133 124.307C118.389 125.315 118.541 126.346 118.587 127.386C118.629 127.792 118.654 128.231 118.679 128.612C118.293 127.572 117.898 126.531 117.486 125.499C117.007 124.298 116.461 123.089 116.075 121.854C116.075 121.769 115.923 121.812 115.949 121.854C116.386 122.962 116.696 124.138 117.041 125.237C117.385 126.337 117.755 127.521 118.125 128.663C118.847 130.904 119.612 133.129 120.385 135.362C120.755 136.436 121.116 137.527 121.511 138.593C121.62 138.992 121.833 139.354 122.129 139.641C122.424 139.928 122.792 140.13 123.192 140.225C125.401 140.825 136.207 142.627 137.518 142.678C137.652 142.762 137.686 142.534 137.543 142.517Z" fill="#263238"/>
<path d="M146.844 145.511C145.164 149.106 143.483 152.675 141.963 156.346C140.424 159.957 139.075 163.647 137.921 167.4C137.914 167.417 137.914 167.436 137.922 167.453C137.929 167.469 137.942 167.483 137.959 167.489C137.975 167.496 137.994 167.496 138.011 167.489C138.027 167.482 138.04 167.468 138.047 167.451C139.727 163.924 141.198 160.262 142.685 156.633C144.172 153.005 145.525 149.275 147.029 145.638C147.105 145.486 146.912 145.367 146.844 145.511Z" fill="#263238"/>
<path d="M178.255 142.652C176.969 143.379 169.609 141.333 166.626 143.582C164.651 145.071 162.718 148.657 162.298 153.335C161.87 158.164 165.659 157.919 167.063 155.872C168.772 153.177 170.264 150.349 171.524 147.414C172.874 147.684 174.204 148.043 175.507 148.488L178.255 142.652Z" fill="#FFE8CE"/>
<path d="M169.229 159.509C166.952 157.107 155.575 165.912 159.146 169.913C162.717 173.913 171.8 162.233 169.229 159.509Z" fill="#FFE8CE"/>
<path d="M173.028 162.952C170.751 160.55 159.374 169.354 162.945 173.355C166.516 177.356 175.599 165.675 173.028 162.952Z" fill="#FFE8CE"/>
<path d="M176.019 164.169C173.624 162.3 164.499 171.9 168.322 175.029C172.145 178.159 178.733 166.284 176.019 164.169Z" fill="#FFE8CE"/>
<path d="M179.27 164.694C176.523 163.637 170.733 175.14 175.161 176.958C179.589 178.777 182.388 165.853 179.27 164.694Z" fill="#FFE8CE"/>
<path d="M168.892 163.468C168.26 163.894 167.664 164.372 167.111 164.897C166.497 165.438 165.892 165.988 165.338 166.589C164.797 167.156 164.289 167.755 163.817 168.382C163.321 169.058 162.91 169.794 162.405 170.454C162.396 170.46 162.389 170.468 162.383 170.477C162.378 170.487 162.375 170.497 162.375 170.508C162.374 170.519 162.376 170.53 162.381 170.54C162.386 170.55 162.393 170.558 162.401 170.565C162.41 170.572 162.42 170.576 162.431 170.578C162.442 170.579 162.453 170.578 162.463 170.575C162.473 170.572 162.483 170.566 162.49 170.558C162.498 170.55 162.503 170.541 162.506 170.53C163.004 169.892 163.546 169.29 164.128 168.728C164.674 168.153 165.187 167.553 165.733 166.969C166.279 166.386 166.766 165.819 167.304 165.278C167.842 164.736 168.447 164.178 168.985 163.586C169.01 163.51 168.951 163.434 168.892 163.468Z" fill="#263238"/>
<path d="M173.413 164.542C172.926 165.294 171.22 168.212 170.699 168.948C170.178 169.684 169.632 170.42 169.077 171.139C168.523 171.858 167.985 172.644 167.355 173.321C167.304 173.38 167.397 173.473 167.456 173.414C168.086 172.737 168.775 172.12 169.371 171.41C169.968 170.699 170.514 169.98 171.052 169.227C171.985 167.735 172.827 166.188 173.573 164.592C173.573 164.516 173.455 164.474 173.413 164.542Z" fill="#263238"/>
<path d="M176.574 166.183C176.07 167.299 175.633 168.458 175.121 169.566C174.869 170.116 174.608 170.665 174.356 171.257L174.003 172.061C173.892 172.381 173.752 172.69 173.583 172.983C173.533 173.05 173.667 173.127 173.701 173.034C173.869 172.699 174.066 172.379 174.289 172.078C174.432 171.824 174.583 171.57 174.717 171.317C175.003 170.753 175.264 170.203 175.499 169.667C175.99 168.571 176.4 167.441 176.726 166.284C176.739 166.264 176.744 166.239 176.739 166.215C176.734 166.192 176.72 166.171 176.7 166.157C176.68 166.144 176.656 166.139 176.632 166.144C176.609 166.148 176.588 166.162 176.574 166.183Z" fill="#263238"/>
<path d="M192.92 59.1631C192.518 62.8318 191.057 66.3216 188.701 69.2433C186.346 72.165 183.187 74.4037 179.578 75.7097C175.968 77.0157 172.05 77.3376 168.261 76.6395C164.471 75.9414 160.959 74.2507 158.116 71.7561L147.688 73.2178L152.906 64.6083C151.551 61.4233 151.081 57.957 151.543 54.5469C152.005 51.1369 153.383 47.8993 155.543 45.1497C157.704 42.4 160.572 40.2319 163.869 38.8566C167.166 37.4813 170.78 36.9457 174.358 37.302C179.852 37.8508 184.892 40.4616 188.373 44.5607C191.853 48.6599 193.488 53.912 192.92 59.1631Z" fill="white"/>
<path d="M192.92 59.1631C192.515 62.8305 191.062 66.3205 188.719 69.2504C188.139 69.982 187.511 70.6769 186.837 71.3305C186.142 71.9652 185.407 72.5579 184.635 73.1054C183.097 74.2231 181.399 75.1237 179.594 75.7798C177.798 76.4563 175.911 76.8862 173.989 77.0568C173.028 77.1436 172.062 77.1624 171.099 77.113C170.131 77.0895 169.168 76.9928 168.217 76.8239C164.379 76.1634 160.809 74.4949 157.907 72.0051L158.159 72.0774L147.756 73.5391L147 73.6515L147.378 73.017L152.563 64.3915V64.7288C151.347 61.8831 150.828 58.8093 151.047 55.7427C151.265 52.676 152.215 49.6978 153.823 47.0359C155.444 44.38 157.673 42.1093 160.343 40.394C163.662 38.2705 167.545 37.0951 171.537 37.0055C175.529 36.916 179.466 37.916 182.885 39.8883C186.304 41.8607 189.064 44.7237 190.841 48.1418C192.618 51.5598 193.34 55.3913 192.92 59.1872V59.1631ZM192.92 59.1631C193.252 56.165 192.86 53.1341 191.774 50.3036C190.688 47.4732 188.936 44.9189 186.654 42.8373C184.373 40.7557 181.621 39.2024 178.613 38.2971C175.604 37.3917 172.418 37.1584 169.3 37.6152C166.215 38.0484 163.272 39.147 160.696 40.8277C158.152 42.5358 156.027 44.753 154.47 47.325C152.931 49.9052 152.026 52.7861 151.823 55.7498C151.632 58.7063 152.132 61.6663 153.285 64.4155L153.361 64.5922L153.26 64.7609L148.017 73.3543L147.647 72.8243L158.075 71.4268H158.217L158.327 71.5152C161.108 74.0045 164.558 75.7061 168.292 76.4303C169.226 76.6081 170.173 76.7182 171.124 76.7596C172.072 76.8238 173.024 76.8238 173.972 76.7596C175.875 76.6191 177.747 76.2244 179.535 75.587C181.341 74.97 183.04 74.0983 184.576 73.001C186.139 71.9433 187.52 70.6589 188.668 69.1941C191.02 66.2855 192.49 62.8157 192.92 59.1631Z" fill="#263238"/>
<path d="M169.762 68.4472L160.872 59.8377L163.855 57.0187L169.056 62.0463L179.853 45.8633L183.391 48.0237L169.762 68.4472Z" fill="#185BB4"/>
</svg>
