<svg width="24" height="24" viewBox="0 0 24 24" fill="none" xmlns="http://www.w3.org/2000/svg">
<g clip-path="url(#clip0_4152_24131)">
<path d="M7.05688 7.35227V5.02841C7.05688 4.41208 7.30172 3.821 7.73753 3.38519C8.17334 2.94938 8.76442 2.70454 9.38075 2.70454H18.6762C19.2925 2.70454 19.8836 2.94938 20.3194 3.38519C20.7552 3.821 21.0001 4.41208 21.0001 5.02841V18.9716C21.0001 19.5879 20.7552 20.179 20.3194 20.6148C19.8836 21.0506 19.2925 21.2955 18.6762 21.2955H9.84552C8.56217 21.2955 7.05688 20.255 7.05688 18.9716V16.6477" stroke="white" stroke-width="1.5" stroke-linecap="round" stroke-linejoin="round"/>
<path d="M12.6342 16.6477L17.2819 12L12.6342 7.35228" stroke="white" stroke-width="1.5" stroke-linecap="round" stroke-linejoin="round"/>
<path d="M0.550049 12H16.3523" stroke="white" stroke-width="1.5" stroke-linecap="round" stroke-linejoin="round"/>
</g>
<defs>
<clipPath id="clip0_4152_24131">
<rect width="24" height="24" fill="white"/>
</clipPath>
</defs>
</svg>
